<?xml version="1.0" encoding="UTF-8" standalone="no"?>
<svg
   xmlns:dc="http://purl.org/dc/elements/1.1/"
   xmlns:cc="http://creativecommons.org/ns#"
   xmlns:rdf="http://www.w3.org/1999/02/22-rdf-syntax-ns#"
   xmlns:svg="http://www.w3.org/2000/svg"
   xmlns="http://www.w3.org/2000/svg"
   xmlns:sodipodi="http://sodipodi.sourceforge.net/DTD/sodipodi-0.dtd"
   xmlns:inkscape="http://www.inkscape.org/namespaces/inkscape"
   height="512px"
   style="enable-background:new 0 0 512 512;"
   version="1.1"
   viewBox="0 0 512 512"
   width="512px"
   xml:space="preserve"
   id="svg8"
   sodipodi:docname="calc.svg"
   inkscape:version="0.92.3 (2405546, 2018-03-11)"><metadata
     id="metadata14"><rdf:RDF><cc:Work
         rdf:about=""><dc:format>image/svg+xml</dc:format><dc:type
           rdf:resource="http://purl.org/dc/dcmitype/StillImage" /><dc:title></dc:title></cc:Work></rdf:RDF></metadata><defs
     id="defs12" /><sodipodi:namedview
     pagecolor="#ffffff"
     bordercolor="#666666"
     borderopacity="1"
     objecttolerance="10"
     gridtolerance="10"
     guidetolerance="10"
     inkscape:pageopacity="0"
     inkscape:pageshadow="2"
     inkscape:window-width="2560"
     inkscape:window-height="1315"
     id="namedview10"
     showgrid="false"
     inkscape:zoom="0.4609375"
     inkscape:cx="256"
     inkscape:cy="256"
     inkscape:window-x="-13"
     inkscape:window-y="-13"
     inkscape:window-maximized="1"
     inkscape:current-layer="svg8" /><g
     id="_x32_19_x2C__Accounting_x2C__banking_x2C__calculator_x2C__finance_x2C__Audit"
     style="fill:#ffffff"><g
       id="g4"
       style="fill:#ffffff"><path
         d="M333.979,352.852h61.546h0.092h61.458v-58.539h-32.354h-0.119h-0.091    h-17.727h-0.092h-29.827h-0.088h-42.798V352.852z M391.826,415.633h-57.847v25.612v0.09v22.271h57.847V415.633z M457.075,415.633    h-57.847v47.974h57.847V415.633z M399.229,408.229h57.847v-47.975h-57.847V408.229z M333.979,408.229h57.847v-47.975h-57.847    V408.229z M440.672,311.438h-90.289v21.639h90.289V311.438z M346.68,304.034h97.663c2.05,0,3.702,1.655,3.702,3.702v29.013    c0,2.047-1.652,3.702-3.702,3.702H346.68c-2.018,0-3.702-1.655-3.702-3.702v-29.013    C342.978,305.689,344.662,304.034,346.68,304.034z M197.944,68.949c0.06,0.271,0.087,0.572,0.087,0.873s-0.028,0.602-0.087,0.873    l-0.123,27.93H312.82l0.183-46.711h-31.571c-2.019,0-3.675-1.655-3.675-3.701c0-6.05-2.407-11.527-6.317-15.5l-0.21-0.211    c-4.005-4.003-9.574-6.5-15.712-6.5c-6.05,0-11.529,2.406-15.501,6.289l-0.21,0.211c-3.973,4.003-6.468,9.541-6.5,15.62v0.091    c0,2.046-1.656,3.701-3.702,3.701h-31.6L197.944,68.949z M56.669,203.933v156.924l15.319,24.438l15.319-24.438v-23.054H69.128    c-2.046,0-3.703-1.655-3.703-3.702s1.657-3.702,3.703-3.702h18.179V203.933H75.69v92.307c0,2.017-1.656,3.702-3.702,3.702    c-2.046,0-3.703-1.686-3.703-3.702v-92.307H56.669z M56.669,192.014v4.516h30.638v-4.516H56.669z M56.669,173.716v10.895h30.638    v-10.895c0-2.979-1.235-5.719-3.19-7.675c-1.987-1.986-4.696-3.19-7.704-3.19h-8.851c-2.979,0-5.717,1.234-7.671,3.19    C57.904,167.997,56.669,170.736,56.669,173.716z M339.998,147.502H154.152v12.761h185.846V147.502z M150.45,140.098h193.251    c2.045,0,3.702,1.655,3.702,3.702v20.165c0,2.016-1.657,3.701-3.702,3.701H150.45c-2.018,0-3.671-1.686-3.671-3.701V143.8    C146.779,141.753,148.432,140.098,150.45,140.098z M150.45,332.476c-2.018,0-3.671-1.655-3.671-3.672    c0-2.046,1.653-3.702,3.671-3.702h88.544c2.046,0,3.703,1.656,3.703,3.702c0,2.017-1.656,3.672-3.703,3.672H150.45z     M150.45,354.807c-2.018,0-3.671-1.654-3.671-3.701s1.653-3.701,3.671-3.701h162.311c2.046,0,3.702,1.654,3.702,3.701    s-1.656,3.701-3.702,3.701H150.45z M150.45,377.109c-2.018,0-3.671-1.656-3.671-3.702c0-2.017,1.653-3.702,3.671-3.702h162.311    c2.046,0,3.702,1.686,3.702,3.702c0,2.046-1.656,3.702-3.702,3.702H150.45z M150.45,399.44c-2.018,0-3.671-1.655-3.671-3.702    s1.653-3.701,3.671-3.701h88.544c2.046,0,3.703,1.654,3.703,3.701s-1.656,3.702-3.703,3.702H150.45z M190.448,98.625l0.091-25.102    h-72.141c-2.769,0-5.268,1.084-7.135,2.859l-0.151,0.181c-1.863,1.866-3.039,4.454-3.039,7.284v343.342    c0,2.859,1.176,5.447,3.039,7.314c1.867,1.865,4.426,3.039,7.286,3.039h208.176v-25.131H147.26c-4.576,0-8.76-1.896-11.767-4.905    c-3.04-3.01-4.906-7.192-4.906-11.769v-280.44c0-4.544,1.867-8.728,4.875-11.737l0.06-0.061c3.011-3.01,7.163-4.875,11.739-4.875    H190.448z M380.48,286.91h22.51V83.848c0-2.83-1.172-5.418-3.039-7.284c-1.867-1.896-4.453-3.04-7.314-3.04h-72.352l-0.092,25.102    h43.613c4.572,0,8.729,1.896,11.736,4.905c3.039,3.01,4.938,7.192,4.938,11.768V286.91z M261.719,67.113    c-1.597-1.564-3.763-2.559-6.201-2.559c-2.408,0-4.604,0.994-6.17,2.559c-1.597,1.596-2.59,3.792-2.59,6.2    c0,2.438,0.993,4.604,2.59,6.2c1.565,1.564,3.762,2.558,6.17,2.558c2.438,0,4.604-0.993,6.201-2.558    c1.593-1.596,2.559-3.763,2.559-6.2C264.277,70.905,263.312,68.709,261.719,67.113z M255.518,57.151    c4.484,0,8.518,1.836,11.438,4.755c2.92,2.92,4.724,6.953,4.724,11.407c0,4.484-1.804,8.517-4.724,11.437    s-6.953,4.725-11.438,4.725c-4.454,0-8.486-1.805-11.406-4.725c-2.92-2.92-4.755-6.982-4.755-11.437s1.835-8.487,4.755-11.407    C247.031,58.987,251.064,57.151,255.518,57.151z M150.45,196.107c-2.018,0-3.671-1.654-3.671-3.701    c0-2.017,1.653-3.702,3.671-3.702h162.311c2.046,0,3.702,1.686,3.702,3.702c0,2.047-1.656,3.701-3.702,3.701H150.45z     M150.45,218.439c-2.018,0-3.671-1.655-3.671-3.702s1.653-3.702,3.671-3.702h88.544c2.046,0,3.703,1.655,3.703,3.702    s-1.656,3.702-3.703,3.702H150.45z M351.555,387.793c-2.014,0-3.702-1.686-3.702-3.702c0-2.046,1.688-3.701,3.702-3.701h22.693    c2.018,0,3.701,1.655,3.701,3.701c0,2.017-1.684,3.702-3.701,3.702H351.555z M414.908,387.793c-2.046,0-3.702-1.686-3.702-3.702    c0-2.046,1.656-3.701,3.702-3.701h7.644v-7.646c0-2.046,1.657-3.701,3.703-3.701s3.702,1.655,3.702,3.701v7.646h7.616    c2.046,0,3.702,1.655,3.702,3.701c0,2.017-1.656,3.702-3.702,3.702h-7.616v7.615c0,2.046-1.656,3.701-3.702,3.701    s-3.703-1.655-3.703-3.701v-7.615H414.908z M365.643,429.719c1.414-1.446,3.762-1.446,5.204,0    c1.446,1.414,1.446,3.761,0.032,5.206l-5.42,5.417l5.42,5.387c1.445,1.445,1.445,3.792,0,5.238c-1.447,1.444-3.795,1.444-5.236,0    l-5.419-5.388l-5.388,5.388c-1.414,1.444-3.762,1.444-5.207,0c-1.443-1.415-1.443-3.762-0.029-5.208l5.416-5.417l-5.416-5.387    c-1.445-1.444-1.445-3.792,0-5.236c1.443-1.446,3.791-1.446,5.236,0l5.419,5.387L365.643,429.719z M441.124,432.156    c2.047,0,3.703,1.654,3.703,3.701c0,2.018-1.656,3.702-3.703,3.702h-25.373c-2.015,0-3.671-1.685-3.671-3.702    c0-2.047,1.656-3.701,3.671-3.701H441.124z M441.124,442.117c2.047,0,3.703,1.655,3.703,3.703c0,2.016-1.656,3.7-3.703,3.7    h-25.373c-2.015,0-3.671-1.685-3.671-3.7c0-2.048,1.656-3.703,3.671-3.703H441.124z M67.412,472.426    c-2.046,0-3.699-1.656-3.699-3.703c0-2.046,1.653-3.702,3.699-3.702h222.868c2.046,0,3.702,1.656,3.702,3.702    c0,2.047-1.656,3.703-3.702,3.703H67.412z M197.913,485.999c-2.046,0-3.703-1.686-3.703-3.703c0-2.046,1.657-3.7,3.703-3.7    h154.246c2.047,0,3.703,1.654,3.703,3.7c0,2.018-1.656,3.703-3.703,3.703H197.913z M367.927,485.999    c-2.046,0-3.699-1.686-3.699-3.703c0-2.046,1.653-3.7,3.699-3.7h19.296c2.045,0,3.698,1.654,3.698,3.7    c0,2.018-1.653,3.703-3.698,3.703H367.927z M58.624,485.577c-2.046,0-3.699-1.655-3.699-3.702c0-2.046,1.653-3.701,3.699-3.701    h73.075c2.046,0,3.703,1.655,3.703,3.701c0,2.047-1.657,3.702-3.703,3.702H58.624z M330.277,286.91h42.798V115.298    c0-2.528-1.053-4.845-2.737-6.53c-1.656-1.686-4.004-2.739-6.531-2.739H147.26c-2.558,0-4.875,1.054-6.563,2.708    c-1.685,1.686-2.706,4.033-2.706,6.562v280.44c0,2.528,1.021,4.876,2.706,6.53c1.688,1.687,4.004,2.739,6.563,2.739h179.314    v-48.455v-0.12v-65.821C326.574,288.564,328.23,286.91,330.277,286.91z"
         style="fill-rule:evenodd;clip-rule:evenodd;fill:#ffffff"
         id="path2" /></g></g><g
     id="Layer_1"
     style="fill:#ffffff" /></svg>