<?xml version="1.0" encoding="UTF-8" standalone="no"?>
<svg
   xmlns:dc="http://purl.org/dc/elements/1.1/"
   xmlns:cc="http://creativecommons.org/ns#"
   xmlns:rdf="http://www.w3.org/1999/02/22-rdf-syntax-ns#"
   xmlns:svg="http://www.w3.org/2000/svg"
   xmlns="http://www.w3.org/2000/svg"
   xmlns:sodipodi="http://sodipodi.sourceforge.net/DTD/sodipodi-0.dtd"
   xmlns:inkscape="http://www.inkscape.org/namespaces/inkscape"
   enable-background="new 0 0 200 200"
   height="200px"
   id="Layer_1"
   version="1.1"
   viewBox="0 0 200 200"
   width="200px"
   xml:space="preserve"
   sodipodi:docname="case.svg"
   inkscape:version="0.92.2 (5c3e80d, 2017-08-06)"><metadata
     id="metadata9"><rdf:RDF><cc:Work
         rdf:about=""><dc:format>image/svg+xml</dc:format><dc:type
           rdf:resource="http://purl.org/dc/dcmitype/StillImage" /></cc:Work></rdf:RDF></metadata><defs
     id="defs7" /><sodipodi:namedview
     pagecolor="#ffffff"
     bordercolor="#666666"
     borderopacity="1"
     objecttolerance="10"
     gridtolerance="10"
     guidetolerance="10"
     inkscape:pageopacity="0"
     inkscape:pageshadow="2"
     inkscape:window-width="2560"
     inkscape:window-height="1315"
     id="namedview5"
     showgrid="false"
     inkscape:zoom="1.18"
     inkscape:cx="-447.45763"
     inkscape:cy="100"
     inkscape:window-x="-13"
     inkscape:window-y="-13"
     inkscape:window-maximized="1"
     inkscape:current-layer="Layer_1" /><path
     d="m 191.10169,56.101281 v 31.539407 c -1.19524,5.047034 -3.84358,9.682288 -7.75549,13.442052 -5.50254,5.28117 -12.83623,8.19187 -20.63909,8.19187 h -49.06008 v -9.602121 c 0,-4.05767 -3.32066,-7.377415 -7.37832,-7.377415 H 93.730381 c -4.055847,0 -7.375593,3.320656 -7.375593,7.377415 v 9.602121 H 37.29197 c -7.80286,0 -15.134724,-2.9107 -20.639089,-8.19187 C 12.73733,97.328442 10.093559,92.689544 8.898305,87.644332 V 56.101281 c 0,-6.798919 5.566314,-12.365233 12.366144,-12.365233 H 178.73737 c 6.79892,0 12.36432,5.566314 12.36432,12.365233 z m -84.83207,70.151949 c 0.64955,0 1.19161,-0.54297 1.19161,-1.19161 v -9.60394 -6.18307 -9.602121 c 0,-0.648644 -0.54206,-1.195254 -1.19161,-1.195254 H 93.730381 c -0.646822,0 -1.195254,0.54661 -1.195254,1.195254 v 9.602121 6.18307 9.60394 c 0,0.64864 0.548432,1.19161 1.195254,1.19161 z m 81.3611,-20.71106 c -6.665,6.39261 -15.51098,9.91642 -24.92361,9.91642 h -49.06008 v 9.60394 c 0,4.0522 -3.32066,7.37468 -7.37832,7.37468 H 93.730381 c -4.055847,0 -7.375593,-3.32156 -7.375593,-7.37468 v -9.60394 H 37.29197 c -9.410805,0 -18.258601,-3.52381 -24.92269,-9.91642 -1.266314,-1.21621 -2.4251275,-2.50712 -3.470975,-3.8618 v 66.94972 c 0,6.80439 5.566314,12.36615 12.366144,12.36615 H 178.73737 c 6.79892,0 12.36432,-5.56176 12.36432,-12.36615 v -66.94972 c -1.04767,1.35468 -2.20193,2.64559 -3.47097,3.8618 z M 128.51118,22.626874 c -2.41602,-2.416017 -5.5818,-3.623114 -8.74485,-3.623114 H 80.237309 c -3.164873,0 -6.332479,1.207097 -8.746673,3.623114 -2.412373,2.414195 -3.620382,5.579068 -3.620382,8.74303 v 6.183072 h 10.508581 v -6.183072 c 0,-0.350741 0.09566,-0.863644 0.54661,-1.311864 0.446398,-0.448221 0.95839,-0.545699 1.311864,-0.545699 h 39.529941 c 0.34801,0 0.86181,0.09748 1.30913,0.545699 0.45004,0.44822 0.54569,0.961123 0.54569,1.311864 v 6.183072 h 10.50858 v -6.183072 c -9.1e-4,-3.163962 -1.2071,-6.327924 -3.61947,-8.74303 z"
     id="path2"
     style="fill:#ffffff;stroke-width:0.91101694"
     inkscape:connector-curvature="0" /></svg>