<?xml version="1.0" encoding="UTF-8" standalone="no"?>
<!-- Created with Inkscape (http://www.inkscape.org/) -->

<svg
   xmlns:dc="http://purl.org/dc/elements/1.1/"
   xmlns:cc="http://creativecommons.org/ns#"
   xmlns:rdf="http://www.w3.org/1999/02/22-rdf-syntax-ns#"
   xmlns:svg="http://www.w3.org/2000/svg"
   xmlns="http://www.w3.org/2000/svg"
   xmlns:sodipodi="http://sodipodi.sourceforge.net/DTD/sodipodi-0.dtd"
   xmlns:inkscape="http://www.inkscape.org/namespaces/inkscape"
   width="122.46825mm"
   height="118.67091mm"
   viewBox="0 0 122.46826 118.67091"
   version="1.1"
   id="svg8"
   inkscape:version="0.92.2 (5c3e80d, 2017-08-06)"
   sodipodi:docname="complaint.svg">
  <defs
     id="defs2" />
  <sodipodi:namedview
     id="base"
     pagecolor="#ffffff"
     bordercolor="#666666"
     borderopacity="1.0"
     inkscape:pageopacity="0.0"
     inkscape:pageshadow="2"
     inkscape:zoom="1.4"
     inkscape:cx="205.82189"
     inkscape:cy="134.08155"
     inkscape:document-units="mm"
     inkscape:current-layer="layer1"
     showgrid="false"
     fit-margin-top="0"
     fit-margin-left="0"
     fit-margin-right="0"
     fit-margin-bottom="0"
     inkscape:window-width="2560"
     inkscape:window-height="1315"
     inkscape:window-x="-13"
     inkscape:window-y="-13"
     inkscape:window-maximized="1" />
  <metadata
     id="metadata5">
    <rdf:RDF>
      <cc:Work
         rdf:about="">
        <dc:format>image/svg+xml</dc:format>
        <dc:type
           rdf:resource="http://purl.org/dc/dcmitype/StillImage" />
        <dc:title></dc:title>
      </cc:Work>
    </rdf:RDF>
  </metadata>
  <g
     inkscape:label="Layer 1"
     inkscape:groupmode="layer"
     id="layer1"
     transform="translate(364.41868,-99.029444)">
    <path
       style="fill:#ffffff;stroke-width:0.26458332"
       d="m -334.20954,217.14677 c -2.09937,-1.03918 -2.07417,-0.94289 -4.21126,-16.09194 -1.05901,-7.50697 -1.93026,-13.87724 -1.93612,-14.15615 -0.006,-0.27891 -0.0752,-0.4426 -0.15402,-0.36376 -0.0788,0.0789 -0.89864,2.58135 -1.82177,5.56111 -0.92313,2.97976 -1.81871,5.6799 -1.99019,6.00031 -1.02617,1.91742 -4.30069,2.13042 -5.8824,0.38264 -0.53582,-0.59207 -7.09561,-21.24567 -7.09561,-22.34061 v -0.77111 h -3.0427 c -2.68994,0 -3.10406,-0.0614 -3.57188,-0.52917 -0.63683,-0.63683 -0.66163,-1.01605 -0.11729,-1.79321 0.39723,-0.56712 0.56663,-0.58804 4.7625,-0.58804 2.39285,0 4.35062,-0.0828 4.35062,-0.18396 0,-0.10118 -0.32408,-0.52222 -0.72018,-0.93566 -0.56326,-0.58792 -0.66003,-0.84707 -0.44411,-1.18936 0.15183,-0.2407 0.42583,-0.48757 0.60889,-0.54859 0.18306,-0.061 1.38071,0.94392 2.66145,2.23321 l 2.32862,2.34415 1.52338,4.7625 1.52337,4.7625 0.6107,-1.85208 c 0.33588,-1.01865 0.98444,-3.07541 1.44124,-4.57059 0.91734,-3.00262 1.65419,-4.10204 3.06026,-4.56609 1.34549,-0.44405 2.61123,-0.11479 3.68445,0.95843 l 0.92444,0.92443 11.15033,-0.0166 11.15034,-0.0166 0.98847,-0.89302 c 1.17574,-1.06221 2.30045,-1.3643 3.54734,-0.95279 1.64222,0.54198 2.28147,1.63069 3.69742,6.29706 0.71612,2.36002 1.37927,4.29094 1.47367,4.29094 0.0944,0 0.9222,-2.09662 1.66937,-4.71053 l 1.49773,-4.71052 2.2394,-2.18583 c 1.98198,-1.93456 2.30192,-2.15236 2.78329,-1.89474 0.71976,0.3852 0.68622,0.84025 -0.11757,1.59537 -0.36381,0.34178 -0.66146,0.71972 -0.66146,0.83987 0,0.12016 1.96179,0.21847 4.35952,0.21847 4.29185,0 4.36589,0.01 4.76953,0.62574 0.47476,0.72457 0.19529,1.83741 -0.53146,2.11629 -0.24134,0.0926 -1.67921,0.1684 -3.19527,0.1684 -2.46436,0 -2.75649,0.0498 -2.75649,0.46996 0,0.25848 -1.37264,4.81262 -3.05031,10.12031 -1.67768,5.30769 -3.17412,10.1266 -3.32542,10.70868 -0.69091,2.65796 -3.44146,3.88641 -5.64818,2.52259 -1.01098,-0.62483 -1.29404,-1.12551 -2.09923,-3.71321 -0.51118,-1.64285 -0.64573,-1.87053 -0.78177,-1.32292 -0.0904,0.3638 -0.76508,5.00724 -1.49935,10.31875 -0.73426,5.31151 -1.40743,9.89542 -1.49593,10.18646 -0.29902,0.98341 -1.18915,1.99369 -2.21988,2.51953 -0.9559,0.48766 -1.57851,0.52317 -9.17199,0.52297 -7.73246,-2e-4 -8.2033,-0.0283 -9.26449,-0.55361 z m 5.45145,-45.56537 c -9.97282,-3.39944 -10.62139,-17.12575 -1.02615,-21.71723 1.61778,-0.77414 1.9011,-0.82295 4.77622,-0.82295 2.99391,0 3.09715,0.0201 5.04683,0.98371 2.46505,1.21829 4.42526,3.21104 5.60178,5.69476 0.80024,1.68938 0.84705,1.95633 0.84705,4.8309 0,2.86724 -0.0483,3.14463 -0.83728,4.81002 -2.60197,5.49218 -8.75391,8.14825 -14.40845,6.22079 z m 23.39421,-5.75862 c 1.2125,-0.80312 2.6189,-2.48464 3.46033,-4.13723 0.51906,-1.01946 1.15885,-3.72649 1.26618,-5.35735 l 0.0776,-1.17968 -3.25472,-0.72647 c -10.10351,-2.25516 -18.06825,-6.17343 -23.80247,-11.70968 -4.9457,-4.77495 -7.24851,-9.67138 -7.22586,-15.3642 0.0224,-5.63867 2.37563,-10.46433 7.49905,-15.37823 6.6272,-6.35617 16.53005,-10.58069 29.17721,-12.446867 4.46044,-0.658172 15.11872,-0.658172 19.57917,0 12.61652,1.861657 22.56986,6.109717 29.18822,12.457437 2.79628,2.68194 4.36318,4.75305 5.6382,7.45249 1.32344,2.80197 1.81055,4.9663 1.81055,8.04468 0,3.07839 -0.48711,5.24271 -1.81055,8.04468 -4.6787,9.90565 -18.34671,17.71949 -34.72673,19.85285 l -3.07531,0.40054 -1.81948,1.81212 c -2.92303,2.9112 -6.94591,5.00626 -13.05406,6.79836 -2.74086,0.80415 -9.06972,2.24978 -9.84937,2.24978 -0.16816,0 0.24675,-0.36595 0.92201,-0.81323 z m 6.29236,-18.95274 c 2.09785,-1.23924 2.09005,-5.20379 -0.0124,-6.29101 -2.62212,-1.35595 -5.60686,0.74313 -5.21464,3.66732 0.3422,2.55133 3.04926,3.91012 5.22703,2.62369 z m 13.37835,-0.42492 c 0.79753,-0.73087 0.97751,-1.09792 1.08454,-2.21172 0.23152,-2.4095 -1.10106,-4.05685 -3.27997,-4.05473 -2.15163,0.002 -3.73927,1.8765 -3.44537,4.06768 0.26096,1.94564 1.55626,3.06427 3.55622,3.07118 0.91152,0.003 1.31213,-0.1645 2.08458,-0.87241 z m 12.25724,0.53783 c 0.35944,-0.18188 0.93559,-0.74567 1.28034,-1.25287 0.52013,-0.76523 0.60723,-1.16603 0.51172,-2.35485 -0.0996,-1.23925 -0.24508,-1.55178 -1.07801,-2.3151 -1.5995,-1.46583 -3.88755,-1.1617 -5.12994,0.68189 -1.06678,1.583 -0.67768,3.79976 0.88235,5.02688 0.80389,0.63234 2.50342,0.73529 3.53354,0.21405 z m -25.38605,-12.16308 c 0.003,-0.61847 0.17887,-6.60136 0.39015,-13.29531 0.21127,-6.69396 0.38716,-12.31967 0.39086,-12.50157 0.005,-0.24401 -0.7217,-0.33073 -2.77139,-0.33073 h -2.77813 l -0.006,1.65365 c -0.0107,2.96829 0.58486,24.92807 0.68531,25.26771 0.067,0.22665 0.7249,0.33073 2.09049,0.33073 h 1.99268 l 0.006,-1.12448 z m 12.95858,-0.34099 c 0,-1.88571 0.46566,-17.4072 0.66448,-22.14859 l 0.15255,-3.63803 h -2.86105 -2.86106 l 0.0697,1.91823 c 0.19399,5.33777 0.60426,20.99338 0.60322,23.01875 l -0.001,2.31511 h 2.11667 2.11667 z M -272.89882,134.1 c 0,-2.23052 0.45971,-17.96 0.65171,-22.29888 l 0.13757,-3.10886 h -2.89711 -2.89712 l 0.12749,2.57969 c 0.17175,3.47531 0.64413,20.06829 0.64413,22.62608 v 2.04632 h 2.11666 2.11667 z"
       id="path826"
       inkscape:connector-curvature="0"
       sodipodi:nodetypes="csccsccscsccsscccccccccccccccssssccccssccssccccccccsccscsccscsccccssccssccscccccscccscccccccccccccssccccscccsccccscccccccccsscccsscccs" />
  </g>
</svg>
