<?xml version="1.0" encoding="UTF-8" standalone="no"?>
<svg
   xmlns:dc="http://purl.org/dc/elements/1.1/"
   xmlns:cc="http://creativecommons.org/ns#"
   xmlns:rdf="http://www.w3.org/1999/02/22-rdf-syntax-ns#"
   xmlns:svg="http://www.w3.org/2000/svg"
   xmlns="http://www.w3.org/2000/svg"
   xmlns:sodipodi="http://sodipodi.sourceforge.net/DTD/sodipodi-0.dtd"
   xmlns:inkscape="http://www.inkscape.org/namespaces/inkscape"
   height="6.82666in"
   style="shape-rendering:geometricPrecision; text-rendering:geometricPrecision; image-rendering:optimizeQuality; fill-rule:evenodd; clip-rule:evenodd"
   viewBox="0 0 6.82666 6.82666"
   width="6.82666in"
   xml:space="preserve"
   version="1.1"
   id="svg25"
   sodipodi:docname="gift.svg"
   inkscape:version="0.92.2 (5c3e80d, 2017-08-06)"><metadata
     id="metadata29"><rdf:RDF><cc:Work
         rdf:about=""><dc:format>image/svg+xml</dc:format><dc:type
           rdf:resource="http://purl.org/dc/dcmitype/StillImage" /><dc:title></dc:title></cc:Work></rdf:RDF></metadata><sodipodi:namedview
     pagecolor="#ffffff"
     bordercolor="#666666"
     borderopacity="1"
     objecttolerance="10"
     gridtolerance="10"
     guidetolerance="10"
     inkscape:pageopacity="0"
     inkscape:pageshadow="2"
     inkscape:window-width="2560"
     inkscape:window-height="1315"
     id="namedview27"
     showgrid="false"
     inkscape:zoom="0.36010777"
     inkscape:cx="-369.33389"
     inkscape:cy="327.67969"
     inkscape:window-x="-13"
     inkscape:window-y="-13"
     inkscape:window-maximized="1"
     inkscape:current-layer="svg25" /><defs
     id="defs4"><style
       type="text/css"
       id="style2"><![CDATA[
    .fil1 {fill:none}
    .fil0 {fill:black}
   ]]></style></defs><g
     id="Layer_x0020_1"
     style="fill:#ffffff"
     transform="matrix(1.1977492,0,0,1.1977492,-0.79726149,-0.60751356)"><path
       class="fil0"
       d="M 3.97781,1.23845 C 3.769141,1.50045 3.638483,1.807348 3.58346,1.95293 h 0.35787 l 0.04,3.9e-6 1.16533,-3.9e-6 C 5.255585,1.789233 5.382396,1.556757 5.400168,1.34095 5.4177782,1.127186 5.3234397,0.927832 4.982101,0.830741 4.546447,0.706824 4.212314,0.944021 3.977811,1.23845 Z M 3.910901,1.739604 h 0.070433 l 1.04755,-3.9e-6 C 5.104392,1.6120491 5.17649,1.4578011 5.187557,1.3234391 5.202037,1.1476161 5.080368,1.0804861 4.923734,1.0359351 4.594317,0.9422343 4.341037,1.1248251 4.144683,1.3713561 c -0.087945,0.110425 -0.1665,0.236972 -0.23378,0.368248 z"
       id="path6"
       style="fill:#ffffff"
       inkscape:connector-curvature="0" /><path
       class="fil0"
       d="M 3.44738,1.95293 C 3.3923603,1.807347 3.261695,1.50045 3.053026,1.23845 2.818526,0.944021 2.484392,0.706824 2.048736,0.830741 1.707397,0.9278316 1.613059,1.127186 1.630669,1.34095 1.6484407,1.556757 1.775252,1.789233 1.884177,1.95293 l 1.16533,3.9e-6 0.04,-3.9e-6 h 0.35787 z M 3.119935,1.739599 C 3.0526555,1.608323 2.974096,1.481772 2.886155,1.371355 2.689801,1.124824 2.436521,0.942233 2.107104,1.035934 1.95047,1.0804852 1.828801,1.147615 1.843281,1.323438 1.8543479,1.4578 1.9264464,1.612048 2.001954,1.739599 h 1.11798 z"
       id="path8"
       style="fill:#ffffff"
       inkscape:connector-curvature="0" /><polygon
       class="fil0"
       points="1.55686,3.10977 1.59686,3.10977 3.04951,3.10977 3.04951,2.03293 1.86307,2.03293 1.84207,2.03293 1.21637,2.03293 1.21637,3.10977 "
       id="polygon10"
       style="fill:#ffffff" /><polygon
       class="fil0"
       points="3.50442,2.03293 3.47014,2.03293 3.12951,2.03293 3.12951,3.10977 3.90133,3.10977 3.90133,2.03293 3.56069,2.03293 3.52641,2.03293 "
       id="polygon12"
       style="fill:#ffffff" /><polygon
       class="fil0"
       points="5.18877,2.03293 5.16777,2.03293 3.98133,2.03293 3.98133,3.10977 5.43397,3.10977 5.47397,3.10977 5.81447,3.10977 5.81447,2.03293 "
       id="polygon14"
       style="fill:#ffffff" /><polygon
       class="fil0"
       points="3.98133,5.91688 5.39397,5.91688 5.39397,3.18977 3.98133,3.18977 "
       id="polygon16"
       style="fill:#ffffff" /><polygon
       class="fil0"
       points="3.12951,3.18977 3.12951,5.91688 3.90133,5.91688 3.90133,3.18977 "
       id="polygon18"
       style="fill:#ffffff" /><polygon
       class="fil0"
       points="1.63686,3.18977 1.63686,5.91688 3.04951,5.91688 3.04951,3.18977 "
       id="polygon20"
       style="fill:#ffffff" /></g><rect
     class="fil1"
     height="6.82666"
     width="6.82666"
     id="rect23" /></svg>