<?xml version="1.0" encoding="UTF-8" standalone="no"?>
<svg
   xmlns:dc="http://purl.org/dc/elements/1.1/"
   xmlns:cc="http://creativecommons.org/ns#"
   xmlns:rdf="http://www.w3.org/1999/02/22-rdf-syntax-ns#"
   xmlns:svg="http://www.w3.org/2000/svg"
   xmlns="http://www.w3.org/2000/svg"
   xmlns:sodipodi="http://sodipodi.sourceforge.net/DTD/sodipodi-0.dtd"
   xmlns:inkscape="http://www.inkscape.org/namespaces/inkscape"
   enable-background="new 0 0 85 85"
   height="85px"
   id="Layer_1"
   version="1.1"
   viewBox="0 0 85 85"
   width="85px"
   xml:space="preserve"
   sodipodi:docname="info.svg"
   inkscape:version="0.92.2 (5c3e80d, 2017-08-06)"><metadata
     id="metadata9"><rdf:RDF><cc:Work
         rdf:about=""><dc:format>image/svg+xml</dc:format><dc:type
           rdf:resource="http://purl.org/dc/dcmitype/StillImage" /></cc:Work></rdf:RDF></metadata><defs
     id="defs7" /><sodipodi:namedview
     pagecolor="#ffffff"
     bordercolor="#666666"
     borderopacity="1"
     objecttolerance="10"
     gridtolerance="10"
     guidetolerance="10"
     inkscape:pageopacity="0"
     inkscape:pageshadow="2"
     inkscape:window-width="2560"
     inkscape:window-height="1315"
     id="namedview5"
     showgrid="false"
     inkscape:zoom="2.7764706"
     inkscape:cx="-269.40678"
     inkscape:cy="42.5"
     inkscape:window-x="-13"
     inkscape:window-y="-13"
     inkscape:window-maximized="1"
     inkscape:current-layer="Layer_1" /><path
     d="M 42.5,6.483051 C 22.608474,6.483051 6.483051,22.608475 6.483051,42.5 6.483051,62.391526 22.608474,78.516949 42.5,78.516949 62.391525,78.516949 78.516949,62.392373 78.516949,42.5 78.516949,22.607627 62.391525,6.483051 42.5,6.483051 Z m -0.179661,56.158475 c 0,0 -1.671186,1.111016 -2.81356,1.105932 -0.101694,0.04661 -0.161863,0.07373 -0.161863,0.07373 l 0.0025,-0.07373 c -0.239831,-0.01102 -0.481356,-0.04491 -0.724577,-0.105932 l -0.361023,-0.08898 C 36.2669,63.057628 35.210968,61.079662 35.707578,59.085594 l 2.777119,-11.195763 1.253389,-5.056779 c 1.166102,-4.694916 -3.697457,0.998305 -4.694914,-1.164407 -0.658475,-1.429661 3.783051,-4.429661 7.027965,-6.691525 0,0 1.669492,-1.109322 2.812712,-1.105085 0.102543,-0.04746 0.162713,-0.07372 0.162713,-0.07372 l -0.0042,0.07372 c 0.241526,0.01102 0.483051,0.04491 0.726272,0.105085 l 0.361016,0.08983 c 1.994916,0.494916 3.21017,2.512712 2.715255,4.50678 l -2.776271,11.19661 -1.255933,5.05678 c -1.164407,4.694915 3.618644,-1.02034 4.615255,1.144915 0.658475,1.427966 -3.86356,4.407627 -7.107627,6.669491 z m 7.038984,-34.994915 c -0.693221,2.792372 -3.518645,4.494915 -6.31017,3.801694 -2.793221,-0.69322 -4.495763,-3.517796 -3.802542,-6.311017 0.693219,-2.79322 3.518643,-4.494915 6.310168,-3.801695 2.793221,0.692374 4.494916,3.517797 3.802544,6.311018 z"
     id="path2"
     style="fill:#ffffff;stroke-width:0.84745759"
     inkscape:connector-curvature="0" /></svg>