<?xml version="1.0" encoding="UTF-8" standalone="no"?>
<svg
   xmlns:dc="http://purl.org/dc/elements/1.1/"
   xmlns:cc="http://creativecommons.org/ns#"
   xmlns:rdf="http://www.w3.org/1999/02/22-rdf-syntax-ns#"
   xmlns:svg="http://www.w3.org/2000/svg"
   xmlns="http://www.w3.org/2000/svg"
   xmlns:sodipodi="http://sodipodi.sourceforge.net/DTD/sodipodi-0.dtd"
   xmlns:inkscape="http://www.inkscape.org/namespaces/inkscape"
   enable-background="new 0.464 -2.279 141.732 141.732"
   height="141.732px"
   id="Livello_1"
   version="1.1"
   viewBox="0.464 -2.279 141.732 141.732"
   width="141.732px"
   xml:space="preserve"
   sodipodi:docname="location.svg"
   inkscape:version="0.92.2 (5c3e80d, 2017-08-06)"><metadata
     id="metadata11"><rdf:RDF><cc:Work
         rdf:about=""><dc:format>image/svg+xml</dc:format><dc:type
           rdf:resource="http://purl.org/dc/dcmitype/StillImage" /></cc:Work></rdf:RDF></metadata><defs
     id="defs9" /><sodipodi:namedview
     pagecolor="#ffffff"
     bordercolor="#666666"
     borderopacity="1"
     objecttolerance="10"
     gridtolerance="10"
     guidetolerance="10"
     inkscape:pageopacity="0"
     inkscape:pageshadow="2"
     inkscape:window-width="2560"
     inkscape:window-height="1315"
     id="namedview7"
     showgrid="false"
     inkscape:zoom="4.709655"
     inkscape:cx="23.524392"
     inkscape:cy="51.062186"
     inkscape:window-x="-13"
     inkscape:window-y="-13"
     inkscape:window-maximized="1"
     inkscape:current-layer="Livello_1" /><g
     id="Livello_111"
     style="fill:#ffffff"
     transform="matrix(0.80227257,0,0,0.80227257,14.103895,-0.3643003)"><path
       d="M 0,137.174 34.864,108.463 V 49.723 L 0,78.435 Z M 70.629,77.856 36.465,49.723 v 58.74 l 34.164,28.134 z M 81.893,21.947 c 0,6.062 -4.912,10.975 -10.974,10.975 -6.061,0 -10.974,-4.914 -10.974,-10.975 0,-6.061 4.913,-10.975 10.974,-10.975 6.061,0.001 10.974,4.915 10.974,10.975 m 8.441,10.975 c 1.869,-3.23 2.943,-6.975 2.943,-10.975 C 93.277,9.826 83.451,0 71.331,0 59.209,0 49.383,9.826 49.383,21.947 c 0,5.331 1.9,10.215 5.061,14.018 L 71.35,60.355 88.5,35.61 c 0.617,-0.772 1.182,-1.585 1.691,-2.438 l 0.174,-0.25 z M 72.27,136.399 105.901,108.705 V 49.967 L 72.27,77.662 Z m 70.39,0.775 V 78.435 l -35.279,-29.05 v 58.738 z"
       id="path2"
       style="fill:#ffffff"
       inkscape:connector-curvature="0" /></g><g
     id="Livello_1_1_"
     style="fill:#ffffff" /><text
     xml:space="preserve"
     style="font-style:normal;font-variant:normal;font-weight:normal;font-stretch:normal;font-size:24.29676437px;line-height:1.25;font-family:Lato;-inkscape-font-specification:Lato;font-variant-ligatures:normal;font-variant-caps:normal;font-variant-numeric:normal;text-align:start;letter-spacing:0px;word-spacing:0px;writing-mode:lr-tb;text-anchor:start;fill:#ffffff;fill-opacity:1;stroke:none;stroke-width:0.82829881;"
     x="20.708828"
     y="134.68323"
     id="text816"><tspan
       sodipodi:role="line"
       id="tspan814"
       x="20.708828"
       y="134.68323"
       style="font-style:normal;font-variant:normal;font-weight:300;font-stretch:normal;font-family:Lato;-inkscape-font-specification:'Lato Light';fill:#ffffff;stroke-width:0.82829881;">Филиалы</tspan></text>
</svg>