<?xml version="1.0" encoding="UTF-8" standalone="no"?>
<svg
   xmlns:dc="http://purl.org/dc/elements/1.1/"
   xmlns:cc="http://creativecommons.org/ns#"
   xmlns:rdf="http://www.w3.org/1999/02/22-rdf-syntax-ns#"
   xmlns:svg="http://www.w3.org/2000/svg"
   xmlns="http://www.w3.org/2000/svg"
   xmlns:sodipodi="http://sodipodi.sourceforge.net/DTD/sodipodi-0.dtd"
   xmlns:inkscape="http://www.inkscape.org/namespaces/inkscape"
   enable-background="new 0.464 -2.279 141.732 141.732"
   height="141.732px"
   id="Livello_1"
   version="1.1"
   viewBox="0.464 -2.279 141.732 141.732"
   width="141.732px"
   xml:space="preserve"
   sodipodi:docname="location.svg"
   inkscape:version="0.92.3 (2405546, 2018-03-11)"><metadata
   id="metadata11"><rdf:RDF><cc:Work
       rdf:about=""><dc:format>image/svg+xml</dc:format><dc:type
         rdf:resource="http://purl.org/dc/dcmitype/StillImage" /></cc:Work></rdf:RDF></metadata><defs
   id="defs9" /><sodipodi:namedview
   pagecolor="#ffffff"
   bordercolor="#666666"
   borderopacity="1"
   objecttolerance="10"
   gridtolerance="10"
   guidetolerance="10"
   inkscape:pageopacity="0"
   inkscape:pageshadow="2"
   inkscape:window-width="2560"
   inkscape:window-height="1315"
   id="namedview7"
   showgrid="false"
   inkscape:zoom="4.709655"
   inkscape:cx="21.078386"
   inkscape:cy="51.062186"
   inkscape:window-x="-13"
   inkscape:window-y="-13"
   inkscape:window-maximized="1"
   inkscape:current-layer="Livello_1" /><g
   id="Livello_111"
   style="fill:#ffffff"
   transform="matrix(0.80227257,0,0,0.80227257,14.103895,-0.3643003)"><path
     d="M 0,137.174 34.864,108.463 V 49.723 L 0,78.435 Z M 70.629,77.856 36.465,49.723 v 58.74 l 34.164,28.134 z M 81.893,21.947 c 0,6.062 -4.912,10.975 -10.974,10.975 -6.061,0 -10.974,-4.914 -10.974,-10.975 0,-6.061 4.913,-10.975 10.974,-10.975 6.061,0.001 10.974,4.915 10.974,10.975 m 8.441,10.975 c 1.869,-3.23 2.943,-6.975 2.943,-10.975 C 93.277,9.826 83.451,0 71.331,0 59.209,0 49.383,9.826 49.383,21.947 c 0,5.331 1.9,10.215 5.061,14.018 L 71.35,60.355 88.5,35.61 c 0.617,-0.772 1.182,-1.585 1.691,-2.438 l 0.174,-0.25 z M 72.27,136.399 105.901,108.705 V 49.967 L 72.27,77.662 Z m 70.39,0.775 V 78.435 l -35.279,-29.05 v 58.738 z"
     id="path2"
     style="fill:#ffffff"
     inkscape:connector-curvature="0" /></g><g
   id="Livello_1_1_"
   style="fill:#ffffff" /><g
   aria-label="Филиалы"
   style="font-style:normal;font-variant:normal;font-weight:normal;font-stretch:normal;font-size:28.05213165px;line-height:1.25;font-family:Lato;-inkscape-font-specification:Lato;font-variant-ligatures:normal;font-variant-caps:normal;font-variant-numeric:normal;text-align:start;letter-spacing:0px;word-spacing:0px;writing-mode:lr-tb;text-anchor:start;fill:#ffffff;fill-opacity:1;stroke:none;stroke-width:0.95632267"
   id="text816"><path
     d="m 24.812671,132.59017 q 1.627024,-0.014 2.931448,-0.56104 1.31845,-0.54701 2.244171,-1.48676 0.92572,-0.93975 1.430658,-2.18807 0.504939,-1.26234 0.504939,-2.67898 0,-1.4026 -0.504939,-2.65092 -0.504938,-1.24832 -1.430658,-2.18807 -0.925721,-0.93975 -2.244171,-1.48676 -1.304424,-0.56104 -2.931448,-0.57507 z M 23.438117,118.7745 q -1.627024,0.014 -2.945474,0.57507 -1.31845,0.54701 -2.24417,1.48676 -0.925721,0.93975 -1.430659,2.18807 -0.504938,1.24832 -0.504938,2.65092 0,1.41664 0.504938,2.67898 0.504938,1.24832 1.430659,2.18807 0.92572,0.93975 2.24417,1.48676 1.31845,0.54702 2.945474,0.56104 z m 1.374554,-1.12209 q 1.977676,0.0281 3.562621,0.67326 1.584946,0.64519 2.693005,1.73923 1.108059,1.09403 1.697154,2.55274 0.603121,1.44469 0.603121,3.05768 0,1.09404 -0.266496,2.11794 -0.266495,1.00988 -0.785459,1.90754 -0.504939,0.88365 -1.24832,1.62703 -0.743382,0.72935 -1.697154,1.26234 -0.939747,0.53299 -2.089884,0.82754 -1.150137,0.29455 -2.468588,0.30858 v 2.45456 h -1.374554 v -2.45456 q -1.977675,-0.014 -3.576647,-0.65923 -1.584945,-0.6452 -2.693004,-1.73923 -1.10806,-1.09403 -1.71118,-2.55275 -0.589095,-1.45871 -0.589095,-3.09976 0,-1.61299 0.603121,-3.05768 0.617147,-1.45871 1.739232,-2.55274 1.122085,-1.09404 2.693004,-1.73923 1.584946,-0.6452 3.534569,-0.67326 v -2.3143 h 1.374554 z"
     style="font-style:normal;font-variant:normal;font-weight:300;font-stretch:normal;font-family:Lato;-inkscape-font-specification:'Lato Light';fill:#ffffff;stroke-width:0.95632267"
     id="path11" /><path
     d="m 48.042466,122.22491 v 13.95594 H 46.70999 v -11.24891 q 0,-0.19636 0.01403,-0.42078 0.01403,-0.22442 0.04208,-0.44883 -0.09818,0.19636 -0.196365,0.36467 -0.08416,0.15429 -0.182339,0.28053 -0.02805,0.028 -0.39273,0.53299 -0.364677,0.49091 -0.967798,1.27637 -0.589095,0.78546 -1.346503,1.78131 -0.743381,0.99585 -1.514815,2.03378 -1.823388,2.42651 -4.137689,5.51224 -0.08416,0.12624 -0.224417,0.23844 -0.126235,0.0982 -0.280521,0.0982 h -0.771434 v -13.95594 h 1.346502 v 11.24891 q 0,0.19636 -0.01403,0.42078 -0.01403,0.22442 -0.04208,0.44883 0.08416,-0.19636 0.182339,-0.35065 0.09818,-0.16831 0.182339,-0.29455 0.01403,-0.0281 0.378703,-0.51896 0.378704,-0.49091 0.967799,-1.27637 0.603121,-0.79949 1.346502,-1.79534 0.743382,-0.99585 1.528841,-2.03378 1.823389,-2.42651 4.13769,-5.49822 0.08416,-0.14026 0.210391,-0.23844 0.140261,-0.11221 0.294547,-0.11221 z"
     style="font-style:normal;font-variant:normal;font-weight:300;font-stretch:normal;font-family:Lato;-inkscape-font-specification:'Lato Light';fill:#ffffff;stroke-width:0.95632267"
     id="path13" /><path
     d="m 64.015523,136.18085 h -1.346502 v -12.88996 h -5.638479 q -0.14026,2.76314 -0.476886,4.81094 -0.322599,2.03378 -0.771434,3.49249 -0.448834,1.44469 -1.009876,2.37041 -0.561043,0.92572 -1.17819,1.45871 -0.603121,0.53299 -1.234294,0.72936 -0.631173,0.19636 -1.24832,0.19636 -0.336625,0 -0.589094,-0.0561 -0.252469,-0.0561 -0.252469,-0.16832 v -0.85559 h 0.617146 q 0.504939,0 1.023903,-0.19636 0.532991,-0.21039 1.051955,-0.74338 0.518965,-0.53299 0.995851,-1.45871 0.476886,-0.92572 0.85559,-2.37041 0.39273,-1.45871 0.673251,-3.49249 0.294547,-2.03378 0.420782,-4.78289 h 8.107066 z"
     style="font-style:normal;font-variant:normal;font-weight:300;font-stretch:normal;font-family:Lato;-inkscape-font-specification:'Lato Light';fill:#ffffff;stroke-width:0.95632267"
     id="path15" /><path
     d="m 79.929848,122.22491 v 13.95594 h -1.332476 v -11.24891 q 0,-0.19636 0.01403,-0.42078 0.01403,-0.22442 0.04208,-0.44883 -0.09818,0.19636 -0.196365,0.36467 -0.08416,0.15429 -0.182338,0.28053 -0.02805,0.028 -0.39273,0.53299 -0.364678,0.49091 -0.967799,1.27637 -0.589095,0.78546 -1.346502,1.78131 -0.743382,0.99585 -1.514815,2.03378 -1.823389,2.42651 -4.13769,5.51224 -0.08416,0.12624 -0.224417,0.23844 -0.126234,0.0982 -0.280521,0.0982 h -0.771434 v -13.95594 h 1.346503 v 11.24891 q 0,0.19636 -0.01403,0.42078 -0.01403,0.22442 -0.04208,0.44883 0.08416,-0.19636 0.182339,-0.35065 0.09818,-0.16831 0.182339,-0.29455 0.01403,-0.0281 0.378704,-0.51896 0.378704,-0.49091 0.967799,-1.27637 0.60312,-0.79949 1.346502,-1.79534 0.743381,-0.99585 1.528841,-2.03378 1.823389,-2.42651 4.137689,-5.49822 0.08416,-0.14026 0.210391,-0.23844 0.140261,-0.11221 0.294548,-0.11221 z"
     style="font-style:normal;font-variant:normal;font-weight:300;font-stretch:normal;font-family:Lato;-inkscape-font-specification:'Lato Light';fill:#ffffff;stroke-width:0.95632267"
     id="path17" /><path
     d="m 92.340292,129.43431 q -1.991701,0.0701 -3.436386,0.3226 -1.430658,0.23844 -2.370405,0.65922 -0.92572,0.42079 -1.374554,1.00988 -0.448834,0.57507 -0.448834,1.31845 0,0.7013 0.224417,1.22027 0.238443,0.50494 0.617147,0.84156 0.392729,0.3226 0.897668,0.47689 0.504938,0.15429 1.051955,0.15429 0.813512,0 1.486763,-0.16832 0.687277,-0.18234 1.262346,-0.49091 0.589094,-0.3226 1.094033,-0.75741 0.504938,-0.43481 0.99585,-0.93974 z m -8.205248,-5.23172 q 1.094033,-1.09404 2.300275,-1.65508 1.206241,-0.56104 2.735083,-0.56104 1.122085,0 1.963649,0.36468 0.841564,0.35065 1.38858,1.0239 0.561043,0.65922 0.841564,1.613 0.280522,0.93974 0.280522,2.10391 v 9.08889 h -0.532991 q -0.420782,0 -0.518964,-0.39273 l -0.196365,-1.79534 q -0.575069,0.56104 -1.150138,1.00988 -0.561042,0.44883 -1.178189,0.75741 -0.617147,0.30857 -1.332476,0.47688 -0.71533,0.16831 -1.57092,0.16831 -0.715329,0 -1.38858,-0.21039 -0.673251,-0.21039 -1.206242,-0.6452 -0.518964,-0.4348 -0.841564,-1.10805 -0.308573,-0.68728 -0.308573,-1.64105 0,-0.88365 0.504938,-1.64105 0.504938,-0.75741 1.584945,-1.31845 1.080007,-0.56105 2.763135,-0.89767 1.697154,-0.33663 4.067559,-0.39273 v -1.45871 q 0,-1.9356 -0.841563,-2.97353 -0.827538,-1.05195 -2.468588,-1.05195 -1.009877,0 -1.725206,0.28052 -0.701303,0.28052 -1.192216,0.61714 -0.490912,0.33663 -0.799486,0.61715 -0.308573,0.28052 -0.518964,0.28052 -0.154287,0 -0.252469,-0.0701 -0.09818,-0.0701 -0.168313,-0.18234 z"
     style="font-style:normal;font-variant:normal;font-weight:300;font-stretch:normal;font-family:Lato;-inkscape-font-specification:'Lato Light';fill:#ffffff;stroke-width:0.95632267"
     id="path19" /><path
     d="m 109.49066,136.18085 h -1.3465 v -12.88996 h -5.63848 q -0.14026,2.76314 -0.47689,4.81094 -0.3226,2.03378 -0.77143,3.49249 -0.44884,1.44469 -1.00988,2.37041 -0.561041,0.92572 -1.178188,1.45871 -0.603121,0.53299 -1.234294,0.72936 -0.631173,0.19636 -1.24832,0.19636 -0.336625,0 -0.589094,-0.0561 -0.25247,-0.0561 -0.25247,-0.16832 v -0.85559 h 0.617147 q 0.504939,0 1.023903,-0.19636 0.532991,-0.21039 1.051955,-0.74338 0.518964,-0.53299 0.995851,-1.45871 0.476886,-0.92572 0.85559,-2.37041 0.39273,-1.45871 0.67325,-3.49249 0.29455,-2.03378 0.42078,-4.78289 h 8.10707 z"
     style="font-style:normal;font-variant:normal;font-weight:300;font-stretch:normal;font-family:Lato;-inkscape-font-specification:'Lato Light';fill:#ffffff;stroke-width:0.95632267"
     id="path21" /><path
     d="m 119.05118,135.185 q 0.95377,0 1.65507,-0.22442 0.70131,-0.23844 1.16417,-0.6452 0.46286,-0.42078 0.68727,-0.98182 0.22442,-0.57507 0.22442,-1.24832 0,-0.61715 -0.19637,-1.16417 -0.18233,-0.54701 -0.63117,-0.95377 -0.43481,-0.40676 -1.16416,-0.6452 -0.72936,-0.23844 -1.79534,-0.23844 h -3.59067 v 6.10134 z m -0.0561,-7.09719 q 1.43066,0 2.38443,0.33662 0.9678,0.33663 1.54287,0.89767 0.57507,0.54702 0.81351,1.26235 0.25247,0.71533 0.25247,1.47273 0,0.88365 -0.3226,1.64105 -0.30857,0.75741 -0.93974,1.31845 -0.61715,0.54702 -1.54287,0.85559 -0.9117,0.30858 -2.11794,0.30858 h -4.9512 v -13.95594 h 1.2904 v 5.8629 z m 10.07072,-5.8629 v 13.95594 h -1.3465 v -13.95594 z"
     style="font-style:normal;font-variant:normal;font-weight:300;font-stretch:normal;font-family:Lato;-inkscape-font-specification:'Lato Light';fill:#ffffff;stroke-width:0.95632267"
     id="path23" /></g>
</svg>