<?xml version="1.0" encoding="UTF-8" standalone="no"?>
<!-- Created with Inkscape (http://www.inkscape.org/) -->

<svg
   xmlns:dc="http://purl.org/dc/elements/1.1/"
   xmlns:cc="http://creativecommons.org/ns#"
   xmlns:rdf="http://www.w3.org/1999/02/22-rdf-syntax-ns#"
   xmlns:svg="http://www.w3.org/2000/svg"
   xmlns="http://www.w3.org/2000/svg"
   xmlns:sodipodi="http://sodipodi.sourceforge.net/DTD/sodipodi-0.dtd"
   xmlns:inkscape="http://www.inkscape.org/namespaces/inkscape"
   width="49.1894mm"
   height="45.22401mm"
   viewBox="0 0 49.1894 45.224012"
   version="1.1"
   id="svg1599"
   inkscape:version="0.92.2 (5c3e80d, 2017-08-06)"
   sodipodi:docname="logo-white.svg">
  <defs
     id="defs1593" />
  <sodipodi:namedview
     id="base"
     pagecolor="#ffffff"
     bordercolor="#666666"
     borderopacity="1.0"
     inkscape:pageopacity="0.0"
     inkscape:pageshadow="2"
     inkscape:zoom="3.959798"
     inkscape:cx="85.297048"
     inkscape:cy="53.257198"
     inkscape:document-units="mm"
     inkscape:current-layer="layer1"
     showgrid="false"
     fit-margin-top="0"
     fit-margin-left="0"
     fit-margin-right="0"
     fit-margin-bottom="0"
     inkscape:window-width="2560"
     inkscape:window-height="1315"
     inkscape:window-x="-13"
     inkscape:window-y="-13"
     inkscape:window-maximized="1" />
  <metadata
     id="metadata1596">
    <rdf:RDF>
      <cc:Work
         rdf:about="">
        <dc:format>image/svg+xml</dc:format>
        <dc:type
           rdf:resource="http://purl.org/dc/dcmitype/StillImage" />
        <dc:title></dc:title>
      </cc:Work>
    </rdf:RDF>
  </metadata>
  <g
     inkscape:label="Layer 1"
     inkscape:groupmode="layer"
     id="layer1"
     transform="translate(55.593085,-94.508269)">
    <g
       id="g886"
       transform="matrix(1.0916017,0,0,1.0916017,7.0597736,-10.225581)"
       style="fill:#ffffff">
      <g
         style="fill:#ffffff;stroke:#ffffff;stroke-width:0.13795646;stroke-miterlimit:4;stroke-dasharray:none;stroke-opacity:0.48163267"
         transform="matrix(0.61933443,0,0,-0.61933443,-20.636438,119.73906)"
         id="g138">
        <path
           id="path140"
           style="fill:#ffffff;fill-opacity:1;fill-rule:nonzero;stroke:#ffffff;stroke-width:0.13795646;stroke-miterlimit:4;stroke-dasharray:none;stroke-opacity:0.48163267"
           d="m 0,0 2.463,6.682 c 0.043,0.132 0.107,0.395 0.24,0.395 0.131,0 0.195,-0.263 0.242,-0.395 L 5.406,0 Z M -22.076,0.286 C -22.383,0 -22.932,0 -23.217,0 h -2.926 c -0.703,0 -1.056,-0.066 -1.056,1.011 v 1.362 h 3.982 c 0.285,0 0.768,0 1.098,-0.265 0.33,-0.24 0.33,-0.524 0.33,-0.877 0,-0.264 0,-0.683 -0.287,-0.945 M 11.912,0 H 10.375 L 6.242,10 C 5.934,10.77 5.295,11.737 2.703,11.737 0.109,11.737 -0.529,10.77 -0.838,10 L -4.99,0 h -0.209 -1.309 -2.959 c -1.648,0 -3.072,0 -3.734,1.21 -0.129,0.265 -0.375,0.833 -0.375,2.548 0,0.747 0.066,2 0.508,2.771 0.677,1.23 1.89,1.208 3.517,1.208 h 5.322 l 1.731,3.826 h -9.451 c -1.737,0 -3.977,-0.199 -5.383,-2.003 -0.834,-1.049 -1.174,-2.416 -1.291,-4.133 -0.414,0.171 -0.904,0.287 -1.473,0.287 h -7.103 v 1.1 c 0,0.573 0.025,0.923 0.947,0.923 h 5.541 l 1.734,3.826 h -10.791 c -0.55,0 -2.394,-0.133 -2.394,-2.463 V -1.67 c 0,-1.254 0.877,-2.155 2.152,-2.155 h 9.957 c 1.518,0 2.309,0.924 2.508,1.186 0.145,0.189 0.248,0.406 0.35,0.625 1.242,-1.486 2.832,-1.811 5.181,-1.811 h 5.506 1.309 18.326 z"
           inkscape:connector-curvature="0" />
      </g>
      <g
         style="fill:#ffffff;stroke:#ffffff;stroke-width:0.13795646;stroke-miterlimit:4;stroke-dasharray:none;stroke-opacity:0.48163267"
         transform="matrix(0.61933443,0,0,-0.61933443,-30.044995,100.79127)"
         id="g142">
        <path
           id="path144"
           style="fill:#ffffff;fill-opacity:1;fill-rule:nonzero;stroke:#ffffff;stroke-width:0.13795646;stroke-miterlimit:4;stroke-dasharray:none;stroke-opacity:0.48163267"
           d="m 0,0 c -0.031,-0.032 -0.068,-0.059 -0.102,-0.089 l -3.193,-3.035 0.617,-2.471 0.291,0.282 0.028,-0.026 c 0.048,0.02 0.111,0.014 0.16,-0.035 l 0.428,-0.437 c 0.044,-0.048 0.048,-0.111 0.027,-0.161 l 0.027,-0.027 -0.689,-0.676 1.181,-4.735 -0.785,-0.575 -1.162,2.353 c -0.187,-0.156 -0.33,-0.244 -0.361,-0.214 -0.03,0.033 0.082,0.196 0.265,0.404 l -0.691,1.401 C -4.078,-8.13 -4.16,-8.173 -4.184,-8.15 c -0.025,0.024 0.036,0.126 0.147,0.264 l -1.279,2.587 -2.491,-2.113 -0.511,-0.49 0.187,-2.651 -0.287,-0.236 -0.715,2.053 0.672,0.698 -0.023,-0.018 c -0.272,-0.267 -1.506,-1.277 -1.772,-1.004 -0.265,0.272 0.752,1.494 1.027,1.762 l -0.691,-0.634 -2.035,0.761 0.242,0.287 2.643,-0.253 0.509,0.51 2.166,2.432 -2.55,1.339 c -0.145,-0.108 -0.25,-0.166 -0.272,-0.14 -0.019,0.021 0.022,0.106 0.112,0.221 l -1.383,0.725 c -0.211,-0.181 -0.377,-0.29 -0.41,-0.255 -0.03,0.03 0.062,0.171 0.222,0.355 l -2.322,1.217 0.594,0.771 4.703,-1.293 0.674,0.656 0.029,-0.025 c 0.049,0.023 0.111,0.016 0.156,-0.033 l 0.432,-0.437 c 0.045,-0.051 0.049,-0.112 0.027,-0.162 l 0.026,-0.03 -0.272,-0.264 2.457,-0.676 3.108,3.12 c 0,0 0.003,0.002 0.005,0.002 0.028,0.033 0.055,0.066 0.09,0.099 0.475,0.463 1.526,1.054 1.793,0.78 C 1.092,1.501 0.479,0.465 0,0 m -5,7.755 c -6.211,0 -11.393,-4.693 -12.061,-10.729 h -0.007 v -13.407 h 13.41 v 0.006 C 2.377,-15.709 7.07,-10.527 7.07,-4.313 7.07,2.353 1.668,7.755 -5,7.755"
           inkscape:connector-curvature="0" />
      </g>
      <g
         style="fill:#ffffff;stroke:#ffffff;stroke-width:0.13795646;stroke-miterlimit:4;stroke-dasharray:none;stroke-opacity:0.48163267"
         transform="matrix(0.61933443,0,0,-0.61933443,-50.127408,117.32372)"
         id="g146">
        <path
           id="path148"
           style="fill:#ffffff;fill-opacity:1;fill-rule:nonzero;stroke:#ffffff;stroke-width:0.13795646;stroke-miterlimit:4;stroke-dasharray:none;stroke-opacity:0.48163267"
           d="m 0,0 c 0,0 -0.771,-0.027 -2.535,-0.322 l -1.61,-0.289 c 0,0 -0.158,0.006 -0.25,-0.112 -0.044,-0.056 -0.144,0.008 -0.162,-0.143 -0.027,-0.292 -0.297,-1.288 -0.297,-1.288 l 3.969,0.477 0.668,1.26 z"
           inkscape:connector-curvature="0" />
      </g>
      <g
         style="fill:#ffffff;stroke:#ffffff;stroke-width:0.13795646;stroke-miterlimit:4;stroke-dasharray:none;stroke-opacity:0.48163267"
         transform="matrix(0.61933443,0,0,-0.61933443,-52.077322,119.9819)"
         id="g150">
        <path
           id="path152"
           style="fill:#ffffff;fill-opacity:1;fill-rule:nonzero;stroke:#ffffff;stroke-width:0.13795646;stroke-miterlimit:4;stroke-dasharray:none;stroke-opacity:0.48163267"
           d="M 0,0 C 0.01,-0.211 -0.092,-0.565 -0.037,-0.734 0.6,-0.74 1.131,-0.665 1.766,-0.673 1.768,-0.438 1.973,-0.134 1.881,0.037 1.27,0.101 0.582,0.035 0,0"
           inkscape:connector-curvature="0" />
      </g>
      <g
         style="fill:#ffffff;stroke:#ffffff;stroke-width:0.13795646;stroke-miterlimit:4;stroke-dasharray:none;stroke-opacity:0.48163267"
         transform="matrix(0.61933443,0,0,-0.61933443,-49.636276,117.24358)"
         id="g154">
        <path
           id="path156"
           style="fill:#ffffff;fill-opacity:1;fill-rule:nonzero;stroke:#ffffff;stroke-width:0.13795646;stroke-miterlimit:4;stroke-dasharray:none;stroke-opacity:0.48163267"
           d="M 0,0 C -0.012,-0.443 0.984,-0.988 1.014,-1.357 1.098,-2.353 1.068,-3.136 1.252,-4.043 1.316,-4.077 1.438,-3.598 1.338,-0.607 1.162,-0.516 0.193,-0.079 0,0"
           inkscape:connector-curvature="0" />
      </g>
      <g
         style="fill:#ffffff;stroke:#ffffff;stroke-width:0.13795646;stroke-miterlimit:4;stroke-dasharray:none;stroke-opacity:0.48163267"
         transform="matrix(0.61933443,0,0,-0.61933443,-44.79531,121.93726)"
         id="g158">
        <path
           id="path160"
           style="fill:#ffffff;fill-opacity:1;fill-rule:nonzero;stroke:#ffffff;stroke-width:0.13795646;stroke-miterlimit:4;stroke-dasharray:none;stroke-opacity:0.48163267"
           d="M 0,0 C -0.539,-0.048 -1.098,-0.103 -1.695,-0.157 -1.832,-0.17 -2.299,-0.166 -2.4,-0.16 c -0.278,0.018 -0.418,0.51 -0.418,0.51 0,0 -0.202,-0.553 -0.594,-0.606 -0.127,-0.019 -0.307,0.009 -0.379,0.145 -0.037,0.069 -0.098,0.066 -0.084,0.133 -0.074,-0.139 -0.123,-0.286 -0.35,-0.313 -0.402,-0.018 -1.33,-0.06 -1.33,-0.06 -0.232,0.069 -0.252,0.423 -0.433,0.525 -0.576,-0.041 -1.082,-0.155 -1.664,-0.19 -0.198,-0.205 -0.33,-0.597 -0.715,-0.668 -0.164,-0.032 -0.805,0.031 -1.065,0.04 -0.826,0.03 -0.886,0.571 -1.029,0.852 -0.967,0.011 -1.566,0.011 -2.529,0.021 -0.188,-0.213 -0.207,-0.655 -0.582,-0.722 -0.123,-0.024 -0.783,-0.003 -1.014,0.063 -0.271,0.081 -0.369,0.458 -0.512,0.631 -0.338,0.086 -0.634,0.004 -0.884,0.114 -0.411,0.183 -0.448,0.832 -0.295,1.306 -0.014,0.099 -0.096,0.128 -0.112,0.221 l -0.025,0.019 c -0.008,0.237 0.01,0.784 0.027,0.981 0.02,0.189 0.463,0.244 0.647,0.387 0.072,0.478 0.152,0.665 0.275,1.095 0.301,0.436 1.051,0.697 1.623,0.861 0.356,0.801 0.225,2.104 1.299,2.171 0.045,0.264 0.135,0.476 0.242,0.674 0.549,0.407 1.639,0.536 2.483,0.727 0.316,0.072 0.65,0.156 0.968,0.222 0.342,0.075 0.723,0.196 0.989,0.196 0.162,0 0.468,0.032 0.689,0 0.809,-0.113 1.463,-0.838 1.459,-0.74 0.111,0.029 0.102,0.366 0.221,0.255 1.859,-1.745 3.513,-3.202 5.34,-4.881 C -0.125,2.954 -0.078,1.535 -0.051,0.81 0.154,0.824 0.084,0.796 0.098,0.693 0.01,0.683 -0.406,0.753 -0.41,0.696 -0.518,0.649 -0.514,0.467 -0.504,0.298 -0.352,0.29 -0.361,0.302 -0.18,0.29 -0.133,0.409 -0.156,0.595 -0.021,0.625 0.188,0.55 0.111,0.118 0,0 M -9.547,15.013 V 15.006 C -15.58,14.34 -20.275,9.155 -20.275,2.944 c 0,-6.673 5.4,-12.08 12.068,-12.08 6.211,0 11.396,4.698 12.064,10.737 h 0.006 v 13.412 z"
           inkscape:connector-curvature="0" />
      </g>
      <g
         style="fill:#ffffff;stroke:#ffffff;stroke-width:0.13795646;stroke-miterlimit:4;stroke-dasharray:none;stroke-opacity:0.48163267"
         transform="matrix(0.61933443,0,0,-0.61933443,-49.914481,117.05759)"
         id="g162">
        <path
           id="path164"
           style="fill:#ffffff;fill-opacity:1;fill-rule:nonzero;stroke:#ffffff;stroke-width:0.13795646;stroke-miterlimit:4;stroke-dasharray:none;stroke-opacity:0.48163267"
           d="M 0,0 C 0.279,0.406 0.383,0.482 0.664,0.889 -0.119,0.744 -0.6,0.381 -1.094,-0.06 -0.736,0.049 -0.25,0.089 0,0"
           inkscape:connector-curvature="0" />
      </g>
      <g
         style="fill:#ffffff;stroke:#ffffff;stroke-width:0.13795646;stroke-miterlimit:4;stroke-dasharray:none;stroke-opacity:0.48163267"
         transform="matrix(0.61933443,0,0,-0.61933443,-50.122577,118.85515)"
         id="g166">
        <path
           id="path168"
           style="fill:#ffffff;fill-opacity:1;fill-rule:nonzero;stroke:#ffffff;stroke-width:0.13795646;stroke-miterlimit:4;stroke-dasharray:none;stroke-opacity:0.48163267"
           d="M 0,0 C 0.275,-0.33 0.828,-0.153 0.918,0.523 0.93,0.631 0.986,1.328 0.84,1.392 0.721,1.365 0.809,0.833 0.773,0.591 0.691,-0.066 0.094,0.436 0,0"
           inkscape:connector-curvature="0" />
      </g>
      <g
         style="fill:#ffffff;stroke:#ffffff;stroke-width:0.13795646;stroke-miterlimit:4;stroke-dasharray:none;stroke-opacity:0.48163267"
         transform="matrix(0.61933443,0,0,-0.61933443,-54.333309,120.69073)"
         id="g170">
        <path
           id="path172"
           style="fill:#ffffff;fill-opacity:1;fill-rule:nonzero;stroke:#ffffff;stroke-width:0.13795646;stroke-miterlimit:4;stroke-dasharray:none;stroke-opacity:0.48163267"
           d="M 0,0 2.963,0.202 3.361,2.568 0.299,2.161 Z"
           inkscape:connector-curvature="0" />
      </g>
      <g
         style="fill:#ffffff;stroke:#ffffff;stroke-width:0.13795646;stroke-miterlimit:4;stroke-dasharray:none;stroke-opacity:0.48163267"
         transform="matrix(0.61933443,0,0,-0.61933443,-50.000382,121.754)"
         id="g174">
        <path
           id="path176"
           style="fill:#ffffff;fill-opacity:1;fill-rule:nonzero;stroke:#ffffff;stroke-width:0.13795646;stroke-miterlimit:4;stroke-dasharray:none;stroke-opacity:0.48163267"
           d="m 0,0 c -0.176,0.002 -0.314,0.271 -0.313,0.601 0.006,0.328 0.153,0.592 0.327,0.59 0.172,0 0.312,-0.271 0.308,-0.597 C 0.316,0.264 0.174,-0.002 0,0 M 0.006,2.477 C -0.52,2.558 -0.863,2.028 -0.941,1.619 -1.09,0.857 -1.117,0.259 -0.809,-0.353 -0.516,-0.938 0.129,-0.995 0.465,-0.471 0.684,-0.122 0.785,0.337 0.791,0.802 0.799,1.451 0.586,2.385 0.006,2.477"
           inkscape:connector-curvature="0" />
      </g>
      <g
         style="fill:#ffffff;stroke:#ffffff;stroke-width:0.13795646;stroke-miterlimit:4;stroke-dasharray:none;stroke-opacity:0.48163267"
         transform="matrix(0.61933443,0,0,-0.61933443,-46.979952,120.75879)"
         id="g178">
        <path
           id="path180"
           style="fill:#ffffff;fill-opacity:1;fill-rule:nonzero;stroke:#ffffff;stroke-width:0.13795646;stroke-miterlimit:4;stroke-dasharray:none;stroke-opacity:0.48163267"
           d="m 0,0 c -0.494,0.047 -1.248,0.165 -1.781,0.165 -0.217,-0.133 0.65,-0.089 0.877,-0.169 -0.114,-0.223 -0.237,-0.585 -0.272,-0.908 -0.006,-0.064 -0.095,-0.282 0.049,-0.286 0.008,0.39 0.09,1.191 0.535,1.165 0.358,-0.021 0.352,-0.634 0.389,-1.116 0,-0.153 0,-0.194 0.09,-0.166 0.002,0.374 0.101,0.989 0.457,0.96 C 0.701,-0.388 0.586,-0.958 0.693,-1.297 0.707,-0.589 0.73,-0.069 0,0"
           inkscape:connector-curvature="0" />
      </g>
      <g
         style="fill:#ffffff;stroke:#ffffff;stroke-width:0.13795646;stroke-miterlimit:4;stroke-dasharray:none;stroke-opacity:0.48163267"
         transform="matrix(0.61933443,0,0,-0.61933443,-49.06655,116.59978)"
         id="g182">
        <path
           id="path184"
           style="fill:#ffffff;fill-opacity:1;fill-rule:nonzero;stroke:#ffffff;stroke-width:0.13795646;stroke-miterlimit:4;stroke-dasharray:none;stroke-opacity:0.48163267"
           d="M 0,0 C 0.6,-0.271 0.738,-0.799 0.738,-1.646 0.738,-3.052 0.76,-5.519 0.781,-6.16 1.143,-6.201 1.184,-6.212 1.188,-6.214 1.164,-1.295 1.496,-0.669 0,0"
           inkscape:connector-curvature="0" />
      </g>
      <g
         style="fill:#ffffff;stroke:#ffffff;stroke-width:0.13795646;stroke-miterlimit:4;stroke-dasharray:none;stroke-opacity:0.48163267"
         transform="matrix(0.61933443,0,0,-0.61933443,-44.823119,121.59855)"
         id="g186">
        <path
           id="path188"
           style="fill:#ffffff;fill-opacity:1;fill-rule:nonzero;stroke:#ffffff;stroke-width:0.13795646;stroke-miterlimit:4;stroke-dasharray:none;stroke-opacity:0.48163267"
           d="M 0,0 C -0.07,-0.071 -0.088,-0.379 0.018,-0.417 0.166,-0.386 0.143,-0.102 0.076,0 0.051,0 0.016,0.017 0,0"
           inkscape:connector-curvature="0" />
      </g>
      <g
         style="fill:#ffffff;stroke:#ffffff;stroke-width:0.13795646;stroke-miterlimit:4;stroke-dasharray:none;stroke-opacity:0.48163267"
         transform="matrix(0.61933443,0,0,-0.61933443,-54.835279,120.2837)"
         id="g190">
        <path
           id="path192"
           style="fill:#ffffff;fill-opacity:1;fill-rule:nonzero;stroke:#ffffff;stroke-width:0.13795646;stroke-miterlimit:4;stroke-dasharray:none;stroke-opacity:0.48163267"
           d="m 0,0 c -0.008,-0.031 -0.018,-0.061 -0.02,-0.095 -0.009,-0.195 -0.017,-0.392 -0.013,-0.589 0.193,0.03 0.433,0.066 0.498,0.131 0.066,0.199 0.056,0.449 0.066,0.67 C 0.395,0.159 0.152,0.028 0,0"
           inkscape:connector-curvature="0" />
      </g>
      <g
         style="fill:#ffffff;stroke:#ffffff;stroke-width:0.13795646;stroke-miterlimit:4;stroke-dasharray:none;stroke-opacity:0.48163267"
         transform="matrix(0.61933443,0,0,-0.61933443,-46.232352,121.35602)"
         id="g194">
        <path
           id="path196"
           style="fill:#ffffff;fill-opacity:1;fill-rule:nonzero;stroke:#ffffff;stroke-width:0.13795646;stroke-miterlimit:4;stroke-dasharray:none;stroke-opacity:0.48163267"
           d="m 0,0 c -0.096,-0.118 -0.096,-0.408 -0.096,-0.629 0.323,-0.017 0.205,-0.002 0.545,-0.002 -0.008,0.262 0.033,0.477 0.24,0.518 0.223,-0.038 0.063,-0.454 0.229,-0.549 0.002,0.234 0.055,0.463 0.211,0.438 0.195,-0.027 0.059,-0.282 0.18,-0.443 -0.004,0.198 0.033,0.351 0.187,0.389 0.131,-0.041 0.082,-0.26 0.15,-0.368 0.02,0.183 -0.019,0.402 -0.093,0.492 C 0.969,-0.069 0.123,0.14 0,0"
           inkscape:connector-curvature="0" />
      </g>
      <g
         style="fill:#ffffff;stroke:#ffffff;stroke-width:0.13795646;stroke-miterlimit:4;stroke-dasharray:none;stroke-opacity:0.48163267"
         transform="matrix(0.61933443,0,0,-0.61933443,-46.83961,121.29675)"
         id="g198">
        <path
           id="path200"
           style="fill:#ffffff;fill-opacity:1;fill-rule:nonzero;stroke:#ffffff;stroke-width:0.13795646;stroke-miterlimit:4;stroke-dasharray:none;stroke-opacity:0.48163267"
           d="m 0,0 c -0.07,0 -0.129,-0.13 -0.129,-0.293 0,-0.161 0.059,-0.292 0.129,-0.292 0.072,0 0.129,0.131 0.129,0.292 C 0.129,-0.13 0.072,0 0,0"
           inkscape:connector-curvature="0" />
      </g>
      <g
         style="fill:#ffffff;stroke:#ffffff;stroke-width:0.13795646;stroke-miterlimit:4;stroke-dasharray:none;stroke-opacity:0.48163267"
         transform="matrix(0.61933443,0,0,-0.61933443,-47.36338,121.23506)"
         id="g202">
        <path
           id="path204"
           style="fill:#ffffff;fill-opacity:1;fill-rule:nonzero;stroke:#ffffff;stroke-width:0.13795646;stroke-miterlimit:4;stroke-dasharray:none;stroke-opacity:0.48163267"
           d="m 0,0 c -0.084,0 -0.154,-0.16 -0.154,-0.355 0,-0.195 0.07,-0.353 0.154,-0.353 0.084,0 0.154,0.158 0.154,0.353 C 0.154,-0.16 0.084,0 0,0"
           inkscape:connector-curvature="0" />
      </g>
      <g
         style="fill:#ffffff;stroke:#ffffff;stroke-width:0.13795646;stroke-miterlimit:4;stroke-dasharray:none;stroke-opacity:0.48163267"
         transform="matrix(0.61933443,0,0,-0.61933443,-44.39615,105.48409)"
         id="g206">
        <path
           id="path208"
           style="fill:#ffffff;fill-opacity:1;fill-rule:nonzero;stroke:#ffffff;stroke-width:0.13795646;stroke-miterlimit:4;stroke-dasharray:none;stroke-opacity:0.48163267"
           d="m 0,0 c -1.91,1.715 -3.863,3.146 -6.092,4.777 -3.701,2.705 -4.463,2.8 -6.679,2.222 L -13.27,5.858 c 0.122,0.027 0.245,0.052 0.375,0.08 0.928,0.193 1.586,0.241 1.586,0.241 1.09,0.048 2.137,-0.529 6.018,-3.211 1.408,-0.974 2.662,-1.675 3.93,-2.658 0.416,-0.325 0.867,-0.661 1.238,-0.93 -0.014,-0.16 -0.002,-0.683 -0.014,-0.841 -0.377,0.004 -0.654,-0.003 -0.834,0 -0.05,-0.012 -0.199,-0.003 -0.373,0.004 -0.177,0.006 -0.281,-0.133 -0.271,-0.016 l 0.01,0.156 c -0.004,-0.117 -0.155,-0.204 -0.333,-0.197 -0.167,0.009 -0.4,0.103 -0.402,0.215 -1.558,0.049 -3.082,0.051 -4.683,0.132 -0.065,-0.126 -0.311,-0.303 -0.579,-0.29 -0.275,0.011 -0.453,0.278 -0.496,0.412 -0.117,0.006 -0.234,0.01 -0.353,0.017 -0.08,-0.158 -0.387,-0.447 -0.772,-0.429 -0.388,0.018 -0.699,0.731 -0.75,0.9 -0.263,0.015 -0.507,-0.001 -0.775,0.061 l -0.143,-0.869 -4.507,-0.108 -0.645,0.702 0.32,0.585 c -0.205,0.696 -0.048,2.18 0.125,2.956 0.108,0.472 0.52,2.187 0.52,2.188 0.025,0.393 0.558,0.606 1.363,0.799 l 0.49,1.121 c -0.388,-0.106 -0.816,-0.224 -1.31,-0.349 0.25,0.304 1.119,0.894 1.467,1.107 -0.051,0.12 -0.075,0.264 -0.043,0.422 0.074,0.378 0.392,0.668 0.716,0.646 0.317,-0.023 0.51,-0.349 0.436,-0.727 -0.076,-0.38 -0.398,-0.67 -0.715,-0.647 -0.101,0.007 -0.183,0.053 -0.256,0.111 0.061,-0.093 0.143,-0.167 0.256,-0.18 0.309,-0.036 0.58,-0.028 0.836,0.385 0.256,0.412 0.111,0.941 -0.277,1.112 -0.158,0.07 -0.342,0.076 -0.516,0.033 0.338,0.157 0.828,0.05 1.151,-0.268 0.15,-0.145 0.238,-0.317 0.269,-0.482 1.606,0.143 2.551,-0.36 3.449,-0.997 2.76,-1.956 5.51,-4.095 7.825,-6.386 C 0.031,0.456 0.01,0.237 0,0 m 3.215,4.603 c -0.67,6.036 -5.854,10.73 -12.065,10.73 -6.666,0 -12.07,-5.403 -12.07,-12.069 0,-6.214 4.695,-11.396 10.731,-12.062 V -8.804 H 3.219 V 4.603 Z"
           inkscape:connector-curvature="0" />
      </g>
      <path
         id="path210"
         style="fill:#ffffff;fill-opacity:1;fill-rule:nonzero;stroke:#ffffff;stroke-width:0.05291667;stroke-miterlimit:4;stroke-dasharray:none;stroke-opacity:0.48163267"
         d="m -53.481786,105.20532 h 0.759925 v -0.63358 h -0.759925 z"
         inkscape:connector-curvature="0" />
    </g>
    <text
       xml:space="preserve"
       style="font-style:normal;font-variant:normal;font-weight:normal;font-stretch:normal;font-size:4.28248835px;line-height:1.25;font-family:Lato;-inkscape-font-specification:Lato;font-variant-ligatures:normal;font-variant-caps:normal;font-variant-numeric:normal;text-align:start;letter-spacing:0px;word-spacing:0px;writing-mode:lr-tb;text-anchor:start;fill:#ffffff;fill-opacity:1;stroke:none;stroke-width:0.14599392;"
       x="-30.90477"
       y="134.34491"
       id="text852"><tspan
         sodipodi:role="line"
         id="tspan850"
         x="-30.90477"
         y="134.34491"
         style="font-style:normal;font-variant:normal;font-weight:300;font-stretch:normal;font-family:Lato;-inkscape-font-specification:'Lato Light';text-align:center;text-anchor:middle;stroke-width:0.14599392;fill:#ffffff;">Доставка сборных грузов</tspan><tspan
         sodipodi:role="line"
         x="-30.904772"
         y="139.69801"
         style="font-style:normal;font-variant:normal;font-weight:300;font-stretch:normal;font-family:Lato;-inkscape-font-specification:'Lato Light';text-align:center;text-anchor:middle;stroke-width:0.14599392;fill:#ffffff;"
         id="tspan854">по России и СНГ</tspan></text>
  </g>
</svg>
