<?xml version="1.0" encoding="UTF-8" standalone="no"?>
<!-- Created with Inkscape (http://www.inkscape.org/) -->

<svg
   xmlns:dc="http://purl.org/dc/elements/1.1/"
   xmlns:cc="http://creativecommons.org/ns#"
   xmlns:rdf="http://www.w3.org/1999/02/22-rdf-syntax-ns#"
   xmlns:svg="http://www.w3.org/2000/svg"
   xmlns="http://www.w3.org/2000/svg"
   xmlns:sodipodi="http://sodipodi.sourceforge.net/DTD/sodipodi-0.dtd"
   xmlns:inkscape="http://www.inkscape.org/namespaces/inkscape"
   width="250"
   height="250"
   viewBox="0 0 66.145833 66.145832"
   version="1.1"
   id="svg1599"
   inkscape:version="0.92.3 (2405546, 2018-03-11)"
   sodipodi:docname="logo-white.svg">
  <defs
     id="defs1593" />
  <sodipodi:namedview
     id="base"
     pagecolor="#ffffff"
     bordercolor="#666666"
     borderopacity="1.0"
     inkscape:pageopacity="0"
     inkscape:pageshadow="2"
     inkscape:zoom="2.8"
     inkscape:cx="-4.789277"
     inkscape:cy="86.30439"
     inkscape:document-units="mm"
     inkscape:current-layer="layer1"
     showgrid="false"
     fit-margin-top="0"
     fit-margin-left="0"
     fit-margin-right="0"
     fit-margin-bottom="0"
     inkscape:window-width="2560"
     inkscape:window-height="1315"
     inkscape:window-x="-13"
     inkscape:window-y="-13"
     inkscape:window-maximized="1"
     units="px" />
  <metadata
     id="metadata1596">
    <rdf:RDF>
      <cc:Work
         rdf:about="">
        <dc:format>image/svg+xml</dc:format>
        <dc:type
           rdf:resource="http://purl.org/dc/dcmitype/StillImage" />
        <dc:title></dc:title>
      </cc:Work>
    </rdf:RDF>
  </metadata>
  <g
     inkscape:label="Layer 1"
     inkscape:groupmode="layer"
     id="layer1"
     transform="translate(59.272073,-73.623288)">
    <rect
       style="opacity:1;fill:#e80d38;fill-opacity:1;stroke:none;stroke-width:1.58556902;stroke-miterlimit:4;stroke-dasharray:none;stroke-dashoffset:0;stroke-opacity:1"
       id="rect958"
       width="66.145836"
       height="66.145836"
       x="-59.272076"
       y="73.623283" />
    <g
       id="g956"
       transform="translate(4.7056144,-10.44249)"
       style="fill:#ffffff">
      <g
         style="fill:#ffffff"
         transform="matrix(1.0916017,0,0,1.0916017,7.0597736,-10.225581)"
         id="g886">
        <g
           id="g138"
           transform="matrix(0.61933443,0,0,-0.61933443,-20.636438,119.73906)"
           style="fill:#ffffff;stroke:#ffffff;stroke-width:0.13795646;stroke-miterlimit:4;stroke-dasharray:none;stroke-opacity:0.48163267">
          <path
             inkscape:connector-curvature="0"
             d="m 0,0 2.463,6.682 c 0.043,0.132 0.107,0.395 0.24,0.395 0.131,0 0.195,-0.263 0.242,-0.395 L 5.406,0 Z M -22.076,0.286 C -22.383,0 -22.932,0 -23.217,0 h -2.926 c -0.703,0 -1.056,-0.066 -1.056,1.011 v 1.362 h 3.982 c 0.285,0 0.768,0 1.098,-0.265 0.33,-0.24 0.33,-0.524 0.33,-0.877 0,-0.264 0,-0.683 -0.287,-0.945 M 11.912,0 H 10.375 L 6.242,10 C 5.934,10.77 5.295,11.737 2.703,11.737 0.109,11.737 -0.529,10.77 -0.838,10 L -4.99,0 h -0.209 -1.309 -2.959 c -1.648,0 -3.072,0 -3.734,1.21 -0.129,0.265 -0.375,0.833 -0.375,2.548 0,0.747 0.066,2 0.508,2.771 0.677,1.23 1.89,1.208 3.517,1.208 h 5.322 l 1.731,3.826 h -9.451 c -1.737,0 -3.977,-0.199 -5.383,-2.003 -0.834,-1.049 -1.174,-2.416 -1.291,-4.133 -0.414,0.171 -0.904,0.287 -1.473,0.287 h -7.103 v 1.1 c 0,0.573 0.025,0.923 0.947,0.923 h 5.541 l 1.734,3.826 h -10.791 c -0.55,0 -2.394,-0.133 -2.394,-2.463 V -1.67 c 0,-1.254 0.877,-2.155 2.152,-2.155 h 9.957 c 1.518,0 2.309,0.924 2.508,1.186 0.145,0.189 0.248,0.406 0.35,0.625 1.242,-1.486 2.832,-1.811 5.181,-1.811 h 5.506 1.309 18.326 z"
             style="fill:#ffffff;fill-opacity:1;fill-rule:nonzero;stroke:#ffffff;stroke-width:0.13795646;stroke-miterlimit:4;stroke-dasharray:none;stroke-opacity:0.48163267"
             id="path140" />
        </g>
        <g
           id="g142"
           transform="matrix(0.61933443,0,0,-0.61933443,-30.044995,100.79127)"
           style="fill:#ffffff;stroke:#ffffff;stroke-width:0.13795646;stroke-miterlimit:4;stroke-dasharray:none;stroke-opacity:0.48163267">
          <path
             inkscape:connector-curvature="0"
             d="m 0,0 c -0.031,-0.032 -0.068,-0.059 -0.102,-0.089 l -3.193,-3.035 0.617,-2.471 0.291,0.282 0.028,-0.026 c 0.048,0.02 0.111,0.014 0.16,-0.035 l 0.428,-0.437 c 0.044,-0.048 0.048,-0.111 0.027,-0.161 l 0.027,-0.027 -0.689,-0.676 1.181,-4.735 -0.785,-0.575 -1.162,2.353 c -0.187,-0.156 -0.33,-0.244 -0.361,-0.214 -0.03,0.033 0.082,0.196 0.265,0.404 l -0.691,1.401 C -4.078,-8.13 -4.16,-8.173 -4.184,-8.15 c -0.025,0.024 0.036,0.126 0.147,0.264 l -1.279,2.587 -2.491,-2.113 -0.511,-0.49 0.187,-2.651 -0.287,-0.236 -0.715,2.053 0.672,0.698 -0.023,-0.018 c -0.272,-0.267 -1.506,-1.277 -1.772,-1.004 -0.265,0.272 0.752,1.494 1.027,1.762 l -0.691,-0.634 -2.035,0.761 0.242,0.287 2.643,-0.253 0.509,0.51 2.166,2.432 -2.55,1.339 c -0.145,-0.108 -0.25,-0.166 -0.272,-0.14 -0.019,0.021 0.022,0.106 0.112,0.221 l -1.383,0.725 c -0.211,-0.181 -0.377,-0.29 -0.41,-0.255 -0.03,0.03 0.062,0.171 0.222,0.355 l -2.322,1.217 0.594,0.771 4.703,-1.293 0.674,0.656 0.029,-0.025 c 0.049,0.023 0.111,0.016 0.156,-0.033 l 0.432,-0.437 c 0.045,-0.051 0.049,-0.112 0.027,-0.162 l 0.026,-0.03 -0.272,-0.264 2.457,-0.676 3.108,3.12 c 0,0 0.003,0.002 0.005,0.002 0.028,0.033 0.055,0.066 0.09,0.099 0.475,0.463 1.526,1.054 1.793,0.78 C 1.092,1.501 0.479,0.465 0,0 m -5,7.755 c -6.211,0 -11.393,-4.693 -12.061,-10.729 h -0.007 v -13.407 h 13.41 v 0.006 C 2.377,-15.709 7.07,-10.527 7.07,-4.313 7.07,2.353 1.668,7.755 -5,7.755"
             style="fill:#ffffff;fill-opacity:1;fill-rule:nonzero;stroke:#ffffff;stroke-width:0.13795646;stroke-miterlimit:4;stroke-dasharray:none;stroke-opacity:0.48163267"
             id="path144" />
        </g>
        <g
           id="g146"
           transform="matrix(0.61933443,0,0,-0.61933443,-50.127408,117.32372)"
           style="fill:#ffffff;stroke:#ffffff;stroke-width:0.13795646;stroke-miterlimit:4;stroke-dasharray:none;stroke-opacity:0.48163267">
          <path
             inkscape:connector-curvature="0"
             d="m 0,0 c 0,0 -0.771,-0.027 -2.535,-0.322 l -1.61,-0.289 c 0,0 -0.158,0.006 -0.25,-0.112 -0.044,-0.056 -0.144,0.008 -0.162,-0.143 -0.027,-0.292 -0.297,-1.288 -0.297,-1.288 l 3.969,0.477 0.668,1.26 z"
             style="fill:#ffffff;fill-opacity:1;fill-rule:nonzero;stroke:#ffffff;stroke-width:0.13795646;stroke-miterlimit:4;stroke-dasharray:none;stroke-opacity:0.48163267"
             id="path148" />
        </g>
        <g
           id="g150"
           transform="matrix(0.61933443,0,0,-0.61933443,-52.077322,119.9819)"
           style="fill:#ffffff;stroke:#ffffff;stroke-width:0.13795646;stroke-miterlimit:4;stroke-dasharray:none;stroke-opacity:0.48163267">
          <path
             inkscape:connector-curvature="0"
             d="M 0,0 C 0.01,-0.211 -0.092,-0.565 -0.037,-0.734 0.6,-0.74 1.131,-0.665 1.766,-0.673 1.768,-0.438 1.973,-0.134 1.881,0.037 1.27,0.101 0.582,0.035 0,0"
             style="fill:#ffffff;fill-opacity:1;fill-rule:nonzero;stroke:#ffffff;stroke-width:0.13795646;stroke-miterlimit:4;stroke-dasharray:none;stroke-opacity:0.48163267"
             id="path152" />
        </g>
        <g
           id="g154"
           transform="matrix(0.61933443,0,0,-0.61933443,-49.636276,117.24358)"
           style="fill:#ffffff;stroke:#ffffff;stroke-width:0.13795646;stroke-miterlimit:4;stroke-dasharray:none;stroke-opacity:0.48163267">
          <path
             inkscape:connector-curvature="0"
             d="M 0,0 C -0.012,-0.443 0.984,-0.988 1.014,-1.357 1.098,-2.353 1.068,-3.136 1.252,-4.043 1.316,-4.077 1.438,-3.598 1.338,-0.607 1.162,-0.516 0.193,-0.079 0,0"
             style="fill:#ffffff;fill-opacity:1;fill-rule:nonzero;stroke:#ffffff;stroke-width:0.13795646;stroke-miterlimit:4;stroke-dasharray:none;stroke-opacity:0.48163267"
             id="path156" />
        </g>
        <g
           id="g158"
           transform="matrix(0.61933443,0,0,-0.61933443,-44.79531,121.93726)"
           style="fill:#ffffff;stroke:#ffffff;stroke-width:0.13795646;stroke-miterlimit:4;stroke-dasharray:none;stroke-opacity:0.48163267">
          <path
             inkscape:connector-curvature="0"
             d="M 0,0 C -0.539,-0.048 -1.098,-0.103 -1.695,-0.157 -1.832,-0.17 -2.299,-0.166 -2.4,-0.16 c -0.278,0.018 -0.418,0.51 -0.418,0.51 0,0 -0.202,-0.553 -0.594,-0.606 -0.127,-0.019 -0.307,0.009 -0.379,0.145 -0.037,0.069 -0.098,0.066 -0.084,0.133 -0.074,-0.139 -0.123,-0.286 -0.35,-0.313 -0.402,-0.018 -1.33,-0.06 -1.33,-0.06 -0.232,0.069 -0.252,0.423 -0.433,0.525 -0.576,-0.041 -1.082,-0.155 -1.664,-0.19 -0.198,-0.205 -0.33,-0.597 -0.715,-0.668 -0.164,-0.032 -0.805,0.031 -1.065,0.04 -0.826,0.03 -0.886,0.571 -1.029,0.852 -0.967,0.011 -1.566,0.011 -2.529,0.021 -0.188,-0.213 -0.207,-0.655 -0.582,-0.722 -0.123,-0.024 -0.783,-0.003 -1.014,0.063 -0.271,0.081 -0.369,0.458 -0.512,0.631 -0.338,0.086 -0.634,0.004 -0.884,0.114 -0.411,0.183 -0.448,0.832 -0.295,1.306 -0.014,0.099 -0.096,0.128 -0.112,0.221 l -0.025,0.019 c -0.008,0.237 0.01,0.784 0.027,0.981 0.02,0.189 0.463,0.244 0.647,0.387 0.072,0.478 0.152,0.665 0.275,1.095 0.301,0.436 1.051,0.697 1.623,0.861 0.356,0.801 0.225,2.104 1.299,2.171 0.045,0.264 0.135,0.476 0.242,0.674 0.549,0.407 1.639,0.536 2.483,0.727 0.316,0.072 0.65,0.156 0.968,0.222 0.342,0.075 0.723,0.196 0.989,0.196 0.162,0 0.468,0.032 0.689,0 0.809,-0.113 1.463,-0.838 1.459,-0.74 0.111,0.029 0.102,0.366 0.221,0.255 1.859,-1.745 3.513,-3.202 5.34,-4.881 C -0.125,2.954 -0.078,1.535 -0.051,0.81 0.154,0.824 0.084,0.796 0.098,0.693 0.01,0.683 -0.406,0.753 -0.41,0.696 -0.518,0.649 -0.514,0.467 -0.504,0.298 -0.352,0.29 -0.361,0.302 -0.18,0.29 -0.133,0.409 -0.156,0.595 -0.021,0.625 0.188,0.55 0.111,0.118 0,0 M -9.547,15.013 V 15.006 C -15.58,14.34 -20.275,9.155 -20.275,2.944 c 0,-6.673 5.4,-12.08 12.068,-12.08 6.211,0 11.396,4.698 12.064,10.737 h 0.006 v 13.412 z"
             style="fill:#ffffff;fill-opacity:1;fill-rule:nonzero;stroke:#ffffff;stroke-width:0.13795646;stroke-miterlimit:4;stroke-dasharray:none;stroke-opacity:0.48163267"
             id="path160" />
        </g>
        <g
           id="g162"
           transform="matrix(0.61933443,0,0,-0.61933443,-49.914481,117.05759)"
           style="fill:#ffffff;stroke:#ffffff;stroke-width:0.13795646;stroke-miterlimit:4;stroke-dasharray:none;stroke-opacity:0.48163267">
          <path
             inkscape:connector-curvature="0"
             d="M 0,0 C 0.279,0.406 0.383,0.482 0.664,0.889 -0.119,0.744 -0.6,0.381 -1.094,-0.06 -0.736,0.049 -0.25,0.089 0,0"
             style="fill:#ffffff;fill-opacity:1;fill-rule:nonzero;stroke:#ffffff;stroke-width:0.13795646;stroke-miterlimit:4;stroke-dasharray:none;stroke-opacity:0.48163267"
             id="path164" />
        </g>
        <g
           id="g166"
           transform="matrix(0.61933443,0,0,-0.61933443,-50.122577,118.85515)"
           style="fill:#ffffff;stroke:#ffffff;stroke-width:0.13795646;stroke-miterlimit:4;stroke-dasharray:none;stroke-opacity:0.48163267">
          <path
             inkscape:connector-curvature="0"
             d="M 0,0 C 0.275,-0.33 0.828,-0.153 0.918,0.523 0.93,0.631 0.986,1.328 0.84,1.392 0.721,1.365 0.809,0.833 0.773,0.591 0.691,-0.066 0.094,0.436 0,0"
             style="fill:#ffffff;fill-opacity:1;fill-rule:nonzero;stroke:#ffffff;stroke-width:0.13795646;stroke-miterlimit:4;stroke-dasharray:none;stroke-opacity:0.48163267"
             id="path168" />
        </g>
        <g
           id="g170"
           transform="matrix(0.61933443,0,0,-0.61933443,-54.333309,120.69073)"
           style="fill:#ffffff;stroke:#ffffff;stroke-width:0.13795646;stroke-miterlimit:4;stroke-dasharray:none;stroke-opacity:0.48163267">
          <path
             inkscape:connector-curvature="0"
             d="M 0,0 2.963,0.202 3.361,2.568 0.299,2.161 Z"
             style="fill:#ffffff;fill-opacity:1;fill-rule:nonzero;stroke:#ffffff;stroke-width:0.13795646;stroke-miterlimit:4;stroke-dasharray:none;stroke-opacity:0.48163267"
             id="path172" />
        </g>
        <g
           id="g174"
           transform="matrix(0.61933443,0,0,-0.61933443,-50.000382,121.754)"
           style="fill:#ffffff;stroke:#ffffff;stroke-width:0.13795646;stroke-miterlimit:4;stroke-dasharray:none;stroke-opacity:0.48163267">
          <path
             inkscape:connector-curvature="0"
             d="m 0,0 c -0.176,0.002 -0.314,0.271 -0.313,0.601 0.006,0.328 0.153,0.592 0.327,0.59 0.172,0 0.312,-0.271 0.308,-0.597 C 0.316,0.264 0.174,-0.002 0,0 M 0.006,2.477 C -0.52,2.558 -0.863,2.028 -0.941,1.619 -1.09,0.857 -1.117,0.259 -0.809,-0.353 -0.516,-0.938 0.129,-0.995 0.465,-0.471 0.684,-0.122 0.785,0.337 0.791,0.802 0.799,1.451 0.586,2.385 0.006,2.477"
             style="fill:#ffffff;fill-opacity:1;fill-rule:nonzero;stroke:#ffffff;stroke-width:0.13795646;stroke-miterlimit:4;stroke-dasharray:none;stroke-opacity:0.48163267"
             id="path176" />
        </g>
        <g
           id="g178"
           transform="matrix(0.61933443,0,0,-0.61933443,-46.979952,120.75879)"
           style="fill:#ffffff;stroke:#ffffff;stroke-width:0.13795646;stroke-miterlimit:4;stroke-dasharray:none;stroke-opacity:0.48163267">
          <path
             inkscape:connector-curvature="0"
             d="m 0,0 c -0.494,0.047 -1.248,0.165 -1.781,0.165 -0.217,-0.133 0.65,-0.089 0.877,-0.169 -0.114,-0.223 -0.237,-0.585 -0.272,-0.908 -0.006,-0.064 -0.095,-0.282 0.049,-0.286 0.008,0.39 0.09,1.191 0.535,1.165 0.358,-0.021 0.352,-0.634 0.389,-1.116 0,-0.153 0,-0.194 0.09,-0.166 0.002,0.374 0.101,0.989 0.457,0.96 C 0.701,-0.388 0.586,-0.958 0.693,-1.297 0.707,-0.589 0.73,-0.069 0,0"
             style="fill:#ffffff;fill-opacity:1;fill-rule:nonzero;stroke:#ffffff;stroke-width:0.13795646;stroke-miterlimit:4;stroke-dasharray:none;stroke-opacity:0.48163267"
             id="path180" />
        </g>
        <g
           id="g182"
           transform="matrix(0.61933443,0,0,-0.61933443,-49.06655,116.59978)"
           style="fill:#ffffff;stroke:#ffffff;stroke-width:0.13795646;stroke-miterlimit:4;stroke-dasharray:none;stroke-opacity:0.48163267">
          <path
             inkscape:connector-curvature="0"
             d="M 0,0 C 0.6,-0.271 0.738,-0.799 0.738,-1.646 0.738,-3.052 0.76,-5.519 0.781,-6.16 1.143,-6.201 1.184,-6.212 1.188,-6.214 1.164,-1.295 1.496,-0.669 0,0"
             style="fill:#ffffff;fill-opacity:1;fill-rule:nonzero;stroke:#ffffff;stroke-width:0.13795646;stroke-miterlimit:4;stroke-dasharray:none;stroke-opacity:0.48163267"
             id="path184" />
        </g>
        <g
           id="g186"
           transform="matrix(0.61933443,0,0,-0.61933443,-44.823119,121.59855)"
           style="fill:#ffffff;stroke:#ffffff;stroke-width:0.13795646;stroke-miterlimit:4;stroke-dasharray:none;stroke-opacity:0.48163267">
          <path
             inkscape:connector-curvature="0"
             d="M 0,0 C -0.07,-0.071 -0.088,-0.379 0.018,-0.417 0.166,-0.386 0.143,-0.102 0.076,0 0.051,0 0.016,0.017 0,0"
             style="fill:#ffffff;fill-opacity:1;fill-rule:nonzero;stroke:#ffffff;stroke-width:0.13795646;stroke-miterlimit:4;stroke-dasharray:none;stroke-opacity:0.48163267"
             id="path188" />
        </g>
        <g
           id="g190"
           transform="matrix(0.61933443,0,0,-0.61933443,-54.835279,120.2837)"
           style="fill:#ffffff;stroke:#ffffff;stroke-width:0.13795646;stroke-miterlimit:4;stroke-dasharray:none;stroke-opacity:0.48163267">
          <path
             inkscape:connector-curvature="0"
             d="m 0,0 c -0.008,-0.031 -0.018,-0.061 -0.02,-0.095 -0.009,-0.195 -0.017,-0.392 -0.013,-0.589 0.193,0.03 0.433,0.066 0.498,0.131 0.066,0.199 0.056,0.449 0.066,0.67 C 0.395,0.159 0.152,0.028 0,0"
             style="fill:#ffffff;fill-opacity:1;fill-rule:nonzero;stroke:#ffffff;stroke-width:0.13795646;stroke-miterlimit:4;stroke-dasharray:none;stroke-opacity:0.48163267"
             id="path192" />
        </g>
        <g
           id="g194"
           transform="matrix(0.61933443,0,0,-0.61933443,-46.232352,121.35602)"
           style="fill:#ffffff;stroke:#ffffff;stroke-width:0.13795646;stroke-miterlimit:4;stroke-dasharray:none;stroke-opacity:0.48163267">
          <path
             inkscape:connector-curvature="0"
             d="m 0,0 c -0.096,-0.118 -0.096,-0.408 -0.096,-0.629 0.323,-0.017 0.205,-0.002 0.545,-0.002 -0.008,0.262 0.033,0.477 0.24,0.518 0.223,-0.038 0.063,-0.454 0.229,-0.549 0.002,0.234 0.055,0.463 0.211,0.438 0.195,-0.027 0.059,-0.282 0.18,-0.443 -0.004,0.198 0.033,0.351 0.187,0.389 0.131,-0.041 0.082,-0.26 0.15,-0.368 0.02,0.183 -0.019,0.402 -0.093,0.492 C 0.969,-0.069 0.123,0.14 0,0"
             style="fill:#ffffff;fill-opacity:1;fill-rule:nonzero;stroke:#ffffff;stroke-width:0.13795646;stroke-miterlimit:4;stroke-dasharray:none;stroke-opacity:0.48163267"
             id="path196" />
        </g>
        <g
           id="g198"
           transform="matrix(0.61933443,0,0,-0.61933443,-46.83961,121.29675)"
           style="fill:#ffffff;stroke:#ffffff;stroke-width:0.13795646;stroke-miterlimit:4;stroke-dasharray:none;stroke-opacity:0.48163267">
          <path
             inkscape:connector-curvature="0"
             d="m 0,0 c -0.07,0 -0.129,-0.13 -0.129,-0.293 0,-0.161 0.059,-0.292 0.129,-0.292 0.072,0 0.129,0.131 0.129,0.292 C 0.129,-0.13 0.072,0 0,0"
             style="fill:#ffffff;fill-opacity:1;fill-rule:nonzero;stroke:#ffffff;stroke-width:0.13795646;stroke-miterlimit:4;stroke-dasharray:none;stroke-opacity:0.48163267"
             id="path200" />
        </g>
        <g
           id="g202"
           transform="matrix(0.61933443,0,0,-0.61933443,-47.36338,121.23506)"
           style="fill:#ffffff;stroke:#ffffff;stroke-width:0.13795646;stroke-miterlimit:4;stroke-dasharray:none;stroke-opacity:0.48163267">
          <path
             inkscape:connector-curvature="0"
             d="m 0,0 c -0.084,0 -0.154,-0.16 -0.154,-0.355 0,-0.195 0.07,-0.353 0.154,-0.353 0.084,0 0.154,0.158 0.154,0.353 C 0.154,-0.16 0.084,0 0,0"
             style="fill:#ffffff;fill-opacity:1;fill-rule:nonzero;stroke:#ffffff;stroke-width:0.13795646;stroke-miterlimit:4;stroke-dasharray:none;stroke-opacity:0.48163267"
             id="path204" />
        </g>
        <g
           id="g206"
           transform="matrix(0.61933443,0,0,-0.61933443,-44.39615,105.48409)"
           style="fill:#ffffff;stroke:#ffffff;stroke-width:0.13795646;stroke-miterlimit:4;stroke-dasharray:none;stroke-opacity:0.48163267">
          <path
             inkscape:connector-curvature="0"
             d="m 0,0 c -1.91,1.715 -3.863,3.146 -6.092,4.777 -3.701,2.705 -4.463,2.8 -6.679,2.222 L -13.27,5.858 c 0.122,0.027 0.245,0.052 0.375,0.08 0.928,0.193 1.586,0.241 1.586,0.241 1.09,0.048 2.137,-0.529 6.018,-3.211 1.408,-0.974 2.662,-1.675 3.93,-2.658 0.416,-0.325 0.867,-0.661 1.238,-0.93 -0.014,-0.16 -0.002,-0.683 -0.014,-0.841 -0.377,0.004 -0.654,-0.003 -0.834,0 -0.05,-0.012 -0.199,-0.003 -0.373,0.004 -0.177,0.006 -0.281,-0.133 -0.271,-0.016 l 0.01,0.156 c -0.004,-0.117 -0.155,-0.204 -0.333,-0.197 -0.167,0.009 -0.4,0.103 -0.402,0.215 -1.558,0.049 -3.082,0.051 -4.683,0.132 -0.065,-0.126 -0.311,-0.303 -0.579,-0.29 -0.275,0.011 -0.453,0.278 -0.496,0.412 -0.117,0.006 -0.234,0.01 -0.353,0.017 -0.08,-0.158 -0.387,-0.447 -0.772,-0.429 -0.388,0.018 -0.699,0.731 -0.75,0.9 -0.263,0.015 -0.507,-0.001 -0.775,0.061 l -0.143,-0.869 -4.507,-0.108 -0.645,0.702 0.32,0.585 c -0.205,0.696 -0.048,2.18 0.125,2.956 0.108,0.472 0.52,2.187 0.52,2.188 0.025,0.393 0.558,0.606 1.363,0.799 l 0.49,1.121 c -0.388,-0.106 -0.816,-0.224 -1.31,-0.349 0.25,0.304 1.119,0.894 1.467,1.107 -0.051,0.12 -0.075,0.264 -0.043,0.422 0.074,0.378 0.392,0.668 0.716,0.646 0.317,-0.023 0.51,-0.349 0.436,-0.727 -0.076,-0.38 -0.398,-0.67 -0.715,-0.647 -0.101,0.007 -0.183,0.053 -0.256,0.111 0.061,-0.093 0.143,-0.167 0.256,-0.18 0.309,-0.036 0.58,-0.028 0.836,0.385 0.256,0.412 0.111,0.941 -0.277,1.112 -0.158,0.07 -0.342,0.076 -0.516,0.033 0.338,0.157 0.828,0.05 1.151,-0.268 0.15,-0.145 0.238,-0.317 0.269,-0.482 1.606,0.143 2.551,-0.36 3.449,-0.997 2.76,-1.956 5.51,-4.095 7.825,-6.386 C 0.031,0.456 0.01,0.237 0,0 m 3.215,4.603 c -0.67,6.036 -5.854,10.73 -12.065,10.73 -6.666,0 -12.07,-5.403 -12.07,-12.069 0,-6.214 4.695,-11.396 10.731,-12.062 V -8.804 H 3.219 V 4.603 Z"
             style="fill:#ffffff;fill-opacity:1;fill-rule:nonzero;stroke:#ffffff;stroke-width:0.13795646;stroke-miterlimit:4;stroke-dasharray:none;stroke-opacity:0.48163267"
             id="path208" />
        </g>
        <path
           inkscape:connector-curvature="0"
           d="m -53.481786,105.20532 h 0.759925 v -0.63358 h -0.759925 z"
           style="fill:#ffffff;fill-opacity:1;fill-rule:nonzero;stroke:#ffffff;stroke-width:0.05291667;stroke-miterlimit:4;stroke-dasharray:none;stroke-opacity:0.48163267"
           id="path210" />
      </g>
      <g
         id="text852"
         style="font-style:normal;font-variant:normal;font-weight:normal;font-stretch:normal;font-size:4.28248835px;line-height:1.25;font-family:Lato;-inkscape-font-specification:Lato;font-variant-ligatures:normal;font-variant-caps:normal;font-variant-numeric:normal;text-align:start;letter-spacing:0px;word-spacing:0px;writing-mode:lr-tb;text-anchor:start;fill:#ffffff;fill-opacity:1;stroke:none;stroke-width:0.14599392"
         aria-label="Доставка сборных грузов по России и СНГ">
        <path
           inkscape:connector-curvature="0"
           id="path48"
           style="font-style:normal;font-variant:normal;font-weight:300;font-stretch:normal;font-family:Lato;-inkscape-font-specification:'Lato Light';text-align:center;text-anchor:middle;fill:#ffffff;stroke-width:0.14599392"
           d="m -58.766037,134.17762 h 1.628935 v -2.78319 h -1.223269 v 0.67332 q 0,1.10617 -0.27602,1.86313 -0.04809,0.13174 -0.129646,0.24674 z m -0.506036,0.83852 v -0.83852 h 0.169376 q 0.236289,-0.12964 0.326205,-0.41821 0.209106,-0.66495 0.209106,-1.94677 v -0.58968 h 1.641481 v 2.95257 h 0.292748 v 0.84061 h -0.171467 v -0.67123 h -2.295982 v 0.67123 z" />
        <path
           inkscape:connector-curvature="0"
           id="path50"
           style="font-style:normal;font-variant:normal;font-weight:300;font-stretch:normal;font-family:Lato;-inkscape-font-specification:'Lato Light';text-align:center;text-anchor:middle;fill:#ffffff;stroke-width:0.14599392"
           d="m -54.40827,132.40441 q -0.207015,-0.28857 -0.564586,-0.28857 -0.357571,0 -0.564586,0.28648 -0.209106,0.28438 -0.209106,0.76951 0,0.49767 0.207015,0.78205 0.207015,0.28648 0.566677,0.28648 0.357571,0 0.564586,-0.28648 0.209106,-0.28856 0.209106,-0.78205 0,-0.47886 -0.209106,-0.76742 z m -0.566677,-0.45794 q 0.447486,0 0.706778,0.33456 0.261382,0.33667 0.261382,0.89289 0,0.57504 -0.261382,0.90752 -0.259292,0.33457 -0.706778,0.33457 -0.451669,0 -0.713051,-0.33248 -0.259292,-0.33248 -0.259292,-0.90961 0,-0.5625 0.261383,-0.89498 0.261382,-0.33247 0.71096,-0.33247 z" />
        <path
           inkscape:connector-curvature="0"
           id="path52"
           style="font-style:normal;font-variant:normal;font-weight:300;font-stretch:normal;font-family:Lato;-inkscape-font-specification:'Lato Light';text-align:center;text-anchor:middle;fill:#ffffff;stroke-width:0.14599392"
           d="m -51.579068,132.11584 v 0.20492 q -0.173558,-0.10664 -0.286475,-0.14428 -0.194469,-0.0606 -0.372209,-0.0606 -0.506036,0 -0.725597,0.25929 -0.219561,0.25929 -0.219561,0.80088 0,0.54576 0.219561,0.80506 0.219561,0.25929 0.725597,0.25929 0.167285,0 0.330388,-0.046 0.165193,-0.0439 0.328296,-0.13382 v 0.19446 q -0.161012,0.0753 -0.332478,0.11292 -0.173558,0.0376 -0.342934,0.0376 -0.514401,0 -0.817604,-0.27811 -0.303204,-0.2802 -0.303204,-0.95143 0,-0.67123 0.303204,-0.95143 0.303203,-0.27811 0.817604,-0.27811 0.167285,0 0.35548,0.0481 0.188195,0.046 0.319932,0.12128 z" />
        <path
           inkscape:connector-curvature="0"
           id="path54"
           style="font-style:normal;font-variant:normal;font-weight:300;font-stretch:normal;font-family:Lato;-inkscape-font-specification:'Lato Light';text-align:center;text-anchor:middle;fill:#ffffff;stroke-width:0.14599392"
           d="m -51.162948,132.16812 v -0.1652 h 2.057602 v 0.1652 h -0.932612 v 2.17679 h -0.192377 v -2.17679 z" />
        <path
           inkscape:connector-curvature="0"
           id="path56"
           style="font-style:normal;font-variant:normal;font-weight:300;font-stretch:normal;font-family:Lato;-inkscape-font-specification:'Lato Light';text-align:center;text-anchor:middle;fill:#ffffff;stroke-width:0.14599392"
           d="m -47.537051,133.02336 q -0.464215,0 -0.669139,0.16519 -0.204924,0.1652 -0.204924,0.48304 0,0.30948 0.169376,0.43912 0.169376,0.12965 0.401483,0.12965 0.439122,0 0.6315,-0.37221 0.194468,-0.37221 0.194468,-0.70051 v -0.14428 z m 0.717233,-0.0146 v 1.33619 h -0.190287 v -0.63568 q -0.161011,0.4663 -0.426576,0.59386 -0.211196,0.10246 -0.420302,0.10246 -0.349207,0 -0.549949,-0.1861 -0.200741,-0.1882 -0.200741,-0.55204 0,-0.36385 0.261382,-0.58132 0.261382,-0.21956 0.855243,-0.21956 h 0.476761 v -0.0376 q 0,-0.31157 -0.17774,-0.51231 -0.175649,-0.20074 -0.581314,-0.20074 -0.200742,0 -0.409847,0.0753 -0.133828,0.0481 -0.347116,0.19447 v -0.20702 q 0.186104,-0.11501 0.347116,-0.1631 0.234198,-0.069 0.449577,-0.069 0.41403,0 0.681685,0.25092 0.232108,0.21538 0.232108,0.81133 z" />
        <path
           inkscape:connector-curvature="0"
           id="path58"
           style="font-style:normal;font-variant:normal;font-weight:300;font-stretch:normal;font-family:Lato;-inkscape-font-specification:'Lato Light';text-align:center;text-anchor:middle;fill:#ffffff;stroke-width:0.14599392"
           d="m -45.657189,134.18181 h 0.646137 q 0.328297,0 0.489308,-0.12128 0.163103,-0.12338 0.163103,-0.37012 0,-0.26138 -0.167285,-0.37639 -0.167285,-0.11501 -0.485126,-0.11501 h -0.646137 z m 0,-1.1459 h 0.604316 q 0.292748,0 0.441214,-0.10874 0.150556,-0.11082 0.150556,-0.33457 0,-0.21538 -0.148465,-0.31993 -0.148466,-0.10664 -0.443305,-0.10664 h -0.604316 z m -0.192377,1.309 v -2.34199 h 0.825968 q 0.365935,0 0.562495,0.15056 0.196559,0.15056 0.196559,0.42867 0,0.21538 -0.100371,0.34293 -0.10037,0.12546 -0.29693,0.15683 0.23629,0.0502 0.365935,0.20911 0.129646,0.15892 0.129646,0.3973 0,0.31366 -0.215379,0.48512 -0.213288,0.17147 -0.610589,0.17147 z" />
        <path
           inkscape:connector-curvature="0"
           id="path60"
           style="font-style:normal;font-variant:normal;font-weight:300;font-stretch:normal;font-family:Lato;-inkscape-font-specification:'Lato Light';text-align:center;text-anchor:middle;fill:#ffffff;stroke-width:0.14599392"
           d="m -43.338206,134.34491 v -2.34199 h 0.192378 v 1.25464 l 1.237907,-1.25464 h 0.271837 l -0.911701,0.92425 0.995344,1.41774 h -0.234199 l -0.899155,-1.27764 -0.460033,0.46631 v 0.81133 z" />
        <path
           inkscape:connector-curvature="0"
           id="path62"
           style="font-style:normal;font-variant:normal;font-weight:300;font-stretch:normal;font-family:Lato;-inkscape-font-specification:'Lato Light';text-align:center;text-anchor:middle;fill:#ffffff;stroke-width:0.14599392"
           d="m -39.858683,133.02336 q -0.464215,0 -0.669139,0.16519 -0.204923,0.1652 -0.204923,0.48304 0,0.30948 0.169375,0.43912 0.169376,0.12965 0.401484,0.12965 0.439122,0 0.631499,-0.37221 0.194469,-0.37221 0.194469,-0.70051 v -0.14428 z m 0.717233,-0.0146 v 1.33619 h -0.190286 v -0.63568 q -0.161011,0.4663 -0.426576,0.59386 -0.211197,0.10246 -0.420303,0.10246 -0.349207,0 -0.549948,-0.1861 -0.200742,-0.1882 -0.200742,-0.55204 0,-0.36385 0.261382,-0.58132 0.261383,-0.21956 0.855244,-0.21956 h 0.476761 v -0.0376 q 0,-0.31157 -0.17774,-0.51231 -0.175649,-0.20074 -0.581314,-0.20074 -0.200742,0 -0.409848,0.0753 -0.133828,0.0481 -0.347116,0.19447 v -0.20702 q 0.186105,-0.11501 0.347116,-0.1631 0.234199,-0.069 0.449578,-0.069 0.414029,0 0.681685,0.25092 0.232107,0.21538 0.232107,0.81133 z" />
        <path
           inkscape:connector-curvature="0"
           id="path64"
           style="font-style:normal;font-variant:normal;font-weight:300;font-stretch:normal;font-family:Lato;-inkscape-font-specification:'Lato Light';text-align:center;text-anchor:middle;fill:#ffffff;stroke-width:0.14599392"
           d="m -35.201897,132.11584 v 0.20492 q -0.173557,-0.10664 -0.286475,-0.14428 -0.194468,-0.0606 -0.372208,-0.0606 -0.506036,0 -0.725597,0.25929 -0.219562,0.25929 -0.219562,0.80088 0,0.54576 0.219562,0.80506 0.219561,0.25929 0.725597,0.25929 0.167285,0 0.330387,-0.046 0.165194,-0.0439 0.328296,-0.13382 v 0.19446 q -0.161011,0.0753 -0.332478,0.11292 -0.173558,0.0376 -0.342934,0.0376 -0.5144,0 -0.817604,-0.27811 -0.303203,-0.2802 -0.303203,-0.95143 0,-0.67123 0.303203,-0.95143 0.303204,-0.27811 0.817604,-0.27811 0.167285,0 0.35548,0.0481 0.188196,0.046 0.319932,0.12128 z" />
        <path
           inkscape:connector-curvature="0"
           id="path66"
           style="font-style:normal;font-variant:normal;font-weight:300;font-stretch:normal;font-family:Lato;-inkscape-font-specification:'Lato Light';text-align:center;text-anchor:middle;fill:#ffffff;stroke-width:0.14599392"
           d="m -34.593398,133.17601 v -0.43076 q 0,-0.62523 0.0481,-0.87197 0.08155,-0.41612 0.487216,-0.64614 0.29484,-0.16728 0.882427,-0.17147 0.255109,-0.002 0.368027,-0.0376 l 0.069,0.19865 q -0.102461,0.0439 -0.161011,0.0439 -0.05646,0 -0.432849,0.0272 -0.376391,0.0272 -0.560404,0.1171 -0.472579,0.23629 -0.485126,0.81342 v 0.12756 l 0.046,-0.0669 q 0.261382,-0.33247 0.708869,-0.33247 0.449577,0 0.708869,0.33666 0.261382,0.33457 0.261382,0.89915 0,0.56459 -0.261382,0.89916 -0.261383,0.33457 -0.708869,0.33457 -0.449578,0 -0.71096,-0.33248 -0.259292,-0.33248 -0.259292,-0.90752 z m 0.200742,0.002 q 0,0.4914 0.207015,0.77787 0.207015,0.28439 0.566677,0.28439 0.357571,0 0.564586,-0.28648 0.209105,-0.28856 0.209105,-0.77369 0,-0.48513 -0.209105,-0.77369 -0.207015,-0.29066 -0.564586,-0.29066 -0.35548,0 -0.564586,0.28648 -0.209106,0.28647 -0.209106,0.77578 z" />
        <path
           inkscape:connector-curvature="0"
           id="path68"
           style="font-style:normal;font-variant:normal;font-weight:300;font-stretch:normal;font-family:Lato;-inkscape-font-specification:'Lato Light';text-align:center;text-anchor:middle;fill:#ffffff;stroke-width:0.14599392"
           d="m -30.436373,132.40441 q -0.207014,-0.28857 -0.564586,-0.28857 -0.357571,0 -0.564585,0.28648 -0.209106,0.28438 -0.209106,0.76951 0,0.49767 0.207015,0.78205 0.207014,0.28648 0.566676,0.28648 0.357572,0 0.564586,-0.28648 0.209106,-0.28856 0.209106,-0.78205 0,-0.47886 -0.209106,-0.76742 z m -0.566677,-0.45794 q 0.447487,0 0.706778,0.33456 0.261383,0.33667 0.261383,0.89289 0,0.57504 -0.261383,0.90752 -0.259291,0.33457 -0.706778,0.33457 -0.451668,0 -0.713051,-0.33248 -0.259291,-0.33248 -0.259291,-0.90961 0,-0.5625 0.261382,-0.89498 0.261383,-0.33247 0.71096,-0.33247 z" />
        <path
           inkscape:connector-curvature="0"
           id="path70"
           style="font-style:normal;font-variant:normal;font-weight:300;font-stretch:normal;font-family:Lato;-inkscape-font-specification:'Lato Light';text-align:center;text-anchor:middle;fill:#ffffff;stroke-width:0.14599392"
           d="m -29.018635,133.81378 v 1.42192 h -0.188195 v -3.23278 h 0.188195 v 0.53531 q 0.131737,-0.30529 0.286475,-0.41821 0.23629,-0.17355 0.445396,-0.17355 0.416121,0 0.69214,0.33875 0.27602,0.33875 0.27602,0.89079 0,0.55204 -0.27602,0.89079 -0.276019,0.33875 -0.69214,0.33875 -0.209106,0 -0.445396,-0.17356 -0.154738,-0.11291 -0.286475,-0.41821 z m 1.254636,0.17774 q 0.242562,-0.24465 0.242562,-0.81551 0,-0.57086 -0.242562,-0.81552 -0.240472,-0.24465 -0.508128,-0.24465 -0.261382,0 -0.503945,0.24465 -0.240472,0.24466 -0.240472,0.81552 0,0.57086 0.240472,0.81551 0.242563,0.24465 0.503945,0.24465 0.267656,0 0.508128,-0.24465 z" />
        <path
           inkscape:connector-curvature="0"
           id="path72"
           style="font-style:normal;font-variant:normal;font-weight:300;font-stretch:normal;font-family:Lato;-inkscape-font-specification:'Lato Light';text-align:center;text-anchor:middle;fill:#ffffff;stroke-width:0.14599392"
           d="m -26.492636,134.34491 v -2.34199 h 0.192378 v 1.03299 h 1.444921 v -1.03299 h 0.192378 v 2.34199 h -0.192378 v -1.1459 h -1.444921 v 1.1459 z" />
        <path
           inkscape:connector-curvature="0"
           id="path74"
           style="font-style:normal;font-variant:normal;font-weight:300;font-stretch:normal;font-family:Lato;-inkscape-font-specification:'Lato Light';text-align:center;text-anchor:middle;fill:#ffffff;stroke-width:0.14599392"
           d="m -23.500332,134.18181 h 0.662865 q 0.324114,0 0.478853,-0.11919 0.154738,-0.11919 0.154738,-0.36594 0,-0.2572 -0.15892,-0.37639 -0.15683,-0.11919 -0.474671,-0.11919 h -0.662865 z m -0.192378,0.1631 v -2.34199 h 0.192378 v 1.03508 h 0.679594 q 0.378481,0 0.59386,0.1631 0.217471,0.1631 0.217471,0.4914 0,0.33039 -0.211197,0.4914 -0.209106,0.16101 -0.600134,0.16101 z m 2.105696,-2.34199 h 0.192378 v 2.34199 h -0.192378 z" />
        <path
           inkscape:connector-curvature="0"
           id="path76"
           style="font-style:normal;font-variant:normal;font-weight:300;font-stretch:normal;font-family:Lato;-inkscape-font-specification:'Lato Light';text-align:center;text-anchor:middle;fill:#ffffff;stroke-width:0.14599392"
           d="m -18.663712,132.00292 -0.846878,1.12499 0.90961,1.217 h -0.230016 l -0.794603,-1.06644 -0.802966,1.06644 h -0.230017 l 0.915884,-1.22536 -0.832241,-1.11663 h 0.227925 l 0.721415,0.97235 0.731871,-0.97235 z" />
        <path
           inkscape:connector-curvature="0"
           id="path78"
           style="font-style:normal;font-variant:normal;font-weight:300;font-stretch:normal;font-family:Lato;-inkscape-font-specification:'Lato Light';text-align:center;text-anchor:middle;fill:#ffffff;stroke-width:0.14599392"
           d="m -16.48483,134.34491 v -2.34199 h 1.42192 v 0.16311 h -1.231634 v 2.17888 z" />
        <path
           inkscape:connector-curvature="0"
           id="path80"
           style="font-style:normal;font-variant:normal;font-weight:300;font-stretch:normal;font-family:Lato;-inkscape-font-specification:'Lato Light';text-align:center;text-anchor:middle;fill:#ffffff;stroke-width:0.14599392"
           d="m -14.21394,133.81378 v 1.42192 h -0.188195 v -3.23278 h 0.188195 v 0.53531 q 0.131737,-0.30529 0.286476,-0.41821 0.236289,-0.17355 0.445395,-0.17355 0.416121,0 0.69214,0.33875 0.27602,0.33875 0.27602,0.89079 0,0.55204 -0.27602,0.89079 -0.276019,0.33875 -0.69214,0.33875 -0.209106,0 -0.445395,-0.17356 -0.154739,-0.11291 -0.286476,-0.41821 z m 1.254636,0.17774 q 0.242563,-0.24465 0.242563,-0.81551 0,-0.57086 -0.242563,-0.81552 -0.240472,-0.24465 -0.508128,-0.24465 -0.261382,0 -0.503945,0.24465 -0.240471,0.24466 -0.240471,0.81552 0,0.57086 0.240471,0.81551 0.242563,0.24465 0.503945,0.24465 0.267656,0 0.508128,-0.24465 z" />
        <path
           inkscape:connector-curvature="0"
           id="path82"
           style="font-style:normal;font-variant:normal;font-weight:300;font-stretch:normal;font-family:Lato;-inkscape-font-specification:'Lato Light';text-align:center;text-anchor:middle;fill:#ffffff;stroke-width:0.14599392"
           d="m -10.897521,134.56238 q -0.125463,0.31157 -0.269746,0.43076 -0.194469,0.16101 -0.380573,0.16101 h -0.286475 v -0.1631 h 0.244654 q 0.152647,0 0.267656,-0.0983 0.148465,-0.12756 0.244653,-0.3743 l 0.069,-0.17356 -0.934703,-2.34199 h 0.204924 l 0.832241,2.08688 0.834333,-2.08688 h 0.2028324 z" />
        <path
           inkscape:connector-curvature="0"
           id="path84"
           style="font-style:normal;font-variant:normal;font-weight:300;font-stretch:normal;font-family:Lato;-inkscape-font-specification:'Lato Light';text-align:center;text-anchor:middle;fill:#ffffff;stroke-width:0.14599392"
           d="m -8.0599542,133.08191 q 0.215379,0.0481 0.3282962,0.20283 0.1170993,0.16101 0.1170993,0.37848 0,0.36176 -0.2195612,0.55204 -0.2195612,0.19029 -0.6231355,0.19029 -0.2592913,0 -0.4370313,-0.0481 -0.1756489,-0.0502 -0.3638442,-0.14847 v -0.17983 q 0.1003708,0.0544 0.2760197,0.12128 0.2383807,0.0899 0.4223939,0.0899 0.4098475,0 0.5813143,-0.14847 0.1735579,-0.15055 0.1735579,-0.42867 0,-0.22374 -0.1840131,-0.36593 -0.1693758,-0.12965 -0.4934899,-0.12965 H -8.800189 v -0.1631 h 0.3262051 q 0.2802019,0 0.4433045,-0.11083 0.1631026,-0.11291 0.1631026,-0.28856 0,-0.19238 -0.094098,-0.32202 -0.1233724,-0.16729 -0.5290378,-0.16729 -0.1484652,0 -0.317841,0.0418 -0.1672847,0.0397 -0.3701174,0.12965 v -0.19029 q 0.2049238,-0.0774 0.3826638,-0.11501 0.17774,-0.0376 0.3366604,-0.0376 0.3805727,0 0.5834054,0.17147 0.2028327,0.17147 0.2028327,0.45167 0,0.19447 -0.1003708,0.3283 -0.1045529,0.1401 -0.286475,0.1861 z" />
        <path
           inkscape:connector-curvature="0"
           id="path86"
           style="font-style:normal;font-variant:normal;font-weight:300;font-stretch:normal;font-family:Lato;-inkscape-font-specification:'Lato Light';text-align:center;text-anchor:middle;fill:#ffffff;stroke-width:0.14599392"
           d="m -5.4440383,132.40441 q -0.2070148,-0.28857 -0.5645859,-0.28857 -0.357571,0 -0.5645858,0.28648 -0.2091059,0.28438 -0.2091059,0.76951 0,0.49767 0.2070148,0.78205 0.2070148,0.28648 0.5666769,0.28648 0.3575711,0 0.5645859,-0.28648 0.2091059,-0.28856 0.2091059,-0.78205 0,-0.47886 -0.2091059,-0.76742 z m -0.5666769,-0.45794 q 0.4474865,0 0.7067778,0.33456 0.2613824,0.33667 0.2613824,0.89289 0,0.57504 -0.2613824,0.90752 -0.2592913,0.33457 -0.7067778,0.33457 -0.4516687,0 -0.7130511,-0.33248 -0.2592913,-0.33248 -0.2592913,-0.90961 0,-0.5625 0.2613824,-0.89498 0.2613823,-0.33247 0.71096,-0.33247 z" />
        <path
           inkscape:connector-curvature="0"
           id="path88"
           style="font-style:normal;font-variant:normal;font-weight:300;font-stretch:normal;font-family:Lato;-inkscape-font-specification:'Lato Light';text-align:center;text-anchor:middle;fill:#ffffff;stroke-width:0.14599392"
           d="m -4.0283933,134.18181 h 0.6461372 q 0.3282962,0 0.4893078,-0.12128 0.1631025,-0.12338 0.1631025,-0.37012 0,-0.26138 -0.1672847,-0.37639 -0.1672847,-0.11501 -0.4851256,-0.11501 h -0.6461372 z m 0,-1.1459 h 0.604316 q 0.2927483,0 0.4412134,-0.10874 0.1505563,-0.11082 0.1505563,-0.33457 0,-0.21538 -0.1484652,-0.31993 -0.1484652,-0.10664 -0.4433045,-0.10664 h -0.604316 z m -0.1923774,1.309 v -2.34199 h 0.8259683 q 0.3659352,0 0.5624948,0.15056 0.1965595,0.15056 0.1965595,0.42867 0,0.21538 -0.1003708,0.34293 -0.1003709,0.12546 -0.2969304,0.15683 0.2362897,0.0502 0.3659353,0.20911 0.1296456,0.15892 0.1296456,0.3973 0,0.31366 -0.215379,0.48512 -0.213288,0.17147 -0.6105892,0.17147 z" />
        <path
           inkscape:connector-curvature="0"
           id="path90"
           style="font-style:normal;font-variant:normal;font-weight:300;font-stretch:normal;font-family:Lato;-inkscape-font-specification:'Lato Light';text-align:center;text-anchor:middle;fill:#ffffff;stroke-width:0.14599392"
           d="m -48.662041,139.69802 v -2.34199 h 1.829677 v 2.34199 h -0.192378 v -2.17888 h -1.444922 v 2.17888 z" />
        <path
           inkscape:connector-curvature="0"
           id="path92"
           style="font-style:normal;font-variant:normal;font-weight:300;font-stretch:normal;font-family:Lato;-inkscape-font-specification:'Lato Light';text-align:center;text-anchor:middle;fill:#ffffff;stroke-width:0.14599392"
           d="m -44.467377,137.75752 q -0.207015,-0.28857 -0.564586,-0.28857 -0.357571,0 -0.564586,0.28648 -0.209106,0.28438 -0.209106,0.76951 0,0.49767 0.207015,0.78205 0.207015,0.28648 0.566677,0.28648 0.357571,0 0.564586,-0.28648 0.209106,-0.28856 0.209106,-0.78205 0,-0.47886 -0.209106,-0.76742 z m -0.566677,-0.45794 q 0.447487,0 0.706778,0.33457 0.261382,0.33666 0.261382,0.89288 0,0.57504 -0.261382,0.90752 -0.259291,0.33457 -0.706778,0.33457 -0.451669,0 -0.713051,-0.33248 -0.259291,-0.33248 -0.259291,-0.90961 0,-0.5625 0.261382,-0.89498 0.261382,-0.33247 0.71096,-0.33247 z" />
        <path
           inkscape:connector-curvature="0"
           id="path94"
           style="font-style:normal;font-variant:normal;font-weight:300;font-stretch:normal;font-family:Lato;-inkscape-font-specification:'Lato Light';text-align:center;text-anchor:middle;fill:#ffffff;stroke-width:0.14599392"
           d="m -41.631902,136.74963 v 1.43446 h 0.641955 q 0.349207,0 0.539494,-0.1861 0.192377,-0.1861 0.192377,-0.53322 0,-0.34084 -0.192377,-0.52904 -0.190287,-0.1861 -0.539494,-0.1861 z m -0.209106,-0.17356 h 0.851061 q 0.466307,0 0.706778,0.22583 0.238381,0.22584 0.238381,0.66287 0,0.43912 -0.238381,0.66496 -0.240471,0.22583 -0.706778,0.22583 h -0.641955 v 1.34246 h -0.209106 z" />
        <path
           inkscape:connector-curvature="0"
           id="path96"
           style="font-style:normal;font-variant:normal;font-weight:300;font-stretch:normal;font-family:Lato;-inkscape-font-specification:'Lato Light';text-align:center;text-anchor:middle;fill:#ffffff;stroke-width:0.14599392"
           d="m -37.901453,137.75752 q -0.207015,-0.28857 -0.564586,-0.28857 -0.357571,0 -0.564586,0.28648 -0.209106,0.28438 -0.209106,0.76951 0,0.49767 0.207015,0.78205 0.207015,0.28648 0.566677,0.28648 0.357571,0 0.564586,-0.28648 0.209106,-0.28856 0.209106,-0.78205 0,-0.47886 -0.209106,-0.76742 z m -0.566677,-0.45794 q 0.447487,0 0.706778,0.33457 0.261382,0.33666 0.261382,0.89288 0,0.57504 -0.261382,0.90752 -0.259291,0.33457 -0.706778,0.33457 -0.451669,0 -0.713051,-0.33248 -0.259291,-0.33248 -0.259291,-0.90961 0,-0.5625 0.261382,-0.89498 0.261382,-0.33247 0.71096,-0.33247 z" />
        <path
           inkscape:connector-curvature="0"
           id="path98"
           style="font-style:normal;font-variant:normal;font-weight:300;font-stretch:normal;font-family:Lato;-inkscape-font-specification:'Lato Light';text-align:center;text-anchor:middle;fill:#ffffff;stroke-width:0.14599392"
           d="m -35.07225,137.46895 v 0.20493 q -0.173558,-0.10665 -0.286475,-0.14429 -0.194469,-0.0606 -0.372209,-0.0606 -0.506036,0 -0.725597,0.25929 -0.219561,0.25929 -0.219561,0.80088 0,0.54576 0.219561,0.80506 0.219561,0.25929 0.725597,0.25929 0.167285,0 0.330387,-0.046 0.165194,-0.0439 0.328297,-0.13382 v 0.19446 q -0.161012,0.0753 -0.332479,0.11292 -0.173557,0.0376 -0.342933,0.0376 -0.514401,0 -0.817604,-0.27811 -0.303204,-0.2802 -0.303204,-0.95143 0,-0.67123 0.303204,-0.95143 0.303203,-0.27811 0.817604,-0.27811 0.167284,0 0.35548,0.0481 0.188195,0.046 0.319932,0.12128 z" />
        <path
           inkscape:connector-curvature="0"
           id="path100"
           style="font-style:normal;font-variant:normal;font-weight:300;font-stretch:normal;font-family:Lato;-inkscape-font-specification:'Lato Light';text-align:center;text-anchor:middle;fill:#ffffff;stroke-width:0.14599392"
           d="m -32.713536,137.46895 v 0.20493 q -0.173558,-0.10665 -0.286475,-0.14429 -0.194469,-0.0606 -0.372209,-0.0606 -0.506036,0 -0.725597,0.25929 -0.219561,0.25929 -0.219561,0.80088 0,0.54576 0.219561,0.80506 0.219561,0.25929 0.725597,0.25929 0.167285,0 0.330388,-0.046 0.165193,-0.0439 0.328296,-0.13382 v 0.19446 q -0.161012,0.0753 -0.332479,0.11292 -0.173557,0.0376 -0.342933,0.0376 -0.514401,0 -0.817604,-0.27811 -0.303204,-0.2802 -0.303204,-0.95143 0,-0.67123 0.303204,-0.95143 0.303203,-0.27811 0.817604,-0.27811 0.167285,0 0.35548,0.0481 0.188195,0.046 0.319932,0.12128 z" />
        <path
           inkscape:connector-curvature="0"
           id="path102"
           style="font-style:normal;font-variant:normal;font-weight:300;font-stretch:normal;font-family:Lato;-inkscape-font-specification:'Lato Light';text-align:center;text-anchor:middle;fill:#ffffff;stroke-width:0.14599392"
           d="m -31.958664,139.69802 v -2.34199 h 0.192377 v 2.13288 l 1.371735,-2.13288 h 0.286475 v 2.34199 h -0.192378 v -2.13706 l -1.378007,2.13706 z" />
        <path
           inkscape:connector-curvature="0"
           id="path104"
           style="font-style:normal;font-variant:normal;font-weight:300;font-stretch:normal;font-family:Lato;-inkscape-font-specification:'Lato Light';text-align:center;text-anchor:middle;fill:#ffffff;stroke-width:0.14599392"
           d="m -29.139916,139.69802 v -2.34199 h 0.192378 v 2.13288 l 1.371734,-2.13288 h 0.286475 v 2.34199 h -0.192377 v -2.13706 l -1.378008,2.13706 z" />
        <path
           inkscape:connector-curvature="0"
           id="path106"
           style="font-style:normal;font-variant:normal;font-weight:300;font-stretch:normal;font-family:Lato;-inkscape-font-specification:'Lato Light';text-align:center;text-anchor:middle;fill:#ffffff;stroke-width:0.14599392"
           d="m -24.957798,139.69802 v -2.34199 h 0.192377 v 2.13288 l 1.371735,-2.13288 h 0.286475 v 2.34199 h -0.192378 v -2.13706 l -1.378007,2.13706 z" />
        <path
           inkscape:connector-curvature="0"
           id="path108"
           style="font-style:normal;font-variant:normal;font-weight:300;font-stretch:normal;font-family:Lato;-inkscape-font-specification:'Lato Light';text-align:center;text-anchor:middle;fill:#ffffff;stroke-width:0.14599392"
           d="m -18.5027,136.83536 v 0.24047 q -0.213288,-0.19447 -0.45376,-0.28856 -0.242562,-0.0962 -0.5144,-0.0962 -0.589679,0 -0.901246,0.37221 -0.313659,0.3722 -0.313659,1.07689 0,0.70469 0.313659,1.07899 0.311567,0.3743 0.901246,0.3743 0.271838,0 0.5144,-0.0962 0.240472,-0.0983 0.45376,-0.29275 v 0.25302 q -0.221652,0.15055 -0.470488,0.22583 -0.246745,0.0753 -0.522765,0.0753 -0.656592,0 -1.032983,-0.43285 -0.37639,-0.43494 -0.37639,-1.18563 0,-0.75278 0.37639,-1.18563 0.376391,-0.43494 1.032983,-0.43494 0.280202,0 0.526947,0.0795 0.248836,0.0774 0.466306,0.23629 z" />
        <path
           inkscape:connector-curvature="0"
           id="path110"
           style="font-style:normal;font-variant:normal;font-weight:300;font-stretch:normal;font-family:Lato;-inkscape-font-specification:'Lato Light';text-align:center;text-anchor:middle;fill:#ffffff;stroke-width:0.14599392"
           d="m -17.745737,136.57607 h 0.211197 v 1.37173 h 1.746034 v -1.37173 h 0.211197 v 3.12195 h -0.211197 v -1.58084 h -1.746034 v 1.58084 h -0.211197 z" />
        <path
           inkscape:connector-curvature="0"
           id="path112"
           style="font-style:normal;font-variant:normal;font-weight:300;font-stretch:normal;font-family:Lato;-inkscape-font-specification:'Lato Light';text-align:center;text-anchor:middle;fill:#ffffff;stroke-width:0.14599392"
           d="m -14.523415,139.69802 v -3.12195 h 1.840131 v 0.17356 h -1.631025 v 2.94839 z" />
      </g>
    </g>
  </g>
</svg>
