<?xml version="1.0" encoding="UTF-8" standalone="no"?>
<!-- Created with Inkscape (http://www.inkscape.org/) -->

<svg
   xmlns:dc="http://purl.org/dc/elements/1.1/"
   xmlns:cc="http://creativecommons.org/ns#"
   xmlns:rdf="http://www.w3.org/1999/02/22-rdf-syntax-ns#"
   xmlns:svg="http://www.w3.org/2000/svg"
   xmlns="http://www.w3.org/2000/svg"
   xmlns:sodipodi="http://sodipodi.sourceforge.net/DTD/sodipodi-0.dtd"
   xmlns:inkscape="http://www.inkscape.org/namespaces/inkscape"
   width="61.788582mm"
   height="31.607672mm"
   viewBox="0 0 61.788582 31.607672"
   version="1.1"
   id="svg1155"
   inkscape:version="0.92.2 (5c3e80d, 2017-08-06)"
   sodipodi:docname="logo.svg">
  <defs
     id="defs1149" />
  <sodipodi:namedview
     id="base"
     pagecolor="#ffffff"
     bordercolor="#666666"
     borderopacity="1.0"
     inkscape:pageopacity="0.0"
     inkscape:pageshadow="2"
     inkscape:zoom="1.979899"
     inkscape:cx="9.5560137"
     inkscape:cy="19.371426"
     inkscape:document-units="mm"
     inkscape:current-layer="layer1"
     showgrid="false"
     fit-margin-top="0"
     fit-margin-left="0"
     fit-margin-right="0"
     fit-margin-bottom="0"
     inkscape:window-width="2560"
     inkscape:window-height="1315"
     inkscape:window-x="-13"
     inkscape:window-y="-13"
     inkscape:window-maximized="1" />
  <metadata
     id="metadata1152">
    <rdf:RDF>
      <cc:Work
         rdf:about="">
        <dc:format>image/svg+xml</dc:format>
        <dc:type
           rdf:resource="http://purl.org/dc/dcmitype/StillImage" />
        <dc:title></dc:title>
      </cc:Work>
    </rdf:RDF>
  </metadata>
  <g
     inkscape:label="Layer 1"
     inkscape:groupmode="layer"
     id="layer1"
     transform="translate(262.97168,136.08955)">
    <g
       id="g2143"
       transform="matrix(1.7555937,0,0,1.7555937,-307.26369,-202.60064)"
       style="stroke:none">
      <g
         transform="matrix(0.35277777,0,0,-0.35277777,50.67734,47.528565)"
         id="g42"
         style="stroke:none">
        <path
           id="path44"
           style="fill:#61849c;fill-opacity:1;fill-rule:nonzero;stroke:none"
           d="m 0,0 c -0.271,0 -0.52,-0.23 -0.52,-1.077 0,-0.441 0.075,-0.958 0.52,-0.958 0.449,0 0.52,0.517 0.52,0.958 C 0.52,-0.23 0.277,0 0,0 M 1.203,1.919 C 1.15,0.983 0.473,1.169 -0.152,0.959 -0.457,0.858 -0.836,0.591 -0.891,-0.307 h 0.022 c 0.086,0.385 0.338,0.916 1.008,0.916 0.881,0 1.215,-0.834 1.215,-1.626 0,-1.553 -1.026,-1.625 -1.309,-1.625 -0.576,0 -1.412,0.19 -1.412,2.18 0,1.553 0.543,1.936 0.984,2.07 0.686,0.216 0.932,0.037 0.975,0.311 z"
           inkscape:connector-curvature="0" />
      </g>
      <g
         transform="matrix(0.35277777,0,0,-0.35277777,51.883804,47.927345)"
         id="g46"
         style="stroke:none">
        <path
           id="path48"
           style="fill:#61849c;fill-opacity:1;fill-rule:nonzero;stroke:none"
           d="m 0,0 c -0.063,-0.017 -0.08,-0.029 -0.123,-0.042 -0.117,-0.04 -0.195,-0.051 -0.307,-0.076 -0.168,-0.037 -0.386,-0.095 -0.386,-0.433 0,-0.305 0.183,-0.354 0.324,-0.354 0.111,0 0.492,0.104 0.492,0.757 z m -1.531,0.65 c 0.006,0.41 0.189,1.09 1.176,1.09 1.144,0 1.162,-0.793 1.156,-1.131 L 0.785,-0.774 C 0.779,-1.232 0.83,-1.325 0.926,-1.357 V -1.399 H 0.111 l -0.031,0.3 H 0.059 c -0.19,-0.286 -0.514,-0.412 -0.819,-0.412 -0.736,0 -0.892,0.487 -0.892,0.876 0,0.712 0.511,0.897 1.097,0.969 0.418,0.052 0.539,0.06 0.547,0.316 v 0.084 c 0,0.129 -0.019,0.396 -0.347,0.396 -0.137,0 -0.405,-0.036 -0.405,-0.48 z"
           inkscape:connector-curvature="0" />
      </g>
      <g
         transform="matrix(0.35277777,0,0,-0.35277777,52.282055,48.20036)"
         id="g50"
         style="stroke:none">
        <path
           id="path52"
           style="fill:#61849c;fill-opacity:1;fill-rule:nonzero;stroke:none"
           d="m 0,0 c 0.055,-0.018 0.105,-0.022 0.16,-0.022 0.262,0 0.375,0.183 0.391,1.13 L 0.58,2.399 H 2.727 V -0.625 H 1.916 V 1.793 H 1.354 L 1.336,1.114 C 1.314,-0.299 1.061,-0.673 0.322,-0.673 0.213,-0.673 0.105,-0.653 0,-0.632 Z"
           inkscape:connector-curvature="0" />
      </g>
      <g
         transform="matrix(0.35277777,0,0,-0.35277777,53.372773,47.567865)"
         id="g54"
         style="stroke:none">
        <path
           id="path56"
           style="fill:#61849c;fill-opacity:1;fill-rule:nonzero;stroke:none"
           d="M 0,0 V 0.606 H 2.408 V 0 H 1.609 V -2.418 H 0.799 V 0 Z"
           inkscape:connector-curvature="0" />
      </g>
      <g
         transform="matrix(0.35277777,0,0,-0.35277777,54.952018,47.354081)"
         id="g58"
         style="stroke:none">
        <path
           id="path60"
           style="fill:#61849c;fill-opacity:1;fill-rule:nonzero;stroke:none"
           d="M 0,0 H 0.848 V -3.024 H 0.041 v 1.811 L -0.873,-3.024 H -1.719 V 0 h 0.811 v -1.807 z"
           inkscape:connector-curvature="0" />
      </g>
      <g
         transform="matrix(0.35277777,0,0,-0.35277777,55.802283,46.950151)"
         id="g62"
         style="stroke:none">
        <path
           id="path64"
           style="fill:#61849c;fill-opacity:1;fill-rule:nonzero;stroke:none"
           d="M 0,0 C 0,-0.146 0.066,-0.401 0.375,-0.401 0.686,-0.401 0.75,-0.146 0.75,0 H 1.369 C 1.34,-0.299 1.174,-0.822 0.375,-0.822 c -0.799,0 -0.963,0.523 -0.984,0.822 z m 0.813,-1.145 h 0.845 v -3.024 h -0.81 v 1.811 L -0.066,-4.169 H -0.91 v 3.024 h 0.81 v -1.807 z"
           inkscape:connector-curvature="0" />
      </g>
      <g
         transform="matrix(0.35277777,0,0,-0.35277777,57.474521,48.017797)"
         id="g66"
         style="stroke:none">
        <path
           id="path68"
           style="fill:#61849c;fill-opacity:1;fill-rule:nonzero;stroke:none"
           d="m 0,0 c -0.012,-0.262 -0.119,-1.255 -1.238,-1.255 -0.307,0 -1.334,0.041 -1.334,1.618 0,1.484 0.875,1.633 1.375,1.633 0.383,0 1.09,-0.108 1.168,-1.192 h -0.778 c -0.039,0.476 -0.209,0.583 -0.42,0.583 -0.199,0 -0.513,-0.089 -0.513,-0.956 0,-0.472 0.072,-1.079 0.51,-1.079 0.322,0 0.41,0.32 0.429,0.648 z"
           inkscape:connector-curvature="0" />
      </g>
      <g
         transform="matrix(0.35277777,0,0,-0.35277777,58.182157,47.354081)"
         id="g70"
         style="stroke:none">
        <path
           id="path72"
           style="fill:#61849c;fill-opacity:1;fill-rule:nonzero;stroke:none"
           d="M 0,0 H 0.871 L -0.125,-1.416 0.916,-3.024 H 0 l -0.691,1.321 h -0.026 v -1.321 h -0.81 V 0 h 0.81 v -1.213 h 0.026 z"
           inkscape:connector-curvature="0" />
      </g>
      <g
         transform="matrix(0.35277777,0,0,-0.35277777,59.130248,47.927345)"
         id="g74"
         style="stroke:none">
        <path
           id="path76"
           style="fill:#61849c;fill-opacity:1;fill-rule:nonzero;stroke:none"
           d="m 0,0 c -0.061,-0.017 -0.078,-0.029 -0.117,-0.042 -0.119,-0.04 -0.197,-0.051 -0.311,-0.076 -0.168,-0.037 -0.388,-0.095 -0.388,-0.433 0,-0.305 0.187,-0.354 0.328,-0.354 0.109,0 0.488,0.104 0.488,0.757 z m -1.529,0.65 c 0.004,0.41 0.191,1.09 1.179,1.09 1.143,0 1.161,-0.793 1.155,-1.131 L 0.787,-0.774 C 0.781,-1.232 0.836,-1.325 0.928,-1.357 V -1.399 H 0.113 l -0.027,0.3 H 0.063 c -0.192,-0.286 -0.512,-0.412 -0.819,-0.412 -0.736,0 -0.89,0.487 -0.89,0.876 0,0.712 0.513,0.897 1.093,0.969 0.416,0.052 0.543,0.06 0.545,0.316 v 0.084 c 0,0.129 -0.012,0.396 -0.342,0.396 -0.138,0 -0.406,-0.036 -0.406,-0.48 z"
           inkscape:connector-curvature="0" />
      </g>
      <g
         transform="matrix(0.35277777,0,0,-0.35277777,60.018366,47.567865)"
         id="g78"
         style="stroke:none">
        <path
           id="path80"
           style="fill:#61849c;fill-opacity:1;fill-rule:nonzero;stroke:none"
           d="m 0,0 c -0.164,0 -0.412,-0.037 -0.412,-0.383 0,-0.343 0.248,-0.379 0.412,-0.379 H 0.34 V 0 Z m -0.311,-2.418 h -0.892 l 0.633,1.095 c -0.192,0.031 -0.67,0.178 -0.67,0.94 0,0.989 0.76,0.989 0.929,0.989 H 1.15 V -2.418 H 0.34 V -1.37 H 0.176 Z"
           inkscape:connector-curvature="0" />
      </g>
      <g
         transform="matrix(0.35277777,0,0,-0.35277777,52.191109,50.212992)"
         id="g82"
         style="stroke:none">
        <path
           id="path84"
           style="fill:#61849c;fill-opacity:1;fill-rule:nonzero;stroke:none"
           d="m 0,0 c -0.014,-0.265 -0.119,-1.259 -1.24,-1.259 -0.303,0 -1.334,0.045 -1.334,1.62 0,1.484 0.875,1.633 1.375,1.633 0.386,0 1.09,-0.106 1.166,-1.191 h -0.774 c -0.039,0.475 -0.207,0.582 -0.423,0.582 -0.196,0 -0.512,-0.09 -0.512,-0.955 0,-0.472 0.074,-1.081 0.51,-1.081 0.324,0 0.41,0.323 0.431,0.651 z"
           inkscape:connector-curvature="0" />
      </g>
      <g
         transform="matrix(0.35277777,0,0,-0.35277777,52.259336,50.395414)"
         id="g86"
         style="stroke:none">
        <path
           id="path88"
           style="fill:#61849c;fill-opacity:1;fill-rule:nonzero;stroke:none"
           d="m 0,0 c 0.053,-0.019 0.107,-0.027 0.162,-0.027 0.26,0 0.373,0.185 0.393,1.132 L 0.578,2.396 H 2.729 V -0.626 H 1.916 V 1.792 H 1.352 L 1.342,1.111 C 1.314,-0.298 1.063,-0.676 0.32,-0.676 0.215,-0.676 0.107,-0.657 0,-0.633 Z"
           inkscape:connector-curvature="0" />
      </g>
      <g
         transform="matrix(0.35277777,0,0,-0.35277777,53.483016,50.780047)"
         id="g90"
         style="stroke:none">
        <path
           id="path92"
           style="fill:#61849c;fill-opacity:1;fill-rule:nonzero;stroke:none"
           d="m 0,0 c 0.086,-0.055 0.195,-0.072 0.277,-0.072 0.225,0 0.268,0.227 0.315,0.421 L 0.625,0.498 -0.426,3.487 H 0.527 L 1.035,1.559 1.436,3.487 H 2.293 L 1.445,0.302 C 1.34,-0.098 1.229,-0.691 0.557,-0.691 0.371,-0.691 0.158,-0.668 0,-0.63 Z"
           inkscape:connector-curvature="0" />
      </g>
      <g
         transform="matrix(0.35277777,0,0,-0.35277777,54.779087,50.148752)"
         id="g94"
         style="stroke:none">
        <path
           id="path96"
           style="fill:#61849c;fill-opacity:1;fill-rule:nonzero;stroke:none"
           d="m 0,0 h -0.018 l -0.607,-1.326 h -0.916 l 0.986,1.59 -0.922,1.433 h 0.868 L -0.018,0.465 H 0 V 1.697 H 0.809 V 0.465 h 0.019 l 0.59,1.232 H 2.287 L 1.363,0.264 2.344,-1.326 H 1.432 L 0.828,0 H 0.809 V -1.326 H 0 Z"
           inkscape:connector-curvature="0" />
      </g>
      <g
         transform="matrix(0.35277777,0,0,-0.35277777,56.139892,49.724466)"
         id="g98"
         style="stroke:none">
        <path
           id="path100"
           style="fill:#61849c;fill-opacity:1;fill-rule:nonzero;stroke:none"
           d="m 0,0 c -0.275,0 -0.52,-0.231 -0.52,-1.076 0,-0.441 0.075,-0.96 0.52,-0.96 0.445,0 0.516,0.519 0.516,0.96 C 0.516,-0.231 0.27,0 0,0 M 1.201,1.918 C 1.15,0.982 0.467,1.167 -0.152,0.96 -0.459,0.858 -0.838,0.592 -0.891,-0.309 h 0.02 c 0.086,0.388 0.334,0.918 1.006,0.918 0.883,0 1.217,-0.834 1.217,-1.625 0,-1.554 -1.022,-1.628 -1.309,-1.628 -0.58,0 -1.412,0.192 -1.412,2.18 0,1.555 0.541,1.936 0.98,2.074 0.684,0.211 0.936,0.034 0.979,0.308 z"
           inkscape:connector-curvature="0" />
      </g>
      <g
         transform="matrix(0.35277777,0,0,-0.35277777,57.34431,50.122752)"
         id="g102"
         style="stroke:none">
        <path
           id="path104"
           style="fill:#61849c;fill-opacity:1;fill-rule:nonzero;stroke:none"
           d="m 0,0 c -0.061,-0.018 -0.076,-0.031 -0.117,-0.044 -0.121,-0.038 -0.196,-0.052 -0.311,-0.077 -0.166,-0.033 -0.386,-0.093 -0.386,-0.433 0,-0.304 0.185,-0.353 0.326,-0.353 0.109,0 0.488,0.101 0.488,0.759 z m -1.527,0.648 c 0.004,0.409 0.191,1.09 1.175,1.09 1.143,0 1.165,-0.793 1.157,-1.132 L 0.787,-0.773 C 0.781,-1.233 0.836,-1.327 0.932,-1.358 V -1.399 H 0.115 L 0.084,-1.103 H 0.063 c -0.192,-0.285 -0.514,-0.412 -0.817,-0.412 -0.738,0 -0.894,0.49 -0.894,0.877 0,0.714 0.513,0.899 1.097,0.97 0.414,0.053 0.539,0.06 0.547,0.316 V 0.73 c 0,0.131 -0.019,0.399 -0.348,0.399 -0.136,0 -0.402,-0.033 -0.402,-0.481 z"
           inkscape:connector-curvature="0" />
      </g>
      <g
         transform="matrix(0.35277777,0,0,-0.35277777,52.780248,51.880255)"
         id="g106"
         style="stroke:none">
        <path
           id="path108"
           style="fill:#61849c;fill-opacity:1;fill-rule:nonzero;stroke:none"
           d="M 0,0 -0.004,-0.317 C -0.021,-1.13 -0.176,-1.57 -0.295,-1.81 H 0.6 V 0 Z m -1.121,-1.81 c 0.32,0.579 0.373,1.38 0.373,1.859 V 0.608 H 1.408 V -1.81 H 1.807 L 1.77,-3.205 h -0.7 v 0.788 h -1.777 v -0.788 h -0.699 l -0.037,1.395 z"
           inkscape:connector-curvature="0" />
      </g>
      <g
         transform="matrix(0.35277777,0,0,-0.35277777,54.150013,52.19772)"
         id="g110"
         style="stroke:none">
        <path
           id="path112"
           style="fill:#61849c;fill-opacity:1;fill-rule:nonzero;stroke:none"
           d="m 0,0 c 0,0.87 -0.289,1.012 -0.529,1.012 -0.242,0 -0.53,-0.142 -0.53,-1.012 0,-0.885 0.288,-1.023 0.53,-1.023 C -0.289,-1.023 0,-0.885 0,0 m -1.893,0 c 0,0.936 0.418,1.621 1.364,1.621 0.947,0 1.361,-0.685 1.361,-1.621 0,-0.944 -0.42,-1.63 -1.361,-1.63 -0.94,0 -1.364,0.686 -1.364,1.63"
           inkscape:connector-curvature="0" />
      </g>
      <g
         transform="matrix(0.35277777,0,0,-0.35277777,55.477058,52.330188)"
         id="g114"
         style="stroke:none">
        <path
           id="path116"
           style="fill:#61849c;fill-opacity:1;fill-rule:nonzero;stroke:none"
           d="m 0,0 c -0.012,-0.262 -0.117,-1.254 -1.238,-1.254 -0.303,0 -1.332,0.041 -1.332,1.62 0,1.481 0.873,1.63 1.375,1.63 0.384,0 1.088,-0.107 1.166,-1.191 h -0.776 c -0.041,0.477 -0.207,0.582 -0.425,0.582 -0.192,0 -0.51,-0.088 -0.51,-0.956 0,-0.472 0.074,-1.079 0.51,-1.079 0.324,0 0.406,0.322 0.433,0.648 z"
           inkscape:connector-curvature="0" />
      </g>
      <g
         transform="matrix(0.35277777,0,0,-0.35277777,55.546661,51.880255)"
         id="g118"
         style="stroke:none">
        <path
           id="path120"
           style="fill:#61849c;fill-opacity:1;fill-rule:nonzero;stroke:none"
           d="M 0,0 V 0.608 H 2.404 V 0 H 1.607 V -2.417 H 0.795 V 0 Z"
           inkscape:connector-curvature="0" />
      </g>
      <g
         transform="matrix(0.35277777,0,0,-0.35277777,57.070061,52.239418)"
         id="g122"
         style="stroke:none">
        <path
           id="path124"
           style="fill:#61849c;fill-opacity:1;fill-rule:nonzero;stroke:none"
           d="m 0,0 c -0.059,-0.018 -0.078,-0.03 -0.119,-0.042 -0.115,-0.04 -0.195,-0.055 -0.309,-0.079 -0.166,-0.033 -0.386,-0.092 -0.386,-0.431 0,-0.305 0.183,-0.353 0.328,-0.353 0.105,0 0.486,0.101 0.486,0.757 z m -1.527,0.649 c 0.006,0.409 0.189,1.09 1.175,1.09 1.143,0 1.166,-0.792 1.159,-1.131 L 0.785,-0.772 C 0.779,-1.231 0.834,-1.328 0.932,-1.358 v -0.04 H 0.115 L 0.086,-1.101 H 0.061 c -0.19,-0.285 -0.514,-0.411 -0.817,-0.411 -0.738,0 -0.892,0.489 -0.892,0.874 0,0.716 0.513,0.901 1.095,0.973 0.418,0.051 0.543,0.059 0.551,0.314 v 0.085 c 0,0.129 -0.019,0.396 -0.35,0.396 -0.134,0 -0.404,-0.034 -0.404,-0.481 z"
           inkscape:connector-curvature="0" />
      </g>
      <g
         transform="matrix(0.35277777,0,0,-0.35277777,57.85485,52.518783)"
         id="g126"
         style="stroke:none">
        <path
           id="path128"
           style="fill:#61849c;fill-opacity:1;fill-rule:nonzero;stroke:none"
           d="m 0,0 h 0.354 c 0.318,0 0.421,0.095 0.421,0.311 0,0.272 -0.146,0.357 -0.433,0.357 L 0,0.668 Z m 0,1.235 h 0.338 c 0.213,0 0.35,0.062 0.35,0.291 0,0.259 -0.157,0.284 -0.342,0.284 H 0 Z M 0.557,2.418 C 0.99,2.418 1.494,2.381 1.494,1.683 1.494,1.195 1.191,1.031 0.965,0.984 V 0.953 C 1.551,0.829 1.584,0.411 1.584,0.167 c 0,-0.44 -0.207,-0.773 -1.027,-0.773 h -1.364 v 3.024 z"
           inkscape:connector-curvature="0" />
      </g>
      <g
         transform="matrix(0.35277777,0,0,-0.35277777,59.121957,51.665802)"
         id="g130"
         style="stroke:none">
        <path
           id="path132"
           style="fill:#61849c;fill-opacity:1;fill-rule:nonzero;stroke:none"
           d="M 0,0 H 0.871 L -0.125,-1.419 0.914,-3.024 H 0 l -0.691,1.322 H -0.715 V -3.024 H -1.523 V 0 h 0.808 v -1.216 h 0.024 z"
           inkscape:connector-curvature="0" />
      </g>
      <g
         transform="matrix(0.35277777,0,0,-0.35277777,60.124481,51.665802)"
         id="g134"
         style="stroke:none">
        <path
           id="path136"
           style="fill:#61849c;fill-opacity:1;fill-rule:nonzero;stroke:none"
           d="M 0,0 H 0.85 V -3.024 H 0.037 v 1.808 L -0.871,-3.024 H -1.717 V 0 h 0.809 v -1.812 z"
           inkscape:connector-curvature="0" />
      </g>
      <g
         transform="matrix(0.35277777,0,0,-0.35277777,46.14291,51.41413)"
         id="g138"
         style="stroke:none">
        <path
           id="path140"
           style="fill:#ef2f2c;fill-opacity:1;fill-rule:nonzero;stroke:none"
           d="m 0,0 2.463,6.682 c 0.043,0.132 0.107,0.395 0.24,0.395 0.131,0 0.195,-0.263 0.242,-0.395 L 5.406,0 Z M -22.076,0.286 C -22.383,0 -22.932,0 -23.217,0 h -2.926 c -0.703,0 -1.056,-0.066 -1.056,1.011 v 1.362 h 3.982 c 0.285,0 0.768,0 1.098,-0.265 0.33,-0.24 0.33,-0.524 0.33,-0.877 0,-0.264 0,-0.683 -0.287,-0.945 M 11.912,0 H 10.375 L 6.242,10 C 5.934,10.77 5.295,11.737 2.703,11.737 0.109,11.737 -0.529,10.77 -0.838,10 L -4.99,0 h -0.209 -1.309 -2.959 c -1.648,0 -3.072,0 -3.734,1.21 -0.129,0.265 -0.375,0.833 -0.375,2.548 0,0.747 0.066,2 0.508,2.771 0.677,1.23 1.89,1.208 3.517,1.208 h 5.322 l 1.731,3.826 h -9.451 c -1.737,0 -3.977,-0.199 -5.383,-2.003 -0.834,-1.049 -1.174,-2.416 -1.291,-4.133 -0.414,0.171 -0.904,0.287 -1.473,0.287 h -7.103 v 1.1 c 0,0.573 0.025,0.923 0.947,0.923 h 5.541 l 1.734,3.826 h -10.791 c -0.55,0 -2.394,-0.133 -2.394,-2.463 V -1.67 c 0,-1.254 0.877,-2.155 2.152,-2.155 h 9.957 c 1.518,0 2.309,0.924 2.508,1.186 0.145,0.189 0.248,0.406 0.35,0.625 1.242,-1.486 2.832,-1.811 5.181,-1.811 h 5.506 1.309 18.326 z"
           inkscape:connector-curvature="0" />
      </g>
      <g
         transform="matrix(0.35277777,0,0,-0.35277777,40.783722,40.621318)"
         id="g142"
         style="stroke:none">
        <path
           id="path144"
           style="fill:#61849c;fill-opacity:1;fill-rule:nonzero;stroke:none"
           d="m 0,0 c -0.031,-0.032 -0.068,-0.059 -0.102,-0.089 l -3.193,-3.035 0.617,-2.471 0.291,0.282 0.028,-0.026 c 0.048,0.02 0.111,0.014 0.16,-0.035 l 0.428,-0.437 c 0.044,-0.048 0.048,-0.111 0.027,-0.161 l 0.027,-0.027 -0.689,-0.676 1.181,-4.735 -0.785,-0.575 -1.162,2.353 c -0.187,-0.156 -0.33,-0.244 -0.361,-0.214 -0.03,0.033 0.082,0.196 0.265,0.404 l -0.691,1.401 C -4.078,-8.13 -4.16,-8.173 -4.184,-8.15 c -0.025,0.024 0.036,0.126 0.147,0.264 l -1.279,2.587 -2.491,-2.113 -0.511,-0.49 0.187,-2.651 -0.287,-0.236 -0.715,2.053 0.672,0.698 -0.023,-0.018 c -0.272,-0.267 -1.506,-1.277 -1.772,-1.004 -0.265,0.272 0.752,1.494 1.027,1.762 l -0.691,-0.634 -2.035,0.761 0.242,0.287 2.643,-0.253 0.509,0.51 2.166,2.432 -2.55,1.339 c -0.145,-0.108 -0.25,-0.166 -0.272,-0.14 -0.019,0.021 0.022,0.106 0.112,0.221 l -1.383,0.725 c -0.211,-0.181 -0.377,-0.29 -0.41,-0.255 -0.03,0.03 0.062,0.171 0.222,0.355 l -2.322,1.217 0.594,0.771 4.703,-1.293 0.674,0.656 0.029,-0.025 c 0.049,0.023 0.111,0.016 0.156,-0.033 l 0.432,-0.437 c 0.045,-0.051 0.049,-0.112 0.027,-0.162 l 0.026,-0.03 -0.272,-0.264 2.457,-0.676 3.108,3.12 c 0,0 0.003,0.002 0.005,0.002 0.028,0.033 0.055,0.066 0.09,0.099 0.475,0.463 1.526,1.054 1.793,0.78 C 1.092,1.501 0.479,0.465 0,0 m -5,7.755 c -6.211,0 -11.393,-4.693 -12.061,-10.729 h -0.007 v -13.407 h 13.41 v 0.006 C 2.377,-15.709 7.07,-10.527 7.07,-4.313 7.07,2.353 1.668,7.755 -5,7.755"
           inkscape:connector-curvature="0" />
      </g>
      <g
         transform="matrix(0.35277777,0,0,-0.35277777,29.344621,50.038332)"
         id="g146"
         style="stroke:none">
        <path
           id="path148"
           style="fill:#61849c;fill-opacity:1;fill-rule:nonzero;stroke:none"
           d="m 0,0 c 0,0 -0.771,-0.027 -2.535,-0.322 l -1.61,-0.289 c 0,0 -0.158,0.006 -0.25,-0.112 -0.044,-0.056 -0.144,0.008 -0.162,-0.143 -0.027,-0.292 -0.297,-1.288 -0.297,-1.288 l 3.969,0.477 0.668,1.26 z"
           inkscape:connector-curvature="0" />
      </g>
      <g
         transform="matrix(0.35277777,0,0,-0.35277777,28.233935,51.552454)"
         id="g150"
         style="stroke:none">
        <path
           id="path152"
           style="fill:#61849c;fill-opacity:1;fill-rule:nonzero;stroke:none"
           d="M 0,0 C 0.01,-0.211 -0.092,-0.565 -0.037,-0.734 0.6,-0.74 1.131,-0.665 1.766,-0.673 1.768,-0.438 1.973,-0.134 1.881,0.037 1.27,0.101 0.582,0.035 0,0"
           inkscape:connector-curvature="0" />
      </g>
      <g
         transform="matrix(0.35277777,0,0,-0.35277777,29.624374,49.992683)"
         id="g154"
         style="stroke:none">
        <path
           id="path156"
           style="fill:#61849c;fill-opacity:1;fill-rule:nonzero;stroke:none"
           d="M 0,0 C -0.012,-0.443 0.984,-0.988 1.014,-1.357 1.098,-2.353 1.068,-3.136 1.252,-4.043 1.316,-4.077 1.438,-3.598 1.338,-0.607 1.162,-0.516 0.193,-0.079 0,0"
           inkscape:connector-curvature="0" />
      </g>
      <g
         transform="matrix(0.35277777,0,0,-0.35277777,32.381826,52.666244)"
         id="g158"
         style="stroke:none">
        <path
           id="path160"
           style="fill:#61849c;fill-opacity:1;fill-rule:nonzero;stroke:none"
           d="M 0,0 C -0.539,-0.048 -1.098,-0.103 -1.695,-0.157 -1.832,-0.17 -2.299,-0.166 -2.4,-0.16 c -0.278,0.018 -0.418,0.51 -0.418,0.51 0,0 -0.202,-0.553 -0.594,-0.606 -0.127,-0.019 -0.307,0.009 -0.379,0.145 -0.037,0.069 -0.098,0.066 -0.084,0.133 -0.074,-0.139 -0.123,-0.286 -0.35,-0.313 -0.402,-0.018 -1.33,-0.06 -1.33,-0.06 -0.232,0.069 -0.252,0.423 -0.433,0.525 -0.576,-0.041 -1.082,-0.155 -1.664,-0.19 -0.198,-0.205 -0.33,-0.597 -0.715,-0.668 -0.164,-0.032 -0.805,0.031 -1.065,0.04 -0.826,0.03 -0.886,0.571 -1.029,0.852 -0.967,0.011 -1.566,0.011 -2.529,0.021 -0.188,-0.213 -0.207,-0.655 -0.582,-0.722 -0.123,-0.024 -0.783,-0.003 -1.014,0.063 -0.271,0.081 -0.369,0.458 -0.512,0.631 -0.338,0.086 -0.634,0.004 -0.884,0.114 -0.411,0.183 -0.448,0.832 -0.295,1.306 -0.014,0.099 -0.096,0.128 -0.112,0.221 l -0.025,0.019 c -0.008,0.237 0.01,0.784 0.027,0.981 0.02,0.189 0.463,0.244 0.647,0.387 0.072,0.478 0.152,0.665 0.275,1.095 0.301,0.436 1.051,0.697 1.623,0.861 0.356,0.801 0.225,2.104 1.299,2.171 0.045,0.264 0.135,0.476 0.242,0.674 0.549,0.407 1.639,0.536 2.483,0.727 0.316,0.072 0.65,0.156 0.968,0.222 0.342,0.075 0.723,0.196 0.989,0.196 0.162,0 0.468,0.032 0.689,0 0.809,-0.113 1.463,-0.838 1.459,-0.74 0.111,0.029 0.102,0.366 0.221,0.255 1.859,-1.745 3.513,-3.202 5.34,-4.881 C -0.125,2.954 -0.078,1.535 -0.051,0.81 0.154,0.824 0.084,0.796 0.098,0.693 0.01,0.683 -0.406,0.753 -0.41,0.696 -0.518,0.649 -0.514,0.467 -0.504,0.298 -0.352,0.29 -0.361,0.302 -0.18,0.29 -0.133,0.409 -0.156,0.595 -0.021,0.625 0.188,0.55 0.111,0.118 0,0 M -9.547,15.013 V 15.006 C -15.58,14.34 -20.275,9.155 -20.275,2.944 c 0,-6.673 5.4,-12.08 12.068,-12.08 6.211,0 11.396,4.698 12.064,10.737 h 0.006 v 13.412 z"
           inkscape:connector-curvature="0" />
      </g>
      <g
         transform="matrix(0.35277777,0,0,-0.35277777,29.465906,49.886744)"
         id="g162"
         style="stroke:none">
        <path
           id="path164"
           style="fill:#61849c;fill-opacity:1;fill-rule:nonzero;stroke:none"
           d="M 0,0 C 0.279,0.406 0.383,0.482 0.664,0.889 -0.119,0.744 -0.6,0.381 -1.094,-0.06 -0.736,0.049 -0.25,0.089 0,0"
           inkscape:connector-curvature="0" />
      </g>
      <g
         transform="matrix(0.35277777,0,0,-0.35277777,29.347373,50.910646)"
         id="g166"
         style="stroke:none">
        <path
           id="path168"
           style="fill:#61849c;fill-opacity:1;fill-rule:nonzero;stroke:none"
           d="M 0,0 C 0.275,-0.33 0.828,-0.153 0.918,0.523 0.93,0.631 0.986,1.328 0.84,1.392 0.721,1.365 0.809,0.833 0.773,0.591 0.691,-0.066 0.094,0.436 0,0"
           inkscape:connector-curvature="0" />
      </g>
      <g
         transform="matrix(0.35277777,0,0,-0.35277777,26.948907,51.956208)"
         id="g170"
         style="stroke:none">
        <path
           id="path172"
           style="fill:#61849c;fill-opacity:1;fill-rule:nonzero;stroke:none"
           d="M 0,0 2.963,0.202 3.361,2.568 0.299,2.161 Z"
           inkscape:connector-curvature="0" />
      </g>
      <g
         transform="matrix(0.35277777,0,0,-0.35277777,29.416976,52.561857)"
         id="g174"
         style="stroke:none">
        <path
           id="path176"
           style="fill:#61849c;fill-opacity:1;fill-rule:nonzero;stroke:none"
           d="m 0,0 c -0.176,0.002 -0.314,0.271 -0.313,0.601 0.006,0.328 0.153,0.592 0.327,0.59 0.172,0 0.312,-0.271 0.308,-0.597 C 0.316,0.264 0.174,-0.002 0,0 M 0.006,2.477 C -0.52,2.558 -0.863,2.028 -0.941,1.619 -1.09,0.857 -1.117,0.259 -0.809,-0.353 -0.516,-0.938 0.129,-0.995 0.465,-0.471 0.684,-0.122 0.785,0.337 0.791,0.802 0.799,1.451 0.586,2.385 0.006,2.477"
           inkscape:connector-curvature="0" />
      </g>
      <g
         transform="matrix(0.35277777,0,0,-0.35277777,31.137437,51.994979)"
         id="g178"
         style="stroke:none">
        <path
           id="path180"
           style="fill:#61849c;fill-opacity:1;fill-rule:nonzero;stroke:none"
           d="m 0,0 c -0.494,0.047 -1.248,0.165 -1.781,0.165 -0.217,-0.133 0.65,-0.089 0.877,-0.169 -0.114,-0.223 -0.237,-0.585 -0.272,-0.908 -0.006,-0.064 -0.095,-0.282 0.049,-0.286 0.008,0.39 0.09,1.191 0.535,1.165 0.358,-0.021 0.352,-0.634 0.389,-1.116 0,-0.153 0,-0.194 0.09,-0.166 0.002,0.374 0.101,0.989 0.457,0.96 C 0.701,-0.388 0.586,-0.958 0.693,-1.297 0.707,-0.589 0.73,-0.069 0,0"
           inkscape:connector-curvature="0" />
      </g>
      <g
         transform="matrix(0.35277777,0,0,-0.35277777,29.948894,49.62597)"
         id="g182"
         style="stroke:none">
        <path
           id="path184"
           style="fill:#61849c;fill-opacity:1;fill-rule:nonzero;stroke:none"
           d="M 0,0 C 0.6,-0.271 0.738,-0.799 0.738,-1.646 0.738,-3.052 0.76,-5.519 0.781,-6.16 1.143,-6.201 1.184,-6.212 1.188,-6.214 1.164,-1.295 1.496,-0.669 0,0"
           inkscape:connector-curvature="0" />
      </g>
      <g
         transform="matrix(0.35277777,0,0,-0.35277777,32.365986,52.47331)"
         id="g186"
         style="stroke:none">
        <path
           id="path188"
           style="fill:#61849c;fill-opacity:1;fill-rule:nonzero;stroke:none"
           d="M 0,0 C -0.07,-0.071 -0.088,-0.379 0.018,-0.417 0.166,-0.386 0.143,-0.102 0.076,0 0.051,0 0.016,0.017 0,0"
           inkscape:connector-curvature="0" />
      </g>
      <g
         transform="matrix(0.35277777,0,0,-0.35277777,26.662981,51.724363)"
         id="g190"
         style="stroke:none">
        <path
           id="path192"
           style="fill:#61849c;fill-opacity:1;fill-rule:nonzero;stroke:none"
           d="m 0,0 c -0.008,-0.031 -0.018,-0.061 -0.02,-0.095 -0.009,-0.195 -0.017,-0.392 -0.013,-0.589 0.193,0.03 0.433,0.066 0.498,0.131 0.066,0.199 0.056,0.449 0.066,0.67 C 0.395,0.159 0.152,0.028 0,0"
           inkscape:connector-curvature="0" />
      </g>
      <g
         transform="matrix(0.35277777,0,0,-0.35277777,31.563276,52.335162)"
         id="g194"
         style="stroke:none">
        <path
           id="path196"
           style="fill:#61849c;fill-opacity:1;fill-rule:nonzero;stroke:none"
           d="m 0,0 c -0.096,-0.118 -0.096,-0.408 -0.096,-0.629 0.323,-0.017 0.205,-0.002 0.545,-0.002 -0.008,0.262 0.033,0.477 0.24,0.518 0.223,-0.038 0.063,-0.454 0.229,-0.549 0.002,0.234 0.055,0.463 0.211,0.438 0.195,-0.027 0.059,-0.282 0.18,-0.443 -0.004,0.198 0.033,0.351 0.187,0.389 0.131,-0.041 0.082,-0.26 0.15,-0.368 0.02,0.183 -0.019,0.402 -0.093,0.492 C 0.969,-0.069 0.123,0.14 0,0"
           inkscape:connector-curvature="0" />
      </g>
      <g
         transform="matrix(0.35277777,0,0,-0.35277777,31.217377,52.301402)"
         id="g198"
         style="stroke:none">
        <path
           id="path200"
           style="fill:#61849c;fill-opacity:1;fill-rule:nonzero;stroke:none"
           d="m 0,0 c -0.07,0 -0.129,-0.13 -0.129,-0.293 0,-0.161 0.059,-0.292 0.129,-0.292 0.072,0 0.129,0.131 0.129,0.292 C 0.129,-0.13 0.072,0 0,0"
           inkscape:connector-curvature="0" />
      </g>
      <g
         transform="matrix(0.35277777,0,0,-0.35277777,30.919033,52.266265)"
         id="g202"
         style="stroke:none">
        <path
           id="path204"
           style="fill:#61849c;fill-opacity:1;fill-rule:nonzero;stroke:none"
           d="m 0,0 c -0.084,0 -0.154,-0.16 -0.154,-0.355 0,-0.195 0.07,-0.353 0.154,-0.353 0.084,0 0.154,0.158 0.154,0.353 C 0.154,-0.16 0.084,0 0,0"
           inkscape:connector-curvature="0" />
      </g>
      <g
         transform="matrix(0.35277777,0,0,-0.35277777,32.609191,43.294385)"
         id="g206"
         style="stroke:none">
        <path
           id="path208"
           style="fill:#61849c;fill-opacity:1;fill-rule:nonzero;stroke:none"
           d="m 0,0 c -1.91,1.715 -3.863,3.146 -6.092,4.777 -3.701,2.705 -4.463,2.8 -6.679,2.222 L -13.27,5.858 c 0.122,0.027 0.245,0.052 0.375,0.08 0.928,0.193 1.586,0.241 1.586,0.241 1.09,0.048 2.137,-0.529 6.018,-3.211 1.408,-0.974 2.662,-1.675 3.93,-2.658 0.416,-0.325 0.867,-0.661 1.238,-0.93 -0.014,-0.16 -0.002,-0.683 -0.014,-0.841 -0.377,0.004 -0.654,-0.003 -0.834,0 -0.05,-0.012 -0.199,-0.003 -0.373,0.004 -0.177,0.006 -0.281,-0.133 -0.271,-0.016 l 0.01,0.156 c -0.004,-0.117 -0.155,-0.204 -0.333,-0.197 -0.167,0.009 -0.4,0.103 -0.402,0.215 -1.558,0.049 -3.082,0.051 -4.683,0.132 -0.065,-0.126 -0.311,-0.303 -0.579,-0.29 -0.275,0.011 -0.453,0.278 -0.496,0.412 -0.117,0.006 -0.234,0.01 -0.353,0.017 -0.08,-0.158 -0.387,-0.447 -0.772,-0.429 -0.388,0.018 -0.699,0.731 -0.75,0.9 -0.263,0.015 -0.507,-0.001 -0.775,0.061 l -0.143,-0.869 -4.507,-0.108 -0.645,0.702 0.32,0.585 c -0.205,0.696 -0.048,2.18 0.125,2.956 0.108,0.472 0.52,2.187 0.52,2.188 0.025,0.393 0.558,0.606 1.363,0.799 l 0.49,1.121 c -0.388,-0.106 -0.816,-0.224 -1.31,-0.349 0.25,0.304 1.119,0.894 1.467,1.107 -0.051,0.12 -0.075,0.264 -0.043,0.422 0.074,0.378 0.392,0.668 0.716,0.646 0.317,-0.023 0.51,-0.349 0.436,-0.727 -0.076,-0.38 -0.398,-0.67 -0.715,-0.647 -0.101,0.007 -0.183,0.053 -0.256,0.111 0.061,-0.093 0.143,-0.167 0.256,-0.18 0.309,-0.036 0.58,-0.028 0.836,0.385 0.256,0.412 0.111,0.941 -0.277,1.112 -0.158,0.07 -0.342,0.076 -0.516,0.033 0.338,0.157 0.828,0.05 1.151,-0.268 0.15,-0.145 0.238,-0.317 0.269,-0.482 1.606,0.143 2.551,-0.36 3.449,-0.997 2.76,-1.956 5.51,-4.095 7.825,-6.386 C 0.031,0.456 0.01,0.237 0,0 m 3.215,4.603 c -0.67,6.036 -5.854,10.73 -12.065,10.73 -6.666,0 -12.07,-5.403 -12.07,-12.069 0,-6.214 4.695,-11.396 10.731,-12.062 V -8.804 H 3.219 V 4.603 Z"
           inkscape:connector-curvature="0" />
      </g>
      <path
         id="path210"
         style="fill:#61849c;fill-opacity:1;fill-rule:nonzero;stroke:none;stroke-width:0.35277778"
         d="M 27.433941,43.1356 H 27.8668 v -0.360892 h -0.432859 z"
         inkscape:connector-curvature="0" />
    </g>
  </g>
</svg>
