<?xml version="1.0" encoding="UTF-8" standalone="no"?>
<!-- Created with Inkscape (http://www.inkscape.org/) -->

<svg
   xmlns:dc="http://purl.org/dc/elements/1.1/"
   xmlns:cc="http://creativecommons.org/ns#"
   xmlns:rdf="http://www.w3.org/1999/02/22-rdf-syntax-ns#"
   xmlns:svg="http://www.w3.org/2000/svg"
   xmlns="http://www.w3.org/2000/svg"
   xmlns:sodipodi="http://sodipodi.sourceforge.net/DTD/sodipodi-0.dtd"
   xmlns:inkscape="http://www.inkscape.org/namespaces/inkscape"
   width="64.254562mm"
   height="95.389679mm"
   viewBox="0 0 64.254562 95.389679"
   version="1.1"
   id="svg8"
   inkscape:export-filename="C:\Users\live22h\Desktop\logo.png"
   inkscape:export-xdpi="19.77"
   inkscape:export-ydpi="19.77"
   inkscape:version="0.92.2 (5c3e80d, 2017-08-06)"
   sodipodi:docname="map-icon.svg">
  <defs
     id="defs2" />
  <sodipodi:namedview
     id="base"
     pagecolor="#ffffff"
     bordercolor="#666666"
     borderopacity="1.0"
     inkscape:pageopacity="0.0"
     inkscape:pageshadow="2"
     inkscape:zoom="1.4"
     inkscape:cx="-32.297124"
     inkscape:cy="194.60102"
     inkscape:document-units="mm"
     inkscape:current-layer="layer1"
     showgrid="false"
     fit-margin-top="0"
     fit-margin-left="0"
     fit-margin-right="0"
     fit-margin-bottom="0"
     inkscape:window-width="2560"
     inkscape:window-height="1315"
     inkscape:window-x="-13"
     inkscape:window-y="-13"
     inkscape:window-maximized="1" />
  <metadata
     id="metadata5">
    <rdf:RDF>
      <cc:Work
         rdf:about="">
        <dc:format>image/svg+xml</dc:format>
        <dc:type
           rdf:resource="http://purl.org/dc/dcmitype/StillImage" />
        <dc:title></dc:title>
      </cc:Work>
    </rdf:RDF>
  </metadata>
  <g
     inkscape:label="Layer 1"
     inkscape:groupmode="layer"
     id="layer1"
     transform="translate(-54.377266,-91.51108)">
    <g
       transform="matrix(0.00117332,0,0,0.00117332,-19.40023,89.283475)"
       style="clip-rule:evenodd;fill-rule:evenodd;image-rendering:optimizeQuality;shape-rendering:geometricPrecision;text-rendering:geometricPrecision"
       id="Layer_x0020_1" />
    <g
       id="g886"
       transform="matrix(1.0916017,0,0,1.0916017,126.69356,-1.3800829)"
       style="fill:#982d3a;stroke:none">
      <g
         style="fill:#982d3a;stroke:none;stroke-width:0.13795646;stroke-miterlimit:4;stroke-dasharray:none;stroke-opacity:0.48163267"
         transform="matrix(0.61933443,0,0,-0.61933443,-20.636438,119.73906)"
         id="g138" />
      <g
         style="fill:#982d3a;stroke:none;stroke-width:0.13795646;stroke-miterlimit:4;stroke-dasharray:none;stroke-opacity:0.48163267"
         transform="matrix(0.61933443,0,0,-0.61933443,-30.044995,100.79127)"
         id="g142" />
      <g
         style="fill:#982d3a;stroke:none;stroke-width:0.13795646;stroke-miterlimit:4;stroke-dasharray:none;stroke-opacity:0.48163267"
         transform="matrix(0.61933443,0,0,-0.61933443,-50.127408,117.32372)"
         id="g146" />
      <g
         style="fill:#982d3a;stroke:none;stroke-width:0.13795646;stroke-miterlimit:4;stroke-dasharray:none;stroke-opacity:0.48163267"
         transform="matrix(0.61933443,0,0,-0.61933443,-52.077322,119.9819)"
         id="g150" />
      <g
         style="fill:#982d3a;stroke:none;stroke-width:0.13795646;stroke-miterlimit:4;stroke-dasharray:none;stroke-opacity:0.48163267"
         transform="matrix(0.61933443,0,0,-0.61933443,-49.636276,117.24358)"
         id="g154" />
      <g
         style="fill:#982d3a;stroke:none;stroke-width:0.13795646;stroke-miterlimit:4;stroke-dasharray:none;stroke-opacity:0.48163267"
         transform="matrix(0.61933443,0,0,-0.61933443,-44.79531,121.93726)"
         id="g158" />
      <g
         style="fill:#982d3a;stroke:none;stroke-width:0.13795646;stroke-miterlimit:4;stroke-dasharray:none;stroke-opacity:0.48163267"
         transform="matrix(0.61933443,0,0,-0.61933443,-49.914481,117.05759)"
         id="g162" />
      <g
         style="fill:#982d3a;stroke:none;stroke-width:0.13795646;stroke-miterlimit:4;stroke-dasharray:none;stroke-opacity:0.48163267"
         transform="matrix(0.61933443,0,0,-0.61933443,-50.122577,118.85515)"
         id="g166" />
      <g
         style="fill:#982d3a;stroke:none;stroke-width:0.13795646;stroke-miterlimit:4;stroke-dasharray:none;stroke-opacity:0.48163267"
         transform="matrix(0.61933443,0,0,-0.61933443,-54.333309,120.69073)"
         id="g170" />
      <g
         style="fill:#982d3a;stroke:none;stroke-width:0.13795646;stroke-miterlimit:4;stroke-dasharray:none;stroke-opacity:0.48163267"
         transform="matrix(0.61933443,0,0,-0.61933443,-50.000382,121.754)"
         id="g174" />
      <g
         style="fill:#982d3a;stroke:none;stroke-width:0.13795646;stroke-miterlimit:4;stroke-dasharray:none;stroke-opacity:0.48163267"
         transform="matrix(0.61933443,0,0,-0.61933443,-46.979952,120.75879)"
         id="g178" />
      <g
         style="fill:#982d3a;stroke:none;stroke-width:0.13795646;stroke-miterlimit:4;stroke-dasharray:none;stroke-opacity:0.48163267"
         transform="matrix(0.61933443,0,0,-0.61933443,-49.06655,116.59978)"
         id="g182" />
      <g
         style="fill:#982d3a;stroke:none;stroke-width:0.13795646;stroke-miterlimit:4;stroke-dasharray:none;stroke-opacity:0.48163267"
         transform="matrix(0.61933443,0,0,-0.61933443,-44.823119,121.59855)"
         id="g186" />
      <g
         style="fill:#982d3a;stroke:none;stroke-width:0.13795646;stroke-miterlimit:4;stroke-dasharray:none;stroke-opacity:0.48163267"
         transform="matrix(0.61933443,0,0,-0.61933443,-54.835279,120.2837)"
         id="g190" />
      <g
         style="fill:#982d3a;stroke:none;stroke-width:0.13795646;stroke-miterlimit:4;stroke-dasharray:none;stroke-opacity:0.48163267"
         transform="matrix(0.61933443,0,0,-0.61933443,-46.232352,121.35602)"
         id="g194" />
      <g
         style="fill:#982d3a;stroke:none;stroke-width:0.13795646;stroke-miterlimit:4;stroke-dasharray:none;stroke-opacity:0.48163267"
         transform="matrix(0.61933443,0,0,-0.61933443,-46.83961,121.29675)"
         id="g198" />
      <g
         style="fill:#982d3a;stroke:none;stroke-width:0.13795646;stroke-miterlimit:4;stroke-dasharray:none;stroke-opacity:0.48163267"
         transform="matrix(0.61933443,0,0,-0.61933443,-47.36338,121.23506)"
         id="g202" />
      <g
         style="fill:#982d3a;stroke:none;stroke-width:0.13795646;stroke-miterlimit:4;stroke-dasharray:none;stroke-opacity:0.48163267"
         transform="matrix(0.61933443,0,0,-0.61933443,-44.39615,105.48409)"
         id="g206" />
    </g>
    <path
       id="path952"
       style="opacity:1;fill:#204865;fill-opacity:1;stroke:none;stroke-width:2;stroke-linejoin:round;stroke-miterlimit:4;stroke-dasharray:none;stroke-dashoffset:0;stroke-opacity:1"
       d="m 86.50394,91.51108 c 17.74416,0 32.12789,14.38366 32.12789,32.12661 0,5.17669 -1.22612,10.06474 -3.40028,14.39546 L 86.50394,186.90076 57.776374,138.03315 c -2.172989,-4.33072 -3.399108,-9.21877 -3.399108,-14.39546 0,-17.74295 14.383729,-32.12661 32.126674,-32.12661 z m -18.191189,21.95114 h 0.829536 v -0.69161 h -0.829536 z m 9.917896,0.30431 c -1.291287,-1.15946 -2.611645,-2.12691 -4.118597,-3.22957 -2.502122,-1.82876 -3.017285,-1.89299 -4.515448,-1.50222 l -0.337357,0.77139 c 0.08248,-0.0182 0.165636,-0.0352 0.253524,-0.0541 0.62739,-0.13048 1.072242,-0.16294 1.072242,-0.16294 0.736912,-0.0325 1.444754,0.35764 4.068568,2.17085 0.951902,0.65849 1.799689,1.13242 2.656942,1.79699 0.281243,0.21972 0.586149,0.44688 0.83697,0.62874 -0.0095,0.10817 -0.0014,0.46175 -0.0095,0.56857 -0.254877,-0.003 -0.442147,0.002 -0.563839,0 -0.0338,0.008 -0.134538,0.002 -0.252173,-0.003 -0.119664,-0.004 -0.189975,0.0899 -0.183214,0.0108 l 0.0068,-0.10547 c -0.0027,0.0791 -0.10479,0.13792 -0.22513,0.13318 -0.112903,-0.006 -0.270426,-0.0696 -0.271778,-0.14535 -1.053312,-0.0331 -2.083637,-0.0345 -3.16602,-0.0892 -0.04394,0.0852 -0.210257,0.20485 -0.391442,0.19606 -0.185919,-0.007 -0.306259,-0.18795 -0.335329,-0.27854 -0.0791,-0.004 -0.1582,-0.007 -0.238652,-0.0115 -0.05409,0.10681 -0.261638,0.3022 -0.521923,0.29003 -0.262314,-0.0122 -0.472571,-0.49421 -0.50705,-0.60846 -0.177806,-0.0101 -0.342766,6.7e-4 -0.523952,-0.0412 l -0.09668,0.5875 -3.047032,0.073 -0.436063,-0.4746 0.216341,-0.3955 c -0.138593,-0.47054 -0.03245,-1.47383 0.08451,-1.99846 0.07301,-0.3191 0.351554,-1.47855 0.351554,-1.47923 0.0169,-0.26569 0.377245,-0.4097 0.921479,-0.54018 l 0.331273,-0.75787 c -0.262314,0.0717 -0.551671,0.15144 -0.885648,0.23595 0.169017,-0.20552 0.756519,-0.6044 0.99179,-0.7484 -0.03448,-0.0811 -0.0507,-0.17849 -0.02907,-0.2853 0.05003,-0.25556 0.265018,-0.45162 0.484064,-0.43674 0.214313,0.0155 0.344794,0.23594 0.294765,0.4915 -0.05138,0.2569 -0.269075,0.45296 -0.483388,0.43741 -0.06828,-0.005 -0.12372,-0.0358 -0.173073,-0.075 0.04124,0.0629 0.09668,0.1129 0.173073,0.12169 0.208905,0.0243 0.392119,0.0189 0.565192,-0.26029 0.173073,-0.27853 0.07504,-0.63617 -0.187271,-0.75178 -0.106818,-0.0473 -0.231214,-0.0514 -0.34885,-0.0223 0.22851,-0.10614 0.559783,-0.0338 0.778153,0.18118 0.10141,0.098 0.160903,0.21432 0.181861,0.32587 1.085763,-0.0967 1.724646,0.24338 2.331754,0.67404 1.865943,1.32238 3.725126,2.76849 5.29022,4.31736 -0.02163,0.13656 -0.03583,0.28462 -0.04259,0.44485 m 2.173554,-3.11194 c -0.452965,-4.08073 -3.957693,-7.25419 -8.156742,-7.25419 -4.50666,0 -8.160123,3.65279 -8.160123,8.15945 0,4.20108 3.174132,7.70445 7.254869,8.15471 v 0.004 h 9.0647 v -9.06403 z m -5.412587,20.30572 c -0.05679,0 -0.104114,0.10818 -0.104114,0.24001 0,0.13183 0.04732,0.23865 0.104114,0.23865 0.05679,0 0.104114,-0.10682 0.104114,-0.23865 0,-0.13183 -0.04733,-0.24001 -0.104114,-0.24001 m 0.571748,0.0674 c -0.04733,0 -0.08721,0.0879 -0.08721,0.19808 0,0.10885 0.03989,0.19741 0.08721,0.19741 0.04868,0 0.08721,-0.0886 0.08721,-0.19741 0,-0.1102 -0.03854,-0.19808 -0.08721,-0.19808 m 0.662884,0.0647 c -0.0649,0.0798 -0.0649,0.27584 -0.0649,0.42525 0.218369,0.0115 0.138593,0.001 0.368456,0.001 -0.0054,-0.17713 0.02231,-0.32248 0.162256,-0.3502 0.150763,0.0257 0.04259,0.30693 0.154819,0.37116 0.0014,-0.1582 0.03718,-0.31302 0.14265,-0.29612 0.131833,0.0183 0.03989,0.19065 0.121692,0.2995 -0.0027,-0.13386 0.02231,-0.2373 0.126424,-0.26299 0.08857,0.0277 0.05544,0.17578 0.10141,0.24879 0.01352,-0.12372 -0.01284,-0.27177 -0.06287,-0.33262 -0.394823,-0.0575 -0.966775,-0.19876 -1.049931,-0.10412 m -9.39097,-1.17054 c -0.0054,0.021 -0.01217,0.0412 -0.01352,0.0642 -0.0061,0.13184 -0.01149,0.26502 -0.0088,0.39821 0.130481,-0.0203 0.292737,-0.0446 0.336681,-0.0886 0.04462,-0.13453 0.03786,-0.30355 0.04462,-0.45296 -0.09195,-0.0284 -0.25623,0.0602 -0.358992,0.0791 m 10.929291,1.43529 c -0.04733,0.048 -0.05949,0.25623 0.01217,0.28192 0.100058,-0.021 0.08451,-0.21296 0.03921,-0.28192 -0.0169,0 -0.04056,-0.0115 -0.05138,0 m -4.632136,-5.45666 c 0.40564,0.18321 0.498937,0.54017 0.498937,1.1128 0,0.95055 0.01487,2.61841 0.02907,3.05176 0.244736,0.0277 0.272454,0.0352 0.275159,0.0365 -0.01623,-3.32557 0.208228,-3.74879 -0.803167,-4.20107 m 2.277734,4.53998 c -0.333977,-0.0318 -0.843731,-0.11155 -1.204075,-0.11155 -0.146706,0.0899 0.439443,0.0602 0.59291,0.11425 -0.07707,0.15076 -0.160227,0.3955 -0.18389,0.61387 -0.0041,0.0433 -0.06423,0.19065 0.03313,0.19336 0.0054,-0.26367 0.06085,-0.8052 0.361695,-0.78762 0.242032,0.0142 0.237976,0.42862 0.26299,0.75449 0,0.10344 0,0.13115 0.06085,0.11223 0.0014,-0.25285 0.06828,-0.66863 0.308962,-0.64903 0.241356,0.0223 0.163609,0.40767 0.235948,0.63686 0.0095,-0.47866 0.02501,-0.83021 -0.468514,-0.87686 m -3.297107,1.08637 c -0.118988,-10e-4 -0.212285,-0.18321 -0.211609,-0.40632 0.0041,-0.22175 0.103438,-0.40023 0.221074,-0.39887 0.116283,0 0.210933,0.18321 0.208228,0.40361 -0.0041,0.2231 -0.100057,0.40293 -0.217693,0.40158 m 0.0041,-1.67462 c -0.355611,-0.0548 -0.587501,0.30356 -0.640235,0.58007 -0.100733,0.51516 -0.118987,0.91945 0.08924,1.3332 0.198088,0.3955 0.634151,0.43404 0.861309,0.0798 0.148059,-0.23595 0.216341,-0.54626 0.220398,-0.86063 0.0054,-0.43877 -0.138594,-1.07022 -0.530713,-1.13242 m -4.733886,0.51395 2.003185,-0.13656 0.269074,-1.59958 -2.070116,0.27516 z m 4.596442,-2.00372 c 0.185918,0.2231 0.559783,0.10344 0.620629,-0.35358 0.0081,-0.073 0.04597,-0.54424 -0.05273,-0.5875 -0.08045,0.0183 -0.02096,0.37792 -0.0453,0.54153 -0.05544,0.44417 -0.459049,0.10479 -0.522599,0.39955 m 0.227158,-1.96222 c 0.188622,-0.27448 0.258933,-0.32586 0.448908,-0.60102 -0.52936,0.098 -0.854548,0.34344 -1.188525,0.64159 0.242032,-0.0737 0.5706,-0.10074 0.739617,-0.0406 m 5.588095,5.32666 c -0.364399,0.0324 -0.742321,0.0696 -1.145932,0.10614 -0.09262,0.009 -0.408344,0.006 -0.476627,0.002 -0.187947,-0.0122 -0.282596,-0.3448 -0.282596,-0.3448 0,0 -0.136565,0.37387 -0.401584,0.4097 -0.08586,0.0128 -0.207552,-0.006 -0.256229,-0.098 -0.02501,-0.0466 -0.06625,-0.0446 -0.05679,-0.0899 -0.05003,0.094 -0.08316,0.19336 -0.236624,0.21161 -0.271778,0.0122 -0.899168,0.0406 -0.899168,0.0406 -0.156847,-0.0466 -0.170369,-0.28598 -0.292737,-0.35494 -0.389414,0.0277 -0.731504,0.10479 -1.124975,0.12845 -0.133861,0.1386 -0.223101,0.40362 -0.483387,0.45162 -0.110875,0.0216 -0.544234,-0.021 -0.720011,-0.0271 -0.558431,-0.0203 -0.598995,-0.38603 -0.695672,-0.576 -0.653757,-0.007 -1.058721,-0.007 -1.709773,-0.0142 -0.1271,0.144 -0.139945,0.44282 -0.39347,0.48812 -0.08316,0.0162 -0.52936,0.002 -0.685532,-0.0426 -0.183214,-0.0548 -0.249468,-0.30964 -0.346146,-0.4266 -0.22851,-0.0581 -0.428626,-0.003 -0.597643,-0.0771 -0.277863,-0.12372 -0.302877,-0.56249 -0.199439,-0.88295 -0.0095,-0.0669 -0.0649,-0.0865 -0.07572,-0.14941 l -0.0169,-0.0128 c -0.0054,-0.16023 0.0068,-0.53004 0.01825,-0.66322 0.01352,-0.12778 0.313019,-0.16496 0.437415,-0.26164 0.04868,-0.32316 0.102763,-0.44959 0.185919,-0.74029 0.203496,-0.29477 0.710546,-0.47122 1.097256,-0.5821 0.240679,-0.54153 0.152115,-1.42244 0.87821,-1.46774 0.03042,-0.17848 0.09127,-0.32181 0.163608,-0.45567 0.371161,-0.27516 1.108073,-0.36237 1.678673,-0.4915 0.213637,-0.0487 0.439444,-0.10546 0.654433,-0.15008 0.231215,-0.0507 0.488796,-0.13251 0.66863,-0.13251 0.109522,0 0.316399,-0.0216 0.465809,0 0.546938,0.0764 0.989086,0.56654 0.986381,0.50029 0.07504,-0.0196 0.06896,-0.24744 0.149411,-0.1724 1.256808,1.17974 2.375022,2.16476 3.610195,3.29988 0.01825,0.57804 0.05003,1.53738 0.06828,2.02752 0.138594,-0.009 0.09127,0.009 0.100734,0.0791 -0.05949,0.007 -0.340738,-0.0406 -0.343442,-0.002 -0.07301,0.0318 -0.07031,0.15481 -0.06355,0.26907 0.102762,0.005 0.09668,-0.003 0.219045,0.005 0.03178,-0.0804 0.01623,-0.2062 0.107495,-0.22648 0.141298,0.0507 0.08924,0.34276 0.0142,0.42254 m -6.454407,-10.14979 v 0.005 c -4.078709,0.45026 -7.252841,3.95567 -7.252841,8.15472 0,4.51139 3.650759,8.16688 8.158771,8.16688 4.199049,0 7.704454,-3.17616 8.156066,-7.25893 h 0.0041 v -9.0674 z m 1.170001,5.02616 c -0.0081,0.2995 0.665249,0.66795 0.685531,0.91742 0.05679,0.67336 0.03651,1.20272 0.160904,1.81592 0.04327,0.023 0.125748,-0.30085 0.05814,-2.32297 -0.118988,-0.0615 -0.774096,-0.35696 -0.904577,-0.41037 m -2.66465,2.98915 c 0.0068,0.14265 -0.0622,0.38198 -0.02501,0.49624 0.430655,0.004 0.789646,-0.0466 1.218948,-0.0412 0.0014,-0.15888 0.139946,-0.3644 0.07775,-0.48001 -0.413077,-0.0433 -0.878211,0.001 -1.271681,0.025 m 2.128529,-2.90167 c 0,0 -0.521247,0.0182 -1.713828,0.21769 l -1.088468,0.19539 c 0,0 -0.106818,-0.004 -0.169016,0.0757 -0.02975,0.0379 -0.09735,-0.005 -0.109523,0.0967 -0.01825,0.19741 -0.200792,0.87078 -0.200792,0.87078 l 2.683308,-0.32249 0.451613,-0.85184 z m 21.921996,-18.04685 c -0.02096,0.0216 -0.04597,0.0399 -0.06896,0.0602 l -2.158681,2.05186 0.417133,1.67056 0.196736,-0.19065 0.01893,0.0176 c 0.03245,-0.0135 0.07504,-0.009 0.108171,0.0237 l 0.289357,0.29544 c 0.02975,0.0324 0.03245,0.075 0.01825,0.10885 l 0.01825,0.0183 -0.46581,0.45702 0.798435,3.20118 -0.530712,0.38874 -0.78559,-1.59079 c -0.126424,0.10547 -0.223102,0.16496 -0.24406,0.14468 -0.02028,-0.0223 0.05544,-0.13251 0.179158,-0.27313 l -0.467162,-0.94717 c -0.08045,0.0602 -0.135889,0.0892 -0.152115,0.0737 -0.0169,-0.0162 0.02434,-0.0852 0.09938,-0.17848 l -0.864689,-1.74898 -1.684082,1.42852 -0.34547,0.33128 0.126425,1.79225 -0.194032,0.15955 -0.483387,-1.38796 0.454317,-0.4719 -0.01555,0.0122 c -0.18389,0.18051 -1.018156,0.86334 -1.19799,0.67877 -0.179157,-0.18389 0.508402,-1.01004 0.69432,-1.19123 l -0.467161,0.42863 -1.375796,-0.51449 0.163608,-0.19403 1.786844,0.17105 0.344118,-0.3448 1.46436,-1.64419 -1.72397,-0.90526 c -0.09803,0.073 -0.169016,0.11223 -0.18389,0.0947 -0.01284,-0.0142 0.01487,-0.0717 0.07572,-0.14941 l -0.935,-0.49014 c -0.14265,0.12236 -0.254877,0.19605 -0.277188,0.17239 -0.02028,-0.0203 0.04192,-0.11561 0.150087,-0.24 l -1.569826,-0.82277 0.401583,-0.52125 3.179541,0.87415 0.455669,-0.4435 0.01961,0.0169 c 0.03313,-0.0156 0.07504,-0.0108 0.105466,0.0223 l 0.292061,0.29545 c 0.03042,0.0345 0.03313,0.0757 0.01825,0.10952 l 0.01758,0.0203 -0.183891,0.17848 1.661096,0.45702 2.101215,-2.10932 c 0,0 0.002,-0.001 0.0034,-0.001 0.01893,-0.0223 0.03718,-0.0446 0.06085,-0.0669 0.321132,-0.31302 1.031677,-0.71257 1.212187,-0.52733 0.181186,0.18524 -0.233243,0.88565 -0.557079,1.20002 m -3.380332,-5.2429 c -4.199049,0 -7.702426,3.17278 -8.154038,7.25352 h -0.0047 v 9.06402 h 9.066052 v -0.004 c 4.080061,-0.45026 7.252842,-3.95364 7.252842,-8.15472 0,-4.50666 -3.652112,-8.15877 -8.160123,-8.15877 m 13.65073,25.92634 1.66515,-4.51748 c 0.0291,-0.0892 0.0723,-0.26704 0.16226,-0.26704 0.0886,0 0.13183,0.1778 0.16361,0.26704 l 1.66379,4.51748 z m -14.924845,-0.19336 c -0.207553,0.19336 -0.578713,0.19336 -0.771392,0.19336 h -1.978171 c -0.475275,0 -0.713926,0.0446 -0.713926,-0.6835 v -0.92081 h 2.692097 c 0.192679,0 0.519219,0 0.742321,0.17916 0.223102,0.16226 0.223102,0.35426 0.223102,0.59291 0,0.17848 0,0.46175 -0.194031,0.63888 m 22.978145,0.19336 h -1.03911 l -2.79418,-6.76067 c -0.20823,-0.52057 -0.64024,-1.17432 -2.3926,-1.17432 -1.75372,0 -2.18505,0.65375 -2.39395,1.17432 l -2.80703,6.76067 h -0.1413 -0.884972 -2.000481 c -1.114157,0 -2.076876,0 -2.524432,-0.81804 -0.08721,-0.17916 -0.253525,-0.56317 -0.253525,-1.72262 0,-0.50502 0.04462,-1.35213 0.343442,-1.87338 0.457697,-0.83156 1.277766,-0.81669 2.377726,-0.81669 h 3.598022 l 1.17028,-2.58663 h -6.38951 c -1.174327,0 -2.688716,0.13454 -3.639266,1.35416 -0.563839,0.7092 -0.793702,1.63338 -0.872802,2.79419 -0.279891,-0.11561 -0.611164,-0.19404 -0.995846,-0.19404 h -4.8021 v -0.74367 c 0,-0.38738 0.0169,-0.62401 0.640235,-0.62401 h 3.746085 l 1.172299,-2.58663 h -7.295434 c -0.371836,0 -1.618503,0.0899 -1.618503,1.66515 v 7.28124 c 0,0.84779 0.59291,1.45692 1.454895,1.45692 h 6.731594 c 1.026269,0 1.561038,-0.62468 1.695575,-0.80181 0.09803,-0.12778 0.167665,-0.27448 0.236623,-0.42254 0.839675,1.00463 1.914621,1.22435 3.502701,1.22435 h 3.722422 0.884972 12.38959 z"
       inkscape:connector-curvature="0" />
  </g>
</svg>
