<?xml version="1.0" encoding="UTF-8" standalone="no"?>
<svg
   xmlns:dc="http://purl.org/dc/elements/1.1/"
   xmlns:cc="http://creativecommons.org/ns#"
   xmlns:rdf="http://www.w3.org/1999/02/22-rdf-syntax-ns#"
   xmlns:svg="http://www.w3.org/2000/svg"
   xmlns="http://www.w3.org/2000/svg"
   xmlns:sodipodi="http://sodipodi.sourceforge.net/DTD/sodipodi-0.dtd"
   xmlns:inkscape="http://www.inkscape.org/namespaces/inkscape"
   height="50"
   id="Layer_1"
   version="1.1"
   viewBox="0 0 50 50"
   width="50"
   xml:space="preserve"
   sodipodi:docname="pdf-icon.svg"
   inkscape:version="0.92.3 (2405546, 2018-03-11)"><metadata
     id="metadata32"><rdf:RDF><cc:Work
         rdf:about=""><dc:format>image/svg+xml</dc:format><dc:type
           rdf:resource="http://purl.org/dc/dcmitype/StillImage" /><dc:title></dc:title></cc:Work></rdf:RDF></metadata><defs
     id="defs30" /><sodipodi:namedview
     pagecolor="#ffffff"
     bordercolor="#666666"
     borderopacity="1"
     objecttolerance="10"
     gridtolerance="10"
     guidetolerance="10"
     inkscape:pageopacity="0"
     inkscape:pageshadow="2"
     inkscape:window-width="2560"
     inkscape:window-height="1315"
     id="namedview28"
     showgrid="false"
     fit-margin-top="0"
     fit-margin-left="0"
     fit-margin-right="0"
     fit-margin-bottom="0"
     inkscape:zoom="5.2149125"
     inkscape:cx="-33.406145"
     inkscape:cy="10.049491"
     inkscape:window-x="-13"
     inkscape:window-y="-13"
     inkscape:window-maximized="1"
     inkscape:current-layer="Layer_1" /><polyline
     style="clip-rule:evenodd;fill:#ea4c3a;fill-rule:evenodd"
     points="30.018,28.667 0,28.667 0,0 30.018,0 30.018,28.667 "
     id="polyline2"
     transform="scale(1.6656673,1.7441658)" /><path
     inkscape:connector-curvature="0"
     style="fill:none;stroke:#ffffff;stroke-width:2.69585896;stroke-linejoin:round;stroke-miterlimit:10"
     d="m 25.10207,6.905676 c 0.870378,0.410156 0.68937,0.941625 0.421709,3.452625 -0.273437,2.589951 -1.190029,7.321183 -2.955817,11.975391 -1.767713,4.646507 -4.390398,9.212136 -6.676101,12.591588 -2.283779,3.381378 -4.238276,5.578502 -5.7287,6.847482 -1.4962032,1.26898 -2.5302577,1.607887 -3.2061477,1.719573 -0.670113,0.111687 -0.974361,0 -1.155369,-0.340833 -0.181007,-0.338909 -0.244552,-0.897336 -0.08858,-1.579004 0.152122,-0.673964 0.516064,-1.463467 1.548192,-2.474413 1.0417575,-1.014799 2.7459267,-2.256819 5.1240577,-3.410262 2.378134,-1.155368 5.424454,-2.226009 7.925826,-2.959668 2.501373,-0.729807 4.450093,-1.126484 6.156187,-1.436508 1.709945,-0.311949 3.171485,-0.533395 4.604142,-0.648931 1.432656,-0.107838 2.838354,-0.107838 4.209391,0 1.371037,0.115536 2.711264,0.336982 3.872409,0.621973 1.155368,0.281139 2.133579,0.618122 2.986627,1.157294 0.851121,0.531469 1.584779,1.265128 1.94872,2.085439 0.369718,0.814534 0.369718,1.719573 0.06355,2.364654 -0.304247,0.648932 -0.916591,1.041757 -1.615589,1.270904 -0.700923,0.221446 -1.492351,0.277289 -2.439753,0 C 39.153272,37.857989 38.051821,37.237942 36.896453,36.421481 35.739159,35.603096 34.51832,34.588297 32.935466,33.011221 31.348761,31.434142 29.396188,29.294786 27.751714,27.209347 26.10724,25.123906 24.761236,23.096235 23.84657,21.376662 22.935754,19.657089 22.446649,18.249465 22.049972,16.841842 21.653296,15.430367 21.34905,14.022744 21.227736,12.75569 21.106422,11.488637 21.162266,10.358301 21.285506,9.4551888 21.40682,8.557853 21.593604,7.876186 21.895925,7.423666 c 0.304248,-0.442891 0.733659,-0.673965 1.037906,-0.78565 0.304247,-0.111687 0.489106,-0.111687 0.670114,-0.14057 0.181008,-0.02888 0.362014,-0.08473 0.641229,0 0.265734,0.08088 0.618121,0.296545 0.970509,0.516065"
     stroke-miterlimit="10"
     id="path4" /></svg>