<?xml version="1.0" encoding="UTF-8" standalone="no"?>
<svg
   xmlns:dc="http://purl.org/dc/elements/1.1/"
   xmlns:cc="http://creativecommons.org/ns#"
   xmlns:rdf="http://www.w3.org/1999/02/22-rdf-syntax-ns#"
   xmlns:svg="http://www.w3.org/2000/svg"
   xmlns="http://www.w3.org/2000/svg"
   xmlns:sodipodi="http://sodipodi.sourceforge.net/DTD/sodipodi-0.dtd"
   xmlns:inkscape="http://www.inkscape.org/namespaces/inkscape"
   height="32px"
   id="Layer_1"
   style="enable-background:new 0 0 32 32;"
   version="1.1"
   viewBox="0 0 32 32"
   width="32px"
   xml:space="preserve"
   sodipodi:docname="search.svg"
   inkscape:version="0.92.3 (2405546, 2018-03-11)"><metadata
   id="metadata15"><rdf:RDF><cc:Work
       rdf:about=""><dc:format>image/svg+xml</dc:format><dc:type
         rdf:resource="http://purl.org/dc/dcmitype/StillImage" /><dc:title /></cc:Work></rdf:RDF></metadata><defs
   id="defs13" /><sodipodi:namedview
   pagecolor="#ffffff"
   bordercolor="#666666"
   borderopacity="1"
   objecttolerance="10"
   gridtolerance="10"
   guidetolerance="10"
   inkscape:pageopacity="0"
   inkscape:pageshadow="2"
   inkscape:window-width="2560"
   inkscape:window-height="1315"
   id="namedview11"
   showgrid="false"
   inkscape:zoom="20.85965"
   inkscape:cx="-0.63729012"
   inkscape:cy="12.423573"
   inkscape:window-x="-13"
   inkscape:window-y="-13"
   inkscape:window-maximized="1"
   inkscape:current-layer="Layer_1" /><g
   transform="matrix(0.78915429,0,0,0.78915429,457.9265,152.32637)"
   id="g8"
   style="fill:#ffffff"><path
     d="m -544.88,-165.121 -7.342,-7.342 c -1.095,1.701 -2.541,3.148 -4.242,4.242 l 7.343,7.342 c 1.172,1.172 3.071,1.172 4.241,0 1.173,-1.169 1.173,-3.068 0,-4.242 z"
     id="path2"
     style="fill:#ffffff"
     inkscape:connector-curvature="0" /><path
     d="m -552,-180 c 0,-6.627 -5.373,-12 -12,-12 -6.627,0 -12,5.373 -12,12 0,6.627 5.373,12 12,12 6.627,0 12,-5.373 12,-12 z m -12,9 c -4.964,0 -9,-4.036 -9,-9 0,-4.963 4.036,-9 9,-9 4.963,0 9,4.037 9,9 0,4.964 -4.037,9 -9,9 z"
     id="path4"
     style="fill:#ffffff"
     inkscape:connector-curvature="0" /><path
     d="m -571,-180 h 2 c 0,-2.757 2.242,-5 5,-5 v -2 c -3.86,0 -7,3.142 -7,7 z"
     id="path6"
     style="fill:#ffffff"
     inkscape:connector-curvature="0" /></g><g
   aria-label="Отследить груз"
   style="font-style:normal;font-variant:normal;font-weight:normal;font-stretch:normal;font-size:4.15434361px;line-height:1.25;font-family:Lato;-inkscape-font-specification:Lato;font-variant-ligatures:normal;font-variant-caps:normal;font-variant-numeric:normal;text-align:start;letter-spacing:0px;word-spacing:0px;writing-mode:lr-tb;text-anchor:start;fill:#ffffff;fill-opacity:1;stroke:none;stroke-width:0.14162536"
   id="text817"><path
     d="m 4.2658295,28.798108 q 0,0.340656 -0.1017814,0.618997 -0.1017815,0.276264 -0.2866497,0.473595 -0.1848683,0.195254 -0.4445148,0.303267 -0.2575693,0.105936 -0.5691451,0.105936 -0.3115758,0 -0.5691451,-0.105936 Q 2.0370241,30.085954 1.8521558,29.8907 1.6672876,29.693369 1.5655061,29.417105 1.4637247,29.138764 1.4637247,28.798108 q 0,-0.338579 0.1017814,-0.614843 0.1017815,-0.278341 0.2866497,-0.473595 0.1848683,-0.197332 0.4424376,-0.305344 0.2575693,-0.108013 0.5691451,-0.108013 0.3115758,0 0.5691451,0.108013 0.2596465,0.105935 0.4445148,0.303267 0.1848682,0.197331 0.2866497,0.475672 0.1017814,0.276264 0.1017814,0.614843 z m -0.2201802,0 q 0,-0.307422 -0.085164,-0.552528 -0.085164,-0.245106 -0.2409519,-0.415434 -0.1557879,-0.170328 -0.3738909,-0.259647 -0.2181031,-0.0914 -0.4819039,-0.0914 -0.2617236,0 -0.4798267,0.0914 -0.218103,0.08932 -0.3759681,0.259647 -0.1557879,0.170328 -0.2430291,0.415434 -0.085164,0.245106 -0.085164,0.552528 0,0.309498 0.085164,0.554605 0.087241,0.243029 0.2430291,0.413357 0.1578651,0.170328 0.3759681,0.259646 0.2181031,0.08932 0.4798267,0.08932 0.2638008,0 0.4819039,-0.08932 0.218103,-0.08932 0.3738909,-0.259646 0.1557879,-0.170328 0.2409519,-0.413357 0.085164,-0.245107 0.085164,-0.554605 z"
     style="font-style:normal;font-variant:normal;font-weight:300;font-stretch:normal;font-family:Lato;-inkscape-font-specification:'Lato Light';fill:#ffffff;stroke-width:0.14162536"
     id="path12" /><path
     d="M 6.5009312,28.353593 H 5.6368278 v 1.915152 H 5.4374193 V 28.353593 H 4.5733158 v -0.151634 h 1.9276154 z"
     style="font-style:normal;font-variant:normal;font-weight:300;font-stretch:normal;font-family:Lato;-inkscape-font-specification:'Lato Light';fill:#ffffff;stroke-width:0.14162536"
     id="path14" /><path
     d="m 8.1844793,28.478223 q -0.010386,0.01039 -0.020772,0.0187 -0.00831,0.0062 -0.024926,0.0062 -0.020772,0 -0.056084,-0.027 -0.035312,-0.02908 -0.09555,-0.06232 -0.060238,-0.03323 -0.1516335,-0.06024 -0.089318,-0.02908 -0.218103,-0.02908 -0.1786368,0 -0.3178073,0.06439 -0.1370934,0.06231 -0.2326433,0.180714 -0.09555,0.118399 -0.145402,0.28665 -0.047775,0.168251 -0.047775,0.378045 0,0.218103 0.049852,0.386354 0.051929,0.168251 0.145402,0.284572 0.093473,0.114245 0.2264117,0.174483 0.132939,0.06024 0.2949584,0.06024 0.1495564,0 0.2492606,-0.03531 0.1017815,-0.03531 0.1661738,-0.07686 0.06647,-0.04154 0.1038586,-0.07685 0.037389,-0.03531 0.062315,-0.03531 0.024926,0 0.041543,0.02077 l 0.051929,0.06647 q -0.047775,0.06232 -0.120476,0.116322 -0.072701,0.05401 -0.1640966,0.09347 -0.091395,0.03947 -0.1994085,0.06024 -0.1059357,0.02285 -0.2222574,0.02285 -0.1973313,0 -0.3614279,-0.07062 -0.1620194,-0.0727 -0.2804181,-0.207717 -0.1163217,-0.137094 -0.1827912,-0.334425 -0.064392,-0.197331 -0.064392,-0.448669 0,-0.236798 0.062315,-0.432052 0.062315,-0.195254 0.1827911,-0.336502 0.1204759,-0.141247 0.2928812,-0.218103 0.1744824,-0.07893 0.398817,-0.07893 0.2014857,0 0.3572735,0.06439 0.1557879,0.06439 0.2721095,0.174482 z"
     style="font-style:normal;font-variant:normal;font-weight:300;font-stretch:normal;font-family:Lato;-inkscape-font-specification:'Lato Light';fill:#ffffff;stroke-width:0.14162536"
     id="path16" /><path
     d="m 10.4349,30.268745 h -0.199408 v -1.90892 H 9.4004685 q -0.020772,0.409202 -0.070624,0.712469 -0.047775,0.30119 -0.1142444,0.517216 -0.06647,0.213949 -0.1495564,0.351042 -0.083087,0.137094 -0.1744824,0.216026 -0.089318,0.07893 -0.1827912,0.108013 -0.093473,0.02908 -0.1848683,0.02908 -0.049852,0 -0.087241,-0.0083 -0.037389,-0.0083 -0.037389,-0.02493 v -0.126708 h 0.091396 q 0.074778,0 0.1516335,-0.02908 0.078933,-0.03116 0.1557879,-0.11009 0.076855,-0.07893 0.1474792,-0.216026 0.070624,-0.137093 0.1267075,-0.351042 0.058161,-0.216026 0.099704,-0.517216 0.043621,-0.30119 0.062315,-0.708316 H 10.4349 Z"
     style="font-style:normal;font-variant:normal;font-weight:300;font-stretch:normal;font-family:Lato;-inkscape-font-specification:'Lato Light';fill:#ffffff;stroke-width:0.14162536"
     id="path18" /><path
     d="m 12.569454,29.026597 q 0,-0.166174 -0.04777,-0.297036 -0.0457,-0.132939 -0.130862,-0.224334 -0.08516,-0.0914 -0.203563,-0.139171 -0.116321,-0.04985 -0.257569,-0.04985 -0.159942,0 -0.28665,0.04985 -0.126707,0.04985 -0.22018,0.143325 -0.0914,0.09347 -0.147479,0.224334 -0.05608,0.130862 -0.07478,0.292882 z m -1.379242,0.126707 v 0.03947 q 0,0.232644 0.05401,0.409203 0.05401,0.17656 0.153711,0.297036 0.0997,0.118399 0.240952,0.178637 0.141248,0.06024 0.31573,0.06024 0.155788,0 0.270032,-0.03324 0.114245,-0.03531 0.1911,-0.07686 0.07893,-0.04362 0.12463,-0.07685 0.0457,-0.03531 0.06647,-0.03531 0.027,0 0.04154,0.02077 l 0.05401,0.06647 q -0.04985,0.06232 -0.132939,0.116322 -0.08101,0.05401 -0.182791,0.09347 -0.09971,0.03739 -0.216026,0.06024 -0.114245,0.02285 -0.230566,0.02285 -0.211872,0 -0.386354,-0.0727 -0.174483,-0.07478 -0.299113,-0.216026 -0.12463,-0.141248 -0.193177,-0.344811 -0.06647,-0.20564 -0.06647,-0.469441 0,-0.222257 0.06231,-0.409202 0.06439,-0.189023 0.182791,-0.324039 0.120476,-0.137094 0.292881,-0.213949 0.174483,-0.07686 0.394663,-0.07686 0.174482,0 0.324039,0.06024 0.149556,0.06024 0.259646,0.176559 0.11009,0.114245 0.172405,0.282496 0.06439,0.168251 0.06439,0.386354 0,0.0457 -0.01246,0.06231 -0.01246,0.01662 -0.04154,0.01662 z"
     style="font-style:normal;font-variant:normal;font-weight:300;font-stretch:normal;font-family:Lato;-inkscape-font-specification:'Lato Light';fill:#ffffff;stroke-width:0.14162536"
     id="path20" /><path
     d="m 14.734581,30.121266 v -1.761441 h -0.835023 q -0.02285,0.413357 -0.07062,0.714547 -0.0457,0.30119 -0.11009,0.510984 -0.06231,0.209794 -0.137094,0.338579 -0.0727,0.128785 -0.147479,0.197331 z m 0.571222,-0.0042 v 0.82256 q 0,0.06647 -0.06231,0.06647 h -0.114245 v -0.737396 h -1.979544 v 0.679236 q 0,0.02285 -0.01454,0.03947 -0.01246,0.01869 -0.03947,0.01869 h -0.122553 v -0.884875 h 0.08101 q 0.07478,0 0.147479,-0.03116 0.07478,-0.03116 0.143325,-0.11009 0.07062,-0.08101 0.132939,-0.218103 0.06231,-0.139171 0.112167,-0.351043 0.04985,-0.213948 0.08724,-0.510984 0.03739,-0.297035 0.05608,-0.69793 h 1.194374 v 1.915153 z"
     style="font-style:normal;font-variant:normal;font-weight:300;font-stretch:normal;font-family:Lato;-inkscape-font-specification:'Lato Light';fill:#ffffff;stroke-width:0.14162536"
     id="path22" /><path
     d="m 17.416664,28.201959 v 2.066786 h -0.197331 v -1.665891 q 0,-0.02908 0.0021,-0.06232 0.0021,-0.03323 0.0062,-0.06647 -0.01454,0.02908 -0.02908,0.05401 -0.01246,0.02285 -0.027,0.04154 -0.0042,0.0042 -0.05816,0.07893 -0.05401,0.0727 -0.143324,0.189023 -0.08724,0.116322 -0.199409,0.263801 -0.11009,0.147479 -0.224335,0.30119 -0.270032,0.359351 -0.612765,0.816328 -0.01246,0.01869 -0.03324,0.03531 -0.01869,0.01454 -0.04154,0.01454 h -0.114245 v -2.066786 h 0.199409 v 1.665892 q 0,0.02908 -0.0021,0.06231 -0.0021,0.03324 -0.0062,0.06647 0.01246,-0.02908 0.027,-0.05193 0.01454,-0.02493 0.027,-0.04362 0.0021,-0.0042 0.05608,-0.07685 0.05608,-0.0727 0.143325,-0.189023 0.08932,-0.118399 0.199408,-0.265878 0.110091,-0.147479 0.226412,-0.30119 0.270033,-0.359351 0.612766,-0.814251 0.01246,-0.02077 0.03116,-0.03531 0.02077,-0.01662 0.04362,-0.01662 z"
     style="font-style:normal;font-variant:normal;font-weight:300;font-stretch:normal;font-family:Lato;-inkscape-font-specification:'Lato Light';fill:#ffffff;stroke-width:0.14162536"
     id="path24" /><path
     d="m 19.751016,28.353593 h -0.864103 v 1.915152 h -0.199409 v -1.915152 h -0.864103 v -0.151634 h 1.927615 z"
     style="font-style:normal;font-variant:normal;font-weight:300;font-stretch:normal;font-family:Lato;-inkscape-font-specification:'Lato Light';fill:#ffffff;stroke-width:0.14162536"
     id="path26" /><path
     d="m 20.889696,30.121266 q 0.141247,0 0.245106,-0.03323 0.103859,-0.03531 0.172405,-0.09555 0.06855,-0.06232 0.101782,-0.145402 0.03323,-0.08516 0.03323,-0.184869 0,-0.09139 -0.02908,-0.172405 -0.027,-0.08101 -0.09347,-0.141248 -0.06439,-0.06024 -0.172405,-0.09555 -0.108013,-0.03531 -0.265878,-0.03531 h -0.531756 v 0.90357 z m -0.0083,-1.051049 q 0.211872,0 0.353119,0.04985 0.143325,0.04985 0.228489,0.132939 0.08516,0.08101 0.120476,0.186946 0.03739,0.105936 0.03739,0.218103 0,0.130862 -0.04778,0.243029 -0.0457,0.112167 -0.13917,0.195254 -0.0914,0.08101 -0.228489,0.126708 -0.135016,0.0457 -0.313653,0.0457 h -0.733242 v -2.066786 h 0.1911 v 0.868258 z"
     style="font-style:normal;font-variant:normal;font-weight:300;font-stretch:normal;font-family:Lato;-inkscape-font-specification:'Lato Light';fill:#ffffff;stroke-width:0.14162536"
     id="path28" /><path
     d="m 24.508908,28.353593 h -1.067667 v 1.915152 h -0.199408 v -2.066786 h 1.267075 z"
     style="font-style:normal;font-variant:normal;font-weight:300;font-stretch:normal;font-family:Lato;-inkscape-font-specification:'Lato Light';fill:#ffffff;stroke-width:0.14162536"
     id="path30" /><path
     d="m 25.12083,29.817999 q 0.06024,0.08932 0.12463,0.151634 0.06647,0.06024 0.13917,0.0997 0.0727,0.03739 0.153711,0.05401 0.08309,0.01662 0.174483,0.01662 0.182791,0 0.319884,-0.06647 0.137093,-0.06647 0.228489,-0.186945 0.09347,-0.122553 0.13917,-0.290804 0.04778,-0.170328 0.04778,-0.373891 0,-0.461132 -0.170328,-0.677158 -0.170328,-0.218103 -0.488135,-0.218103 -0.20564,0 -0.371814,0.105936 -0.166174,0.105935 -0.297035,0.294958 z m -0.0083,-1.244226 q 0.137093,-0.186945 0.319884,-0.297035 0.184869,-0.11009 0.413358,-0.11009 0.380122,0 0.591993,0.2638 0.213949,0.263801 0.213949,0.791403 0,0.226412 -0.06024,0.423743 -0.05816,0.195254 -0.174482,0.340656 -0.114245,0.143325 -0.282496,0.226412 -0.166173,0.08309 -0.384276,0.08309 -0.209795,0 -0.363505,-0.07686 -0.153711,-0.07686 -0.265878,-0.226411 v 1.007428 h -0.199409 v -2.797951 h 0.11009 q 0.05193,0 0.06024,0.05193 z"
     style="font-style:normal;font-variant:normal;font-weight:300;font-stretch:normal;font-family:Lato;-inkscape-font-specification:'Lato Light';fill:#ffffff;stroke-width:0.14162536"
     id="path32" /><path
     d="m 28.830918,28.201959 -1.188143,2.731481 q -0.01246,0.02908 -0.03323,0.04777 -0.0187,0.0187 -0.05608,0.0187 h -0.141248 l 0.363505,-0.80802 -0.874489,-1.989931 h 0.164097 q 0.03116,0 0.04985,0.01662 0.01869,0.01454 0.02493,0.03324 l 0.695852,1.607731 q 0.01246,0.03116 0.02077,0.06439 0.01039,0.03116 0.0187,0.06439 0.01038,-0.03324 0.02077,-0.06439 0.01246,-0.03324 0.02493,-0.06439 l 0.687544,-1.607731 q 0.01039,-0.02285 0.02908,-0.03531 0.01869,-0.01454 0.04154,-0.01454 z"
     style="font-style:normal;font-variant:normal;font-weight:300;font-stretch:normal;font-family:Lato;-inkscape-font-specification:'Lato Light';fill:#ffffff;stroke-width:0.14162536"
     id="path34" /><path
     d="m 29.094718,28.397214 q 0.11009,-0.101782 0.272109,-0.164097 0.164097,-0.06439 0.384277,-0.06439 0.182791,0 0.319885,0.0457 0.137093,0.0457 0.228489,0.120475 0.09139,0.0727 0.135016,0.166174 0.0457,0.09347 0.0457,0.189023 0,0.06647 -0.02493,0.13917 -0.02285,0.07062 -0.07686,0.135017 -0.05193,0.06439 -0.13917,0.118398 -0.08516,0.05193 -0.209795,0.08101 0.249261,0.05193 0.378046,0.193177 0.128784,0.139171 0.128784,0.334425 0,0.135016 -0.06024,0.247183 -0.06024,0.11009 -0.166174,0.1911 -0.105935,0.07893 -0.247183,0.122553 -0.141248,0.04362 -0.303267,0.04362 -0.114244,0 -0.22018,-0.02285 -0.105936,-0.02077 -0.197332,-0.06024 -0.09139,-0.03947 -0.166173,-0.09347 -0.0727,-0.05401 -0.120476,-0.116322 l 0.05193,-0.06647 q 0.01662,-0.02077 0.04154,-0.02077 0.02493,0 0.06439,0.03531 0.04154,0.03531 0.11009,0.07685 0.07062,0.04154 0.172405,0.07686 0.103859,0.03531 0.251338,0.03531 0.137093,0 0.247183,-0.03324 0.11009,-0.03531 0.189023,-0.09555 0.07893,-0.06231 0.120476,-0.147479 0.04362,-0.08516 0.04362,-0.186946 0,-0.09555 -0.04154,-0.174482 -0.03947,-0.08101 -0.120476,-0.137093 -0.07893,-0.05816 -0.197331,-0.08932 -0.118399,-0.03323 -0.27211,-0.03323 h -0.232643 v -0.137094 h 0.232643 q 0.132939,0 0.240952,-0.02908 0.11009,-0.03116 0.184869,-0.08309 0.07686,-0.05401 0.118398,-0.12463 0.04154,-0.0727 0.04154,-0.157865 0,-0.07478 -0.03324,-0.143325 -0.03323,-0.07062 -0.101781,-0.124631 -0.06855,-0.05401 -0.174483,-0.08516 -0.103858,-0.03323 -0.247183,-0.03323 -0.137094,0 -0.234721,0.027 -0.09763,0.027 -0.162019,0.06024 -0.06439,0.03324 -0.103859,0.06024 -0.03739,0.027 -0.05608,0.027 -0.01662,0 -0.027,-0.0062 -0.01039,-0.0062 -0.02077,-0.02285 z"
     style="font-style:normal;font-variant:normal;font-weight:300;font-stretch:normal;font-family:Lato;-inkscape-font-specification:'Lato Light';fill:#ffffff;stroke-width:0.14162536"
     id="path36" /></g>
</svg>