<?xml version="1.0" encoding="UTF-8" standalone="no"?>
<svg
   xmlns:dc="http://purl.org/dc/elements/1.1/"
   xmlns:cc="http://creativecommons.org/ns#"
   xmlns:rdf="http://www.w3.org/1999/02/22-rdf-syntax-ns#"
   xmlns:svg="http://www.w3.org/2000/svg"
   xmlns="http://www.w3.org/2000/svg"
   xmlns:sodipodi="http://sodipodi.sourceforge.net/DTD/sodipodi-0.dtd"
   xmlns:inkscape="http://www.inkscape.org/namespaces/inkscape"
   height="32px"
   id="Layer_1"
   style="enable-background:new 0 0 32 32;"
   version="1.1"
   viewBox="0 0 32 32"
   width="32px"
   xml:space="preserve"
   sodipodi:docname="search.svg"
   inkscape:version="0.92.2 (5c3e80d, 2017-08-06)"><metadata
     id="metadata15"><rdf:RDF><cc:Work
         rdf:about=""><dc:format>image/svg+xml</dc:format><dc:type
           rdf:resource="http://purl.org/dc/dcmitype/StillImage" /><dc:title /></cc:Work></rdf:RDF></metadata><defs
     id="defs13" /><sodipodi:namedview
     pagecolor="#ffffff"
     bordercolor="#666666"
     borderopacity="1"
     objecttolerance="10"
     gridtolerance="10"
     guidetolerance="10"
     inkscape:pageopacity="0"
     inkscape:pageshadow="2"
     inkscape:window-width="2560"
     inkscape:window-height="1315"
     id="namedview11"
     showgrid="false"
     inkscape:zoom="20.85965"
     inkscape:cx="14.583483"
     inkscape:cy="12.423573"
     inkscape:window-x="-13"
     inkscape:window-y="-13"
     inkscape:window-maximized="1"
     inkscape:current-layer="Layer_1" /><g
     transform="matrix(0.78915429,0,0,0.78915429,457.9265,152.32637)"
     id="g8"
     style="fill:#ffffff"><path
       d="m -544.88,-165.121 -7.342,-7.342 c -1.095,1.701 -2.541,3.148 -4.242,4.242 l 7.343,7.342 c 1.172,1.172 3.071,1.172 4.241,0 1.173,-1.169 1.173,-3.068 0,-4.242 z"
       id="path2"
       style="fill:#ffffff"
       inkscape:connector-curvature="0" /><path
       d="m -552,-180 c 0,-6.627 -5.373,-12 -12,-12 -6.627,0 -12,5.373 -12,12 0,6.627 5.373,12 12,12 6.627,0 12,-5.373 12,-12 z m -12,9 c -4.964,0 -9,-4.036 -9,-9 0,-4.963 4.036,-9 9,-9 4.963,0 9,4.037 9,9 0,4.964 -4.037,9 -9,9 z"
       id="path4"
       style="fill:#ffffff"
       inkscape:connector-curvature="0" /><path
       d="m -571,-180 h 2 c 0,-2.757 2.242,-5 5,-5 v -2 c -3.86,0 -7,3.142 -7,7 z"
       id="path6"
       style="fill:#ffffff"
       inkscape:connector-curvature="0" /></g><text
     xml:space="preserve"
     style="font-style:normal;font-variant:normal;font-weight:normal;font-stretch:normal;font-size:4.15434361px;line-height:1.25;font-family:Lato;-inkscape-font-specification:Lato;font-variant-ligatures:normal;font-variant-caps:normal;font-variant-numeric:normal;text-align:start;letter-spacing:0px;word-spacing:0px;writing-mode:lr-tb;text-anchor:start;fill:#ffffff;fill-opacity:1;stroke:none;stroke-width:0.14162536;"
     x="1.2206956"
     y="30.268745"
     id="text817"><tspan
       sodipodi:role="line"
       id="tspan815"
       x="1.2206956"
       y="30.268745"
       style="font-style:normal;font-variant:normal;font-weight:300;font-stretch:normal;font-family:Lato;-inkscape-font-specification:'Lato Light';fill:#ffffff;stroke-width:0.14162536;">Отследить груз</tspan></text>
</svg>