<?xml version="1.0" encoding="UTF-8" standalone="no"?>
<svg
   xmlns:dc="http://purl.org/dc/elements/1.1/"
   xmlns:cc="http://creativecommons.org/ns#"
   xmlns:rdf="http://www.w3.org/1999/02/22-rdf-syntax-ns#"
   xmlns:svg="http://www.w3.org/2000/svg"
   xmlns="http://www.w3.org/2000/svg"
   xmlns:sodipodi="http://sodipodi.sourceforge.net/DTD/sodipodi-0.dtd"
   xmlns:inkscape="http://www.inkscape.org/namespaces/inkscape"
   height="23.999996"
   viewBox="0 0 17.055713 23.999995"
   width="17.055714"
   version="1.1"
   id="svg4"
   sodipodi:docname="sender.svg"
   inkscape:version="0.92.2 (5c3e80d, 2017-08-06)">
  <metadata
     id="metadata10">
    <rdf:RDF>
      <cc:Work
         rdf:about="">
        <dc:format>image/svg+xml</dc:format>
        <dc:type
           rdf:resource="http://purl.org/dc/dcmitype/StillImage" />
        <dc:title></dc:title>
      </cc:Work>
    </rdf:RDF>
  </metadata>
  <defs
     id="defs8" />
  <sodipodi:namedview
     pagecolor="#ffffff"
     bordercolor="#666666"
     borderopacity="1"
     objecttolerance="10"
     gridtolerance="10"
     guidetolerance="10"
     inkscape:pageopacity="0"
     inkscape:pageshadow="2"
     inkscape:window-width="2560"
     inkscape:window-height="1315"
     id="namedview6"
     showgrid="false"
     inkscape:zoom="5.9599"
     inkscape:cx="39.211281"
     inkscape:cy="-13.982667"
     inkscape:window-x="-13"
     inkscape:window-y="-13"
     inkscape:window-maximized="1"
     inkscape:current-layer="svg4"
     showguides="false"
     fit-margin-top="1"
     fit-margin-left="1"
     fit-margin-right="1"
     fit-margin-bottom="1" />
  <text
     xml:space="preserve"
     style="font-style:normal;font-variant:normal;font-weight:normal;font-stretch:normal;font-size:0.84876561px;line-height:1.25;font-family:'Century Gothic';-inkscape-font-specification:'Century Gothic, Normal';font-variant-ligatures:normal;font-variant-caps:normal;font-variant-numeric:normal;text-align:start;letter-spacing:0px;word-spacing:0px;writing-mode:lr-tb;text-anchor:start;fill:#000000;fill-opacity:1;stroke:none;stroke-width:0.02893519"
     x="270.02469"
     y="-49.038097"
     id="text819"><tspan
       sodipodi:role="line"
       id="tspan817"
       x="270.02469"
       y="-48.267525"
       style="line-height:63.84999847;stroke-width:0.02893519" /></text>
  <path
     inkscape:connector-curvature="0"
     id="path827"
     d="M 11.137452,22.921284 C 10.855177,22.800146 10.728553,22.703744 10.579447,22.496448 10.514409,22.40611 10.03049,21.175493 9.5040135,19.761808 8.9231284,18.202042 8.5111353,17.171517 8.4561351,17.140744 8.4062224,17.112831 8.041502,16.847015 7.6454864,16.55 L 6.9254644,16.009966 6.7887888,15.309909 6.6521132,14.609852 6.6181505,15.349221 c -0.020763,0.451524 -0.1010629,1.106852 -0.2064021,1.68331 l -0.1724671,0.943942 -1.4563928,2.150454 c -0.8010236,1.182753 -1.509193,2.208302 -1.5737358,2.279004 -0.6099115,0.66824 -1.9206636,0.327939 -2.1702273,-0.56345 -0.038363,-0.137225 -0.0500502,-0.316595 -0.0275,-0.422168 0.021588,-0.100925 0.5387824,-1.157026 1.1492027,-2.34686 L 3.2704917,16.910114 3.5800606,15.100097 3.8896433,13.29008 3.8078304,12.772459 C 3.7628677,12.487764 3.5623643,11.133452 3.3623146,9.7628869 2.9611016,7.0143045 2.951999,6.8146811 3.2026764,6.2660537 3.3780035,5.8823444 3.612442,5.6325608 3.9680186,5.4506062 4.2989551,5.2812605 4.8435126,5.2279377 5.2489194,5.3252057 5.6232098,5.4149936 6.1238083,5.7468788 6.3101492,6.0287688 6.4289497,6.2083997 6.7802913,6.4705033 7.939009,7.2437656 l 1.4774304,0.9859619 2.0504776,0.5113236 c 1.127753,0.2812162 2.11498,0.5535912 2.193836,0.6052502 0.223315,0.1463281 0.356773,0.4101918 0.356993,0.7058867 2.75e-4,0.342418 -0.102025,0.575977 -0.346447,0.790532 -0.330455,0.290141 -0.46812,0.287693 -1.761918,-0.03135 C 11.276823,10.655417 10.379274,10.453497 9.9148516,10.362665 9.436707,10.269164 8.9592498,10.14166 8.8141042,10.068757 8.6731248,9.9979442 8.1849426,9.6906578 7.7292518,9.3859015 7.273561,9.0811313 6.8921068,8.8317877 6.8815605,8.8317877 c -0.011,0 0.073425,0.6460467 0.1866433,1.4356573 0.1336506,0.932048 0.2317711,1.455582 0.2798275,1.492432 0.2868951,0.220015 2.162596,1.739452 2.6992467,2.186563 0.783864,0.653086 1.021176,0.896242 1.142067,1.170185 0.187592,0.425097 1.788017,6.382284 1.788017,6.655456 0,0.656799 -0.54805,1.16936 -1.308223,1.223494 -0.212699,0.01513 -0.376531,-0.0083 -0.531659,-0.07439 z m -1.06079,-11.228865 c -0.080988,-0.06559 -0.1451178,-0.218406 -0.198633,-0.473772 -0.04345,-0.207282 -0.069438,-0.386404 -0.057888,-0.398037 0.011,-0.011 0.5933288,0.121964 1.2926708,0.296947 l 1.271537,0.318094 -0.976873,0.177623 c -1.13097,0.205632 -1.171657,0.208052 -1.330841,0.0792 z m 4.14497,-0.821552 c 0.134888,-0.229447 0.152296,-0.313323 0.152296,-0.733373 0,-0.4399336 -0.01237,-0.4914964 -0.166596,-0.7115249 -0.09158,-0.130488 -0.263066,-0.29135 -0.381001,-0.3575016 C 13.702031,8.9987547 12.700779,8.725046 11.446196,8.4177734 10.255056,8.126052 9.274745,7.8825934 9.2677325,7.8767497 9.2475199,7.8599746 8.9245034,6.1104717 8.9245034,6.0181263 c 0,-0.04565 0.055413,-0.1472219 0.1232006,-0.225831 0.115913,-0.1344756 0.2780537,-0.1718758 2.752089,-0.6341804 1.445874,-0.2701887 2.726169,-0.4936409 2.84508,-0.496556 0.398628,-0.00962 0.386583,-0.04785 0.951573,3.0058736 0.483259,2.6119895 0.504077,2.7553195 0.422938,2.9122215 -0.09749,0.188527 -0.166995,0.211944 -1.152572,0.388385 -0.361475,0.06476 -0.688782,0.1276 -0.727364,0.139783 -0.03864,0.01237 -0.0014,-0.09446 0.08222,-0.236955 z M 13.087678,6.9413605 c 0.05899,-0.071088 0.04978,-0.2056872 -0.05404,-0.7818286 -0.06889,-0.3827742 -0.140622,-0.7121569 -0.159267,-0.7319845 -0.03589,-0.038088 -1.57287,0.2423036 -1.627526,0.2969601 -0.0176,0.0176 0.02516,0.3538991 0.09488,0.7473571 l 0.126913,0.7153882 0.466196,0.1865471 0.466182,0.1865471 0.307685,-0.266545 c 0.169222,-0.1465894 0.33975,-0.3051963 0.378966,-0.3524415 z M 4.8029774,5.0514694 C 4.2129897,4.9028725 3.6514372,4.4463567 3.4031111,3.9134593 3.1994589,3.4764411 3.1699788,2.8018768 3.3353233,2.3612698 3.4866977,1.957733 3.71455,1.6491129 4.0364114,1.4116081 4.3437253,1.1848283 4.889094,1 5.2509131,1 c 0.5206461,0 1.2005867,0.2991325 1.5066218,0.6628354 0.1304881,0.1551007 0.1456544,0.1587033 0.6710443,0.159432 0.7487321,0.00105 0.9547355,0.0682 0.6438741,0.2097984 -0.2099771,0.0957 -0.9411229,0.2089872 -1.8315494,0.2838563 -0.4367708,0.036713 -0.8114462,0.082225 -0.8326075,0.101063 -0.021175,0.018838 0.3776454,0.027088 0.8862464,0.01815 l 0.924733,-0.016088 0.038225,0.2544861 C 7.4435942,3.9145313 6.6071642,4.9920274 5.3920574,5.0765903 5.1812002,5.0913029 4.9161678,5.0793403 4.8030735,5.0514277 Z"
     style="fill:#ffffff;fill-opacity:1;stroke-width:0.05476804" />
</svg>
