<?xml version="1.0" encoding="UTF-8" standalone="no"?>
<svg
   xmlns:dc="http://purl.org/dc/elements/1.1/"
   xmlns:cc="http://creativecommons.org/ns#"
   xmlns:rdf="http://www.w3.org/1999/02/22-rdf-syntax-ns#"
   xmlns:svg="http://www.w3.org/2000/svg"
   xmlns="http://www.w3.org/2000/svg"
   xmlns:sodipodi="http://sodipodi.sourceforge.net/DTD/sodipodi-0.dtd"
   xmlns:inkscape="http://www.inkscape.org/namespaces/inkscape"
   height="24.345222"
   viewBox="0 0 105.0114 24.345222"
   width="105.01141"
   version="1.1"
   id="svg4"
   sodipodi:docname="truck.svg"
   inkscape:version="0.92.3 (2405546, 2018-03-11)">
  <metadata
     id="metadata10">
    <rdf:RDF>
      <cc:Work
         rdf:about="">
        <dc:format>image/svg+xml</dc:format>
        <dc:type
           rdf:resource="http://purl.org/dc/dcmitype/StillImage" />
        <dc:title></dc:title>
      </cc:Work>
    </rdf:RDF>
  </metadata>
  <defs
     id="defs8" />
  <sodipodi:namedview
     pagecolor="#ffffff"
     bordercolor="#666666"
     borderopacity="1"
     objecttolerance="10"
     gridtolerance="10"
     guidetolerance="10"
     inkscape:pageopacity="0"
     inkscape:pageshadow="2"
     inkscape:window-width="2560"
     inkscape:window-height="1315"
     id="namedview6"
     showgrid="false"
     inkscape:zoom="11.9198"
     inkscape:cx="16.944323"
     inkscape:cy="35.1172"
     inkscape:window-x="-13"
     inkscape:window-y="-13"
     inkscape:window-maximized="1"
     inkscape:current-layer="svg4"
     showguides="true"
     fit-margin-top="1"
     fit-margin-left="1"
     fit-margin-right="1"
     fit-margin-bottom="1"
     inkscape:guide-bbox="true"
     inkscape:snap-bbox="true"
     inkscape:bbox-paths="true"
     inkscape:bbox-nodes="true"
     inkscape:snap-bbox-edge-midpoints="true"
     inkscape:snap-bbox-midpoints="true"
     inkscape:object-paths="true"
     inkscape:snap-intersection-paths="true"
     inkscape:snap-midpoints="true"
     inkscape:snap-smooth-nodes="true"
     inkscape:snap-global="false">
    <sodipodi:guide
       position="14.590136,22.064437"
       orientation="0,1"
       id="guide4787"
       inkscape:locked="false" />
    <sodipodi:guide
       position="34.561345,22.064435"
       orientation="1,0"
       id="guide4789"
       inkscape:locked="false" />
    <sodipodi:guide
       position="34.472363,12.344999"
       orientation="0,1"
       id="guide4791"
       inkscape:locked="false" />
    <sodipodi:guide
       position="14.590136,22.064436"
       orientation="1,0"
       id="guide4793"
       inkscape:locked="false" />
    <sodipodi:guide
       position="12.981318,11.641369"
       orientation="0,1"
       id="guide4795"
       inkscape:locked="false" />
    <sodipodi:guide
       position="8.8622255,4.1001873"
       orientation="0,1"
       id="guide4797"
       inkscape:locked="false" />
    <sodipodi:guide
       position="12.948333,20.944935"
       orientation="0,1"
       id="guide4799"
       inkscape:locked="false" />
    <sodipodi:guide
       position="13.033894,23.936438"
       orientation="1,0"
       id="guide4801"
       inkscape:locked="false" />
    <sodipodi:guide
       position="13.0532,14.527043"
       orientation="0,1"
       id="guide4803"
       inkscape:locked="false" />
    <sodipodi:guide
       position="3.7270806,9.8913683"
       orientation="1,0"
       id="guide4805"
       inkscape:locked="false" />
    <sodipodi:guide
       position="8.1465722,13.707844"
       orientation="0,1"
       id="guide4807"
       inkscape:locked="false" />
    <sodipodi:guide
       position="409.90504,-20.896765"
       orientation="0,1"
       id="guide4834"
       inkscape:locked="false" />
    <sodipodi:guide
       position="276.07453,-138.59167"
       orientation="1,0"
       id="guide4836"
       inkscape:locked="false" />
    <sodipodi:guide
       position="607.32878,-324.62555"
       orientation="1,0"
       id="guide4838"
       inkscape:locked="false" />
    <sodipodi:guide
       position="692.2779,-93.981503"
       orientation="0,1"
       id="guide4941"
       inkscape:locked="false" />
    <sodipodi:guide
       position="628.21011,-330.32046"
       orientation="1,0"
       id="guide4943"
       inkscape:locked="false" />
    <sodipodi:guide
       position="612.78507,-359.50601"
       orientation="0,1"
       id="guide4945"
       inkscape:locked="false" />
    <sodipodi:guide
       position="810.44739,-284.28658"
       orientation="1,0"
       id="guide4947"
       inkscape:locked="false" />
    <sodipodi:guide
       position="702.11675,-114.92143"
       orientation="0,1"
       id="guide4969"
       inkscape:locked="false" />
    <sodipodi:guide
       position="771.24542,-223.3125"
       orientation="0,1"
       id="guide4971"
       inkscape:locked="false" />
    <sodipodi:guide
       position="788.69538,-223.31249"
       orientation="1,0"
       id="guide4975"
       inkscape:locked="false" />
    <sodipodi:guide
       position="681.31103,-120.96179"
       orientation="1,0"
       id="guide4981"
       inkscape:locked="false" />
    <sodipodi:guide
       position="9.5145185,19.117734"
       orientation="0,1"
       id="guide5043"
       inkscape:locked="false" />
    <sodipodi:guide
       position="10.690673,7.7415239"
       orientation="1,0"
       id="guide5045"
       inkscape:locked="false" />
    <sodipodi:guide
       position="16.741521,23.34522"
       orientation="0,1"
       id="guide5047"
       inkscape:locked="false" />
    <sodipodi:guide
       position="14.386969,22.310167"
       orientation="0,1"
       id="guide5049"
       inkscape:locked="false" />
  </sodipodi:namedview>
  <text
     xml:space="preserve"
     style="font-style:normal;font-variant:normal;font-weight:normal;font-stretch:normal;font-size:0.16112258px;line-height:1.25;font-family:'Century Gothic';-inkscape-font-specification:'Century Gothic, Normal';font-variant-ligatures:normal;font-variant-caps:normal;font-variant-numeric:normal;text-align:start;letter-spacing:0px;word-spacing:0px;writing-mode:lr-tb;text-anchor:start;fill:#ffffff;fill-opacity:1;stroke:none;stroke-width:0.00549281"
     x="16.129873"
     y="-5.3764009"
     id="text819"><tspan
       sodipodi:role="line"
       id="tspan817"
       x="16.129873"
       y="-5.2338452"
       style="line-height:63.84999847;fill:#ffffff;stroke-width:0.00549281" /></text>
  <text
     xml:space="preserve"
     style="font-style:normal;font-variant:normal;font-weight:normal;font-stretch:normal;font-size:5.56839514px;line-height:1.25;font-family:Lato;-inkscape-font-specification:Lato;font-variant-ligatures:normal;font-variant-caps:normal;font-variant-numeric:normal;text-align:start;letter-spacing:0px;word-spacing:0px;writing-mode:lr-tb;text-anchor:start;fill:#ffffff;fill-opacity:1;stroke:none;stroke-width:0.18983164"
     x="25.807116"
     y="-7.6258974"
     id="text818"><tspan
       sodipodi:role="line"
       id="tspan816"
       x="25.807116"
       y="-2.4472899"
       style="fill:#ffffff;stroke-width:0.18983164" /></text>
  <text
     xml:space="preserve"
     style="font-style:normal;font-weight:normal;font-size:40px;line-height:1.25;font-family:sans-serif;letter-spacing:0px;word-spacing:0px;fill:#ffffff;fill-opacity:1;stroke:none"
     x="-424.45358"
     y="200.58261"
     id="text128"><tspan
       sodipodi:role="line"
       id="tspan126"
       x="-424.45358"
       y="235.97324"
       style="font-style:normal;font-variant:normal;font-weight:300;font-stretch:normal;font-size:32px;font-family:lato;-inkscape-font-specification:'lato Light';fill:#ffffff" /></text>
  <g
     aria-label="ОФОРМИТЬ"
     style="font-style:normal;font-weight:normal;font-size:43.40765762px;line-height:1.25;font-family:sans-serif;letter-spacing:0px;word-spacing:0px;fill:#ffffff;fill-opacity:1;stroke:none;stroke-width:1.08519149"
     id="text106"
     transform="matrix(0.06125878,0,0,0.06125878,52.741075,-1.1477008)">
    <g
       aria-label="Подать заявку"
       style="font-style:normal;font-weight:normal;font-size:171.22921753px;line-height:1.25;font-family:sans-serif;letter-spacing:0px;word-spacing:0px;fill:#ffffff;fill-opacity:1;stroke:none;stroke-width:4.64541245"
       id="text49">
      <path
         d="M -179.81576,172.17967 H -196.5106 V 62.592973 h -61.30006 V 172.17967 H -274.4199 V 49.493938 h 94.60414 z"
         style="font-style:normal;font-variant:normal;font-weight:normal;font-stretch:normal;font-family:Lato;-inkscape-font-specification:Lato;fill:#ffffff;stroke-width:4.64541245"
         id="path4762"
         inkscape:connector-curvature="0" />
      <path
         d="m -118.05284,84.08224 q 9.50322,0 17.12292,3.16774 7.619702,3.167741 13.013422,8.989534 5.39372,5.821796 8.219002,14.126406 2.910897,8.21901 2.910897,18.40715 0,10.27375 -2.910897,18.49275 -2.825282,8.219 -8.219002,14.0408 -5.39372,5.82179 -13.013422,8.98953 -7.6197,3.08213 -17.12292,3.08213 -9.58884,0 -17.29415,-3.08213 -7.6197,-3.16774 -13.01342,-8.98953 -5.39372,-5.8218 -8.30462,-14.0408 -2.82528,-8.219 -2.82528,-18.49275 0,-10.18814 2.82528,-18.40715 2.9109,-8.30461 8.30462,-14.126406 5.39372,-5.821793 13.01342,-8.989534 7.70531,-3.16774 17.29415,-3.16774 z m 0,77.39561 q 12.84219,0 19.177672,-8.56146 6.335481,-8.64708 6.335481,-24.05771 0,-15.49624 -6.335481,-24.14332 -6.335482,-8.647075 -19.177672,-8.647075 -6.50671,0 -11.38674,2.22598 -4.79442,2.225975 -8.04778,6.421095 -3.16774,4.19512 -4.79441,10.35937 -1.54107,6.07864 -1.54107,13.78395 0,15.41063 6.33548,24.05771 6.4211,8.56146 19.43452,8.56146 z"
         style="font-style:normal;font-variant:normal;font-weight:normal;font-stretch:normal;font-family:Lato;-inkscape-font-specification:Lato;fill:#ffffff;stroke-width:4.64541245"
         id="path4764"
         inkscape:connector-curvature="0" />
      <path
         d="M -1.2102978,161.04977 V 97.438119 H -28.692587 q -0.856146,13.355881 -2.397209,23.629631 -1.541063,10.27375 -3.595814,18.06468 -1.969136,7.70532 -4.45196,13.09904 -2.397209,5.39372 -5.051261,8.8183 z M 29.439732,160.6217 v 36.72867 q 0,2.22598 -1.284219,3.42458 -1.198605,1.28422 -3.167741,1.28422 H 15.65578 v -29.8795 h -72.943647 v 25.51316 q 0,1.62667 -1.027375,2.99651 -0.941761,1.36983 -3.16774,1.36983 h -9.588837 v -41.0094 h 2.825283 q 2.996511,0 5.907408,-1.02737 2.996511,-1.02738 5.736178,-3.85266 2.739668,-2.9109 5.136877,-8.13339 2.482823,-5.22249 4.451959,-13.61272 1.969136,-8.39023 3.424585,-20.37628 1.455448,-12.07166 2.311594,-28.595276 H 13.601029 V 160.6217 Z"
         style="font-style:normal;font-variant:normal;font-weight:normal;font-stretch:normal;font-family:Lato;-inkscape-font-specification:Lato;fill:#ffffff;stroke-width:4.64541245"
         id="path4766"
         inkscape:connector-curvature="0" />
      <path
         d="m 91.713637,133.13941 q -10.530597,0.34246 -17.979068,1.71229 -7.362856,1.28422 -12.07166,3.42459 -4.623189,2.14036 -6.763554,5.05126 -2.05475,2.9109 -2.05475,6.50671 0,3.42458 1.112989,5.90741 1.11299,2.48282 2.996512,4.1095 1.969136,1.54106 4.537574,2.31159 2.654053,0.68492 5.650564,0.68492 4.023887,0 7.362857,-0.77053 3.338969,-0.85615 6.249866,-2.39721 2.996511,-1.54106 5.650564,-3.68143 2.739668,-2.14036 5.308106,-4.88003 z m -49.2284,-35.444447 q 7.191627,-6.934784 15.496244,-10.359368 8.304617,-3.424584 18.407141,-3.424584 7.277242,0 12.927806,2.397209 5.650564,2.397209 9.503221,6.677939 3.852661,4.280731 5.821791,10.359371 1.96914,6.07863 1.96914,13.35588 v 55.47826 h -6.763555 q -2.22598,0 -3.424585,-0.68491 -1.198604,-0.77054 -1.883521,-2.9109 l -1.712292,-8.219 q -3.424585,3.16774 -6.67794,5.65056 -3.253355,2.39721 -6.849168,4.1095 -3.595814,1.62668 -7.705315,2.48283 -4.023887,0.94176 -8.989534,0.94176 -5.051262,0 -9.503222,-1.36984 -4.451959,-1.45545 -7.790929,-4.28073 -3.253355,-2.82528 -5.222491,-7.10601 -1.883522,-4.36635 -1.883522,-10.27375 0,-5.13688 2.825283,-9.84568 2.825282,-4.79442 9.160763,-8.47585 6.335481,-3.68143 16.523619,-5.99302 10.188139,-2.39721 24.999466,-2.73967 v -6.76355 q 0,-10.10253 -4.366345,-15.2394 -4.366345,-5.222496 -12.756577,-5.222496 -5.650564,0 -9.503221,1.455449 -3.767043,1.369833 -6.592325,3.167737 -2.739668,1.7123 -4.794418,3.16774 -1.969136,1.36984 -3.938272,1.36984 -1.541063,0 -2.654053,-0.77053 -1.11299,-0.85615 -1.883522,-2.05475 z"
         style="font-style:normal;font-variant:normal;font-weight:normal;font-stretch:normal;font-family:Lato;-inkscape-font-specification:Lato;fill:#ffffff;stroke-width:4.64541245"
         id="path4768"
         inkscape:connector-curvature="0" />
      <path
         d="m 199.7379,97.09566 h -33.30409 v 75.08401 h -15.2394 V 97.09566 H 117.89033 V 85.452074 h 81.84757 z"
         style="font-style:normal;font-variant:normal;font-weight:normal;font-stretch:normal;font-family:Lato;-inkscape-font-specification:Lato;fill:#ffffff;stroke-width:4.64541245"
         id="path4770"
         inkscape:connector-curvature="0" />
      <path
         d="m 247.57237,161.04977 q 4.62319,0 7.96216,-1.11299 3.42458,-1.1986 5.65056,-3.25335 2.22598,-2.14037 3.33897,-4.96565 1.11299,-2.82528 1.11299,-6.16425 0,-3.08213 -0.94176,-5.73618 -0.94176,-2.73967 -3.16774,-4.79442 -2.14037,-2.05475 -5.65057,-3.25335 -3.51019,-1.19861 -8.56146,-1.19861 h -18.40714 v 30.4788 z m -0.25685,-41.6087 q 8.98954,0 15.06817,2.14037 6.16426,2.14036 9.84568,5.73618 3.76705,3.59581 5.39373,8.30461 1.62667,4.70881 1.62667,9.76007 0,5.82179 -2.05475,10.78744 -2.05475,4.88003 -6.07864,8.47585 -4.02388,3.5102 -9.93129,5.56495 -5.90741,1.96913 -13.61272,1.96913 H 214.26828 V 85.452074 h 14.6401 v 33.988996 z"
         style="font-style:normal;font-variant:normal;font-weight:normal;font-stretch:normal;font-family:Lato;-inkscape-font-specification:Lato;fill:#ffffff;stroke-width:4.64541245"
         id="path4772"
         inkscape:connector-curvature="0" />
      <path
         d="m 334.53541,94.355993 q 4.88003,-4.623189 11.81482,-7.448471 7.02039,-2.825282 16.86607,-2.825282 7.87655,0 13.86957,1.969136 5.99302,1.883521 10.01691,5.051262 4.1095,3.16774 6.16425,7.277241 2.14037,4.023891 2.14037,8.390231 0,2.56844 -0.85615,5.39372 -0.77053,2.82528 -2.65405,5.39372 -1.88352,2.56844 -4.88004,4.79442 -2.99651,2.22598 -7.44847,3.59581 8.30462,2.48283 13.01342,7.96216 4.79442,5.47934 4.79442,13.4415 0,5.99302 -2.73967,10.87305 -2.73966,4.79442 -7.36285,8.219 -4.62319,3.33897 -10.78744,5.13688 -6.07864,1.79791 -12.75658,1.79791 -4.19511,0 -8.56146,-0.77053 -4.28073,-0.77054 -8.39023,-2.39721 -4.1095,-1.7123 -7.79093,-4.19512 -3.59581,-2.48282 -6.4211,-5.99302 l 4.28073,-5.56495 q 1.02738,-1.45545 2.9109,-1.45545 1.54106,0 3.25336,1.36983 1.7979,1.28422 4.36634,2.9109 2.56844,1.62668 6.24987,2.99651 3.76704,1.28422 9.16076,1.28422 4.7088,0 8.39023,-1.11299 3.76704,-1.1986 6.33548,-3.25335 2.56844,-2.05475 3.93828,-4.88004 1.36983,-2.82528 1.36983,-6.16425 0,-6.42109 -5.39372,-10.35937 -5.30811,-3.93827 -16.18116,-3.93827 h -9.84568 v -10.10252 h 9.84568 q 4.7088,0 8.47584,-0.94176 3.76705,-1.02738 6.4211,-2.73967 2.65405,-1.71229 4.02389,-4.1095 1.36983,-2.48283 1.36983,-5.30811 0,-2.56844 -1.1986,-4.88003 -1.11299,-2.31159 -3.5102,-4.023887 -2.3116,-1.712292 -5.8218,-2.739667 -3.5102,-1.027376 -8.219,-1.027376 -5.13688,0 -8.73269,1.027376 -3.5102,1.027375 -5.99302,2.22598 -2.39721,1.198604 -3.93827,2.225984 -1.54107,1.02737 -2.65406,1.02737 -1.11299,0 -1.88352,-0.42807 -0.68492,-0.42808 -1.54106,-1.79791 z"
         style="font-style:normal;font-variant:normal;font-weight:normal;font-stretch:normal;font-family:Lato;-inkscape-font-specification:Lato;fill:#ffffff;stroke-width:4.64541245"
         id="path4774"
         inkscape:connector-curvature="0" />
      <path
         d="m 463.93654,133.13941 q -10.5306,0.34246 -17.97907,1.71229 -7.36286,1.28422 -12.07166,3.42459 -4.62319,2.14036 -6.76355,5.05126 -2.05476,2.9109 -2.05476,6.50671 0,3.42458 1.11299,5.90741 1.11299,2.48282 2.99652,4.1095 1.96913,1.54106 4.53757,2.31159 2.65405,0.68492 5.65056,0.68492 4.02389,0 7.36286,-0.77053 3.33897,-0.85615 6.24987,-2.39721 2.99651,-1.54106 5.65056,-3.68143 2.73967,-2.14036 5.30811,-4.88003 z m -49.2284,-35.444447 q 7.19162,-6.934784 15.49624,-10.359368 8.30462,-3.424584 18.40714,-3.424584 7.27724,0 12.92781,2.397209 5.65056,2.397209 9.50322,6.677939 3.85266,4.280731 5.82179,10.359371 1.96914,6.07863 1.96914,13.35588 v 55.47826 h -6.76355 q -2.22598,0 -3.42459,-0.68491 -1.1986,-0.77054 -1.88352,-2.9109 l -1.71229,-8.219 q -3.42459,3.16774 -6.67794,5.65056 -3.25336,2.39721 -6.84917,4.1095 -3.59581,1.62668 -7.70532,2.48283 -4.02388,0.94176 -8.98953,0.94176 -5.05126,0 -9.50322,-1.36984 -4.45196,-1.45545 -7.79093,-4.28073 -3.25336,-2.82528 -5.22249,-7.10601 -1.88352,-4.36635 -1.88352,-10.27375 0,-5.13688 2.82528,-9.84568 2.82528,-4.79442 9.16076,-8.47585 6.33548,-3.68143 16.52362,-5.99302 10.18814,-2.39721 24.99947,-2.73967 v -6.76355 q 0,-10.10253 -4.36635,-15.2394 -4.36634,-5.222496 -12.75657,-5.222496 -5.65057,0 -9.50323,1.455449 -3.76704,1.369833 -6.59232,3.167737 -2.73967,1.7123 -4.79442,3.16774 -1.96913,1.36984 -3.93827,1.36984 -1.54106,0 -2.65405,-0.77053 -1.11299,-0.85615 -1.88353,-2.05475 z"
         style="font-style:normal;font-variant:normal;font-weight:normal;font-stretch:normal;font-family:Lato;-inkscape-font-specification:Lato;fill:#ffffff;stroke-width:4.64541245"
         id="path4776"
         inkscape:connector-curvature="0" />
      <path
         d="M 547.51244,125.94778 V 95.725827 h -14.55448 q -4.88003,0 -8.219,1.455448 -3.33897,1.369834 -5.39372,3.595815 -1.96914,2.14036 -2.82529,4.88003 -0.85614,2.65405 -0.85614,5.30811 0,7.02039 5.13688,11.04428 5.13687,3.93827 14.04079,3.93827 z m 14.55449,-40.495706 v 86.727596 h -14.55449 v -36.55744 h -6.67794 q -2.39721,0 -4.02388,0.42808 -1.54107,0.34246 -2.73967,1.02737 -1.11299,0.68492 -1.96914,1.79791 -0.85614,1.02737 -1.7979,2.39721 l -19.00645,25.59877 q -1.45544,2.73966 -3.59581,4.02388 -2.05475,1.28422 -6.07864,1.28422 H 491.0068 l 25.1707,-32.70478 q 3.08212,-5.13687 8.13338,-6.84917 -6.59232,-0.85614 -11.12989,-3.08212 -4.53758,-2.22598 -7.44848,-5.22249 -2.82528,-3.08213 -4.1095,-6.76356 -1.28422,-3.68143 -1.28422,-7.44847 0,-4.45196 1.7123,-8.90392 1.7979,-4.451958 5.65056,-7.876542 3.85266,-3.510199 9.93129,-5.650565 6.16426,-2.225979 14.89695,-2.225979 z"
         style="font-style:normal;font-variant:normal;font-weight:normal;font-stretch:normal;font-family:Lato;-inkscape-font-specification:Lato;fill:#ffffff;stroke-width:4.64541245"
         id="path4778"
         inkscape:connector-curvature="0" />
      <path
         d="m 619.46086,161.47785 q 8.56146,0 13.5271,-3.93828 4.96565,-4.02388 4.96565,-10.95867 0,-3.08212 -0.94176,-5.56495 -0.94176,-2.56843 -3.08212,-4.45196 -2.14037,-1.88352 -5.73618,-2.91089 -3.5102,-1.02738 -8.64708,-1.02738 h -18.7496 v 28.85213 z M 600.79687,95.725827 v 27.225443 h 16.69485 q 3.76704,0 6.93478,-1.02737 3.25336,-1.11299 5.56495,-2.99651 2.3116,-1.96914 3.59582,-4.62319 1.28422,-2.73967 1.28422,-5.99303 0,-2.3972 -0.85615,-4.62318 -0.85615,-2.3116 -2.9109,-4.023891 -2.05475,-1.797907 -5.39372,-2.825282 -3.33897,-1.11299 -8.219,-1.11299 z m 17.12292,-10.273753 q 8.04778,0 13.78396,1.626677 5.73617,1.626678 9.4176,4.45196 3.68143,2.739667 5.39372,6.50671 1.71229,3.767039 1.71229,8.047769 0,2.82529 -0.77053,5.90741 -0.77053,3.08213 -2.73966,5.90741 -1.88353,2.82528 -5.2225,5.13688 -3.25335,2.22598 -8.219,3.5102 9.9313,1.71229 15.32502,6.93478 5.39372,5.13688 5.39372,13.61272 0,6.33548 -2.56844,11.04429 -2.48282,4.62319 -6.93478,7.79093 -4.36635,3.16774 -10.27376,4.7088 -5.90741,1.54106 -12.67096,1.54106 h -33.3897 V 85.452074 Z"
         style="font-style:normal;font-variant:normal;font-weight:normal;font-stretch:normal;font-family:Lato;-inkscape-font-specification:Lato;fill:#ffffff;stroke-width:4.64541245"
         id="path4780"
         inkscape:connector-curvature="0" />
      <path
         d="m 723.7555,89.732804 q 1.1986,-1.883521 3.16774,-3.082126 1.96913,-1.198604 4.19511,-1.198604 h 11.90043 l -22.51664,33.047236 q -2.05475,3.16774 -4.28073,5.22249 -2.22598,1.96914 -5.47933,3.08213 4.1095,1.11299 6.93478,3.5102 2.82528,2.31159 5.05126,5.99302 l 22.77349,35.87252 H 734.8854 q -4.1095,0 -6.33548,-1.36983 -2.22598,-1.36984 -3.85266,-3.93827 l -16.86608,-26.96861 q -4.02389,-6.67793 -12.07166,-6.67793 h -9.33199 v 39.04026 H 671.10251 V 85.452074 h 15.32502 v 37.499196 h 8.219 q 6.84917,0 10.70183,-5.82179 z"
         style="font-style:normal;font-variant:normal;font-weight:normal;font-stretch:normal;font-family:Lato;-inkscape-font-specification:Lato;fill:#ffffff;stroke-width:4.64541245"
         id="path4782"
         inkscape:connector-curvature="0" />
      <path
         d="M 834.55413,85.452074 786.18188,197.77844 q -0.77053,1.71229 -1.96914,2.73967 -1.11299,1.02737 -3.5102,1.02737 h -11.30113 l 15.83871,-34.41707 -35.78691,-81.676336 h 13.18465 q 1.96914,0 3.08213,1.027375 1.1986,0.941761 1.62667,2.140365 l 23.20156,54.622116 q 1.36984,3.59582 2.3116,7.53409 1.1986,-4.02389 2.56844,-7.6197 L 817.9449,88.619814 q 0.51369,-1.369834 1.71229,-2.22598 1.28422,-0.94176 2.82528,-0.94176 z"
         style="font-style:normal;font-variant:normal;font-weight:normal;font-stretch:normal;font-family:Lato;-inkscape-font-specification:Lato;fill:#ffffff;stroke-width:4.64541245"
         id="path4784"
         inkscape:connector-curvature="0" />
    </g>
  </g>
  <g
     aria-label="ОФОРМИТЬ"
     style="font-style:normal;font-weight:normal;font-size:43.40765762px;line-height:1.25;font-family:sans-serif;letter-spacing:0px;word-spacing:0px;fill:#ffffff;fill-opacity:1;stroke:none;stroke-width:1.08519149"
     id="text106-9"
     transform="matrix(0.05053417,0,0,0.05053417,49.880233,10.576707)">
    <g
       aria-label="на доставку груза"
       style="font-style:normal;font-weight:normal;font-size:171.22921753px;line-height:1.25;font-family:sans-serif;letter-spacing:0px;word-spacing:0px;fill:#ffffff;fill-opacity:1;stroke:none;stroke-width:4.64541245"
       id="text49-3">
      <path
         d="m -209.01034,86.993137 v 85.186533 h -8.219 v -42.72169 h -50.59823 v 42.72169 h -8.21901 V 86.993137 h 8.21901 v 36.214983 h 50.59823 V 86.993137 Z"
         style="font-style:normal;font-variant:normal;font-weight:300;font-stretch:normal;font-family:Lato;-inkscape-font-specification:'Lato Light';fill:#ffffff;stroke-width:4.64541245"
         id="path4731"
         inkscape:connector-curvature="0" />
      <path
         d="m -133.38053,130.99905 q -12.15728,0.42807 -20.97558,1.96913 -8.73269,1.45545 -14.46887,4.02389 -5.65056,2.56844 -8.39023,6.16425 -2.73967,3.5102 -2.73967,8.04777 0,4.28073 1.36983,7.44847 1.45545,3.08213 3.76705,5.13688 2.39721,1.96914 5.47933,2.9109 3.08213,0.94176 6.4211,0.94176 4.96564,0 9.07515,-1.02738 4.19511,-1.11299 7.70531,-2.99651 3.59581,-1.96913 6.67794,-4.62319 3.08213,-2.65405 6.07864,-5.73618 z m -50.08455,-31.934254 q 6.67794,-6.677939 14.0408,-10.102523 7.36285,-3.424585 16.69485,-3.424585 6.84916,0 11.98604,2.22598 5.13688,2.140365 8.47585,6.249866 3.42458,4.023887 5.13687,9.845676 1.7123,5.73618 1.7123,12.8422 v 55.47826 h -3.25336 q -2.56844,0 -3.16774,-2.39721 l -1.1986,-10.95867 q -3.5102,3.42459 -7.0204,6.16426 -3.42459,2.73966 -7.19163,4.62318 -3.76704,1.88353 -8.13339,2.9109 -4.36634,1.02738 -9.58883,1.02738 -4.36635,0 -8.47585,-1.28422 -4.1095,-1.28422 -7.36286,-3.93828 -3.16774,-2.65405 -5.13687,-6.76355 -1.88352,-4.19512 -1.88352,-10.01691 0,-5.39372 3.08212,-10.01691 3.08213,-4.62319 9.67445,-8.04777 6.59233,-3.42459 16.86608,-5.47934 10.35937,-2.05475 24.82824,-2.3972 v -8.90392 q 0,-11.81482 -5.13688,-18.150301 -5.05126,-6.421096 -15.06817,-6.421096 -6.16425,0 -10.5306,1.712292 -4.28073,1.712292 -7.27724,3.767043 -2.99651,2.054751 -4.88003,3.767042 -1.88352,1.71229 -3.16774,1.71229 -0.94176,0 -1.54107,-0.42807 -0.5993,-0.42807 -1.02737,-1.11299 z"
         style="font-style:normal;font-variant:normal;font-weight:300;font-stretch:normal;font-family:Lato;-inkscape-font-specification:'Lato Light';fill:#ffffff;stroke-width:4.64541245"
         id="path4733"
         inkscape:connector-curvature="0" />
      <path
         d="M 9.4005555,166.10104 V 93.499847 H -25.016517 q -0.941761,17.037303 -2.910897,29.451423 -1.883521,12.41412 -4.537574,21.0612 -2.568438,8.64707 -5.650564,13.95518 -2.996512,5.3081 -6.078638,8.13339 z m 23.5440175,-0.17123 v 33.90338 q 0,2.73967 -2.568438,2.73967 h -4.708804 v -30.39319 h -81.590722 v 27.99598 q 0,0.94176 -0.599302,1.62668 -0.513688,0.77053 -1.626678,0.77053 h -5.051262 v -36.47182 h 3.33897 q 3.082126,0 6.078637,-1.28422 3.082126,-1.28422 5.907408,-4.53758 2.910897,-3.33897 5.479335,-8.98953 2.568438,-5.73618 4.623189,-14.46887 2.054751,-8.81831 3.595814,-21.06119 1.541063,-12.24289 2.311594,-28.766513 h 49.2284 v 78.936673 z"
         style="font-style:normal;font-variant:normal;font-weight:300;font-stretch:normal;font-family:Lato;-inkscape-font-specification:'Lato Light';fill:#ffffff;stroke-width:4.64541245"
         id="path4735"
         inkscape:connector-curvature="0" />
      <path
         d="m 83.422427,85.623303 q 9.160763,0 16.35239,3.16774 7.277243,3.082126 12.242893,8.818305 4.96564,5.736182 7.53408,13.869562 2.65405,8.04778 2.65405,18.06469 0,10.01691 -2.65405,18.06468 -2.56844,8.04777 -7.53408,13.78395 -4.96565,5.73618 -12.242893,8.81831 -7.191627,3.08212 -16.35239,3.08212 -9.160763,0 -16.438005,-3.08212 -7.191627,-3.08213 -12.242889,-8.81831 -4.965647,-5.73618 -7.6197,-13.78395 -2.568439,-8.04777 -2.568439,-18.06468 0,-10.01691 2.568439,-18.06469 2.654053,-8.13338 7.6197,-13.869562 5.051262,-5.736179 12.242889,-8.818305 7.277242,-3.16774 16.438005,-3.16774 z m 0,81.248267 q 7.6197,0 13.270264,-2.56844 5.736179,-2.65405 9.503219,-7.53409 3.85266,-4.88003 5.73618,-11.7292 1.88352,-6.93478 1.88352,-15.49624 0,-8.47585 -1.88352,-15.41063 -1.88352,-6.93479 -5.73618,-11.81482 -3.76704,-4.965646 -9.503219,-7.619699 -5.650564,-2.654053 -13.270264,-2.654053 -7.6197,0 -13.355879,2.654053 -5.650564,2.654053 -9.503222,7.619699 -3.767043,4.88003 -5.736179,11.81482 -1.883521,6.93478 -1.883521,15.41063 0,8.56146 1.883521,15.49624 1.969136,6.84917 5.736179,11.7292 3.852658,4.88004 9.503222,7.53409 5.736179,2.56844 13.355879,2.56844 z"
         style="font-style:normal;font-variant:normal;font-weight:300;font-stretch:normal;font-family:Lato;-inkscape-font-specification:'Lato Light';fill:#ffffff;stroke-width:4.64541245"
         id="path4737"
         inkscape:connector-curvature="0" />
      <path
         d="m 202.614,98.379879 q -0.42808,0.428074 -0.85615,0.770532 -0.34246,0.256844 -1.02737,0.256844 -0.85615,0 -2.3116,-1.11299 -1.45545,-1.198605 -3.93827,-2.568438 -2.48282,-1.369834 -6.24987,-2.482824 -3.68143,-1.198605 -8.98953,-1.198605 -7.36286,0 -13.09904,2.654053 -5.65056,2.568439 -9.58883,7.448469 -3.93827,4.88003 -5.99303,11.81482 -1.96913,6.93478 -1.96913,15.58186 0,8.98953 2.05475,15.92431 2.14036,6.93479 5.99302,11.72921 3.85266,4.7088 9.33199,7.19162 5.47934,2.48283 12.15728,2.48283 6.16425,0 10.27375,-1.45545 4.19512,-1.45545 6.84917,-3.16774 2.73967,-1.71229 4.28073,-3.16774 1.54106,-1.45545 2.56844,-1.45545 1.02737,0 1.71229,0.85614 l 2.14037,2.73967 q -1.96914,2.56844 -4.96565,4.79442 -2.99651,2.22598 -6.76355,3.85266 -3.76705,1.62668 -8.21901,2.48282 -4.36634,0.94176 -9.16076,0.94176 -8.13339,0 -14.89694,-2.91089 -6.67794,-2.99652 -11.55797,-8.56147 -4.79442,-5.65056 -7.53409,-13.78395 -2.65405,-8.13339 -2.65405,-18.49275 0,-9.76007 2.56844,-17.80784 2.56843,-8.04777 7.53408,-13.869568 4.96565,-5.821794 12.07166,-8.989534 7.19163,-3.253355 16.43801,-3.253355 8.30461,0 14.72571,2.654053 6.42109,2.654053 11.21551,7.191627 z"
         style="font-style:normal;font-variant:normal;font-weight:300;font-stretch:normal;font-family:Lato;-inkscape-font-specification:'Lato Light';fill:#ffffff;stroke-width:4.64541245"
         id="path4739"
         inkscape:connector-curvature="0" />
      <path
         d="m 294.0852,93.243003 h -35.61568 v 78.936667 h -8.219 V 93.243003 h -35.61568 v -6.249866 h 79.45036 z"
         style="font-style:normal;font-variant:normal;font-weight:300;font-stretch:normal;font-family:Lato;-inkscape-font-specification:'Lato Light';fill:#ffffff;stroke-width:4.64541245"
         id="path4741"
         inkscape:connector-curvature="0" />
      <path
         d="m 357.23134,130.99905 q -12.15728,0.42807 -20.97558,1.96913 -8.73269,1.45545 -14.46887,4.02389 -5.65056,2.56844 -8.39023,6.16425 -2.73967,3.5102 -2.73967,8.04777 0,4.28073 1.36983,7.44847 1.45545,3.08213 3.76705,5.13688 2.39721,1.96914 5.47933,2.9109 3.08213,0.94176 6.4211,0.94176 4.96564,0 9.07515,-1.02738 4.19511,-1.11299 7.70531,-2.99651 3.59581,-1.96913 6.67794,-4.62319 3.08213,-2.65405 6.07864,-5.73618 z M 307.14679,99.064796 q 6.67794,-6.677939 14.0408,-10.102523 7.36285,-3.424585 16.69485,-3.424585 6.84916,0 11.98604,2.22598 5.13688,2.140365 8.47585,6.249866 3.42458,4.023887 5.13687,9.845676 1.7123,5.73618 1.7123,12.8422 v 55.47826 h -3.25336 q -2.56844,0 -3.16774,-2.39721 l -1.1986,-10.95867 q -3.5102,3.42459 -7.0204,6.16426 -3.42459,2.73966 -7.19163,4.62318 -3.76704,1.88353 -8.13339,2.9109 -4.36634,1.02738 -9.58883,1.02738 -4.36635,0 -8.47585,-1.28422 -4.1095,-1.28422 -7.36286,-3.93828 -3.16774,-2.65405 -5.13687,-6.76355 -1.88352,-4.19512 -1.88352,-10.01691 0,-5.39372 3.08212,-10.01691 3.08213,-4.62319 9.67445,-8.04777 6.59233,-3.42459 16.86608,-5.47934 10.35937,-2.05475 24.82824,-2.3972 v -8.90392 q 0,-11.81482 -5.13688,-18.150301 -5.05126,-6.421096 -15.06817,-6.421096 -6.16425,0 -10.5306,1.712292 -4.28073,1.712292 -7.27724,3.767043 -2.99651,2.054751 -4.88003,3.767042 -1.88352,1.71229 -3.16774,1.71229 -0.94176,0 -1.54107,-0.42807 -0.5993,-0.42807 -1.02737,-1.11299 z"
         style="font-style:normal;font-variant:normal;font-weight:300;font-stretch:normal;font-family:Lato;-inkscape-font-specification:'Lato Light';fill:#ffffff;stroke-width:4.64541245"
         id="path4743"
         inkscape:connector-curvature="0" />
      <path
         d="m 422.61949,166.35788 q 5.39372,0 9.76007,-1.28422 4.36634,-1.28422 7.36285,-3.68143 2.99651,-2.39721 4.62319,-5.82179 1.62668,-3.42459 1.62668,-7.6197 0,-3.85266 -1.28422,-7.0204 -1.28422,-3.16774 -4.1095,-5.39372 -2.73967,-2.31159 -7.19163,-3.5102 -4.36634,-1.28422 -10.5306,-1.28422 h -22.51664 v 35.61568 z m -22.2598,-73.714179 v 32.619169 h 20.20505 q 4.62319,0 8.56146,-1.19861 3.93827,-1.28422 6.76355,-3.59581 2.82529,-2.3116 4.36635,-5.47934 1.62668,-3.25335 1.62668,-7.19162 0,-2.9109 -1.11299,-5.56495 -1.02738,-2.739671 -3.59582,-4.880036 -2.48282,-2.140365 -6.59232,-3.424584 -4.02389,-1.284219 -10.01691,-1.284219 z m 20.46189,-5.650564 q 7.70532,0 13.09904,1.626677 5.39372,1.541063 8.73269,4.280731 3.33897,2.654052 4.88003,6.249866 1.54106,3.595809 1.54106,7.534089 0,2.82528 -0.85614,5.99302 -0.85615,3.08213 -2.9109,5.99302 -2.05475,2.9109 -5.56495,5.22249 -3.42458,2.3116 -8.64707,3.42459 11.55797,1.36983 17.0373,6.93478 5.47934,5.47934 5.47934,13.78395 0,5.73618 -2.3116,10.27376 -2.22598,4.45196 -6.33548,7.53408 -4.02388,3.08213 -9.76006,4.7088 -5.65057,1.62668 -12.49973,1.62668 H 392.48315 V 86.993137 Z"
         style="font-style:normal;font-variant:normal;font-weight:300;font-stretch:normal;font-family:Lato;-inkscape-font-specification:'Lato Light';fill:#ffffff;stroke-width:4.64541245"
         id="path4745"
         inkscape:connector-curvature="0" />
      <path
         d="m 529.00095,89.390346 q 0.68491,-1.027376 1.7979,-1.712293 1.19861,-0.684916 2.48283,-0.684916 h 6.24986 l -24.99946,33.560923 q -1.96914,2.73967 -4.36635,4.70881 -2.31159,1.88352 -5.65056,2.91089 4.02389,0.85615 6.93478,2.99651 2.9109,2.05476 5.30811,5.56495 l 25.42754,35.44445 h -5.73618 q -2.22598,0 -3.5102,-0.68491 -1.28422,-0.77054 -2.22598,-2.22598 l -21.57488,-30.22196 q -2.48283,-3.59581 -5.99302,-5.39372 -3.42459,-1.88352 -7.79093,-1.88352 h -11.04429 v 40.49571 h -8.219 V 86.993137 h 8.219 v 39.125873 h 9.84568 q 3.59582,0 6.76356,-1.71229 3.25335,-1.71229 5.39372,-4.7088 z"
         style="font-style:normal;font-variant:normal;font-weight:300;font-stretch:normal;font-family:Lato;-inkscape-font-specification:'Lato Light';fill:#ffffff;stroke-width:4.64541245"
         id="path4747"
         inkscape:connector-curvature="0" />
      <path
         d="M 628.19889,86.993137 579.22733,199.57635 q -0.51369,1.1986 -1.36983,1.96913 -0.77054,0.77053 -2.3116,0.77053 h -5.82179 l 14.98255,-33.30408 -36.04375,-82.018793 h 6.76356 q 1.28422,0 2.05475,0.684916 0.77053,0.599303 1.02737,1.369834 l 28.6809,66.265703 q 0.51369,1.28422 0.85614,2.65406 0.42808,1.28422 0.77054,2.65405 0.42807,-1.36983 0.85614,-2.65405 0.51369,-1.36984 1.02738,-2.65406 l 28.33843,-66.265703 q 0.42808,-0.941761 1.19861,-1.455448 0.77053,-0.599302 1.71229,-0.599302 z"
         style="font-style:normal;font-variant:normal;font-weight:300;font-stretch:normal;font-family:Lato;-inkscape-font-specification:'Lato Light';fill:#ffffff;stroke-width:4.64541245"
         id="path4749"
         inkscape:connector-curvature="0" />
      <path
         d="m 744.02477,93.243003 h -44.00591 v 78.936667 h -8.219 V 86.993137 h 52.22491 z"
         style="font-style:normal;font-variant:normal;font-weight:300;font-stretch:normal;font-family:Lato;-inkscape-font-specification:'Lato Light';fill:#ffffff;stroke-width:4.64541245"
         id="path4751"
         inkscape:connector-curvature="0" />
      <path
         d="m 769.24628,153.6013 q 2.48282,3.68143 5.13688,6.24987 2.73966,2.48282 5.73617,4.1095 2.99652,1.54106 6.33549,2.22598 3.42458,0.68492 7.19162,0.68492 7.53409,0 13.18465,-2.73967 5.65057,-2.73967 9.41761,-7.70532 3.85266,-5.05126 5.73618,-11.98604 1.96913,-7.0204 1.96913,-15.41063 0,-19.00644 -7.02039,-27.91036 -7.0204,-8.989537 -20.11944,-8.989537 -8.47584,0 -15.32501,4.366345 -6.84917,4.366342 -12.24289,12.157272 z m -0.34246,-51.28315 q 5.65056,-7.705313 13.18465,-12.242888 7.6197,-4.537574 17.03731,-4.537574 15.66747,0 24.40016,10.873055 8.81831,10.873057 8.81831,32.619167 0,9.33199 -2.48283,17.46538 -2.39721,8.04777 -7.19163,14.0408 -4.7088,5.9074 -11.64358,9.33199 -6.84917,3.42458 -15.8387,3.42458 -8.64708,0 -14.98256,-3.16774 -6.33548,-3.16774 -10.95867,-9.33199 v 41.52308 h -8.219 V 86.993137 h 4.53757 q 2.14037,0 2.48282,2.140365 z"
         style="font-style:normal;font-variant:normal;font-weight:300;font-stretch:normal;font-family:Lato;-inkscape-font-specification:'Lato Light';fill:#ffffff;stroke-width:4.64541245"
         id="path4753"
         inkscape:connector-curvature="0" />
      <path
         d="M 922.16464,86.993137 873.19309,199.57635 q -0.51369,1.1986 -1.36984,1.96913 -0.77053,0.77053 -2.31159,0.77053 h -5.82179 l 14.98255,-33.30408 -36.04375,-82.018793 h 6.76356 q 1.28422,0 2.05475,0.684916 0.77053,0.599303 1.02737,1.369834 l 28.6809,66.265703 q 0.51368,1.28422 0.85614,2.65406 0.42808,1.28422 0.77053,2.65405 0.42808,-1.36983 0.85615,-2.65405 0.51369,-1.36984 1.02738,-2.65406 l 28.33843,-66.265703 q 0.42807,-0.941761 1.19861,-1.455448 0.77053,-0.599302 1.71229,-0.599302 z"
         style="font-style:normal;font-variant:normal;font-weight:300;font-stretch:normal;font-family:Lato;-inkscape-font-specification:'Lato Light';fill:#ffffff;stroke-width:4.64541245"
         id="path4755"
         inkscape:connector-curvature="0" />
      <path
         d="m 933.03772,95.04091 q 4.53757,-4.195116 11.21551,-6.763554 6.76355,-2.654053 15.8387,-2.654053 7.53409,0 13.18465,1.883521 5.65057,1.883522 9.41761,4.965647 3.76704,2.996512 5.56495,6.849169 1.88352,3.85266 1.88352,7.79093 0,2.73967 -1.02738,5.73618 -0.94176,2.9109 -3.16774,5.56495 -2.14036,2.65405 -5.73618,4.88003 -3.51019,2.14037 -8.64707,3.33897 10.27375,2.14037 15.58186,7.96216 5.3081,5.73618 5.3081,13.78395 0,5.56495 -2.48282,10.18814 -2.48282,4.53757 -6.84917,7.87654 -4.36634,3.25336 -10.18814,5.05127 -5.82179,1.7979 -12.49973,1.7979 -4.7088,0 -9.07515,-0.94176 -4.36634,-0.85614 -8.13339,-2.48282 -3.76704,-1.62668 -6.84917,-3.85266 -2.99651,-2.22598 -4.96564,-4.79442 l 2.14036,-2.73967 q 0.68492,-0.85614 1.7123,-0.85614 1.02737,0 2.65405,1.45545 1.71229,1.45545 4.53757,3.16774 2.9109,1.71229 7.10601,3.16774 4.28074,1.45545 10.35937,1.45545 5.65057,0 10.18814,-1.36984 4.53758,-1.45545 7.79093,-3.93827 3.25336,-2.56844 4.96565,-6.07864 1.7979,-3.5102 1.7979,-7.70531 0,-3.93827 -1.71229,-7.19163 -1.62668,-3.33897 -4.96565,-5.65056 -3.25335,-2.39721 -8.13338,-3.68143 -4.88004,-1.36983 -11.21552,-1.36983 h -9.58883 v -5.65057 h 9.58883 q 5.47934,0 9.9313,-1.1986 4.53757,-1.28422 7.6197,-3.42459 3.16774,-2.22598 4.88003,-5.13687 1.71229,-2.99652 1.71229,-6.50671 0,-3.08213 -1.36983,-5.90741 -1.36983,-2.910899 -4.19512,-5.136879 -2.82528,-2.22598 -7.19162,-3.510199 -4.28073,-1.369834 -10.18814,-1.369834 -5.65057,0 -9.67445,1.11299 -4.02389,1.11299 -6.67794,2.482824 -2.65406,1.369834 -4.28073,2.482824 -1.54107,1.11299 -2.3116,1.11299 -0.68491,0 -1.11299,-0.256844 -0.42807,-0.256844 -0.85614,-0.941761 z"
         style="font-style:normal;font-variant:normal;font-weight:300;font-stretch:normal;font-family:Lato;-inkscape-font-specification:'Lato Light';fill:#ffffff;stroke-width:4.64541245"
         id="path4757"
         inkscape:connector-curvature="0" />
      <path
         d="m 1063.2174,130.99905 q -12.1573,0.42807 -20.9756,1.96913 -8.7326,1.45545 -14.4688,4.02389 -5.6506,2.56844 -8.3903,6.16425 -2.7396,3.5102 -2.7396,8.04777 0,4.28073 1.3698,7.44847 1.4555,3.08213 3.7671,5.13688 2.3972,1.96914 5.4793,2.9109 3.0821,0.94176 6.4211,0.94176 4.9656,0 9.0751,-1.02738 4.1951,-1.11299 7.7053,-2.99651 3.5959,-1.96913 6.678,-4.62319 3.0821,-2.65405 6.0786,-5.73618 z m -50.0845,-31.934254 q 6.6779,-6.677939 14.0408,-10.102523 7.3628,-3.424585 16.6948,-3.424585 6.8492,0 11.9861,2.22598 5.1368,2.140365 8.4758,6.249866 3.4246,4.023887 5.1369,9.845676 1.7123,5.73618 1.7123,12.8422 v 55.47826 h -3.2534 q -2.5684,0 -3.1677,-2.39721 l -1.1986,-10.95867 q -3.5102,3.42459 -7.0204,6.16426 -3.4246,2.73966 -7.1916,4.62318 -3.7671,1.88353 -8.1334,2.9109 -4.3664,1.02738 -9.5889,1.02738 -4.3663,0 -8.4758,-1.28422 -4.1095,-1.28422 -7.3629,-3.93828 -3.1677,-2.65405 -5.1368,-6.76355 -1.8836,-4.19512 -1.8836,-10.01691 0,-5.39372 3.0822,-10.01691 3.0821,-4.62319 9.6744,-8.04777 6.5923,-3.42459 16.8661,-5.47934 10.3594,-2.05475 24.8282,-2.3972 v -8.90392 q 0,-11.81482 -5.1369,-18.150301 -5.0512,-6.421096 -15.0681,-6.421096 -6.1643,0 -10.5306,1.712292 -4.2808,1.712292 -7.2773,3.767043 -2.9965,2.054751 -4.88,3.767042 -1.8835,1.71229 -3.1677,1.71229 -0.9418,0 -1.5411,-0.42807 -0.5993,-0.42807 -1.0274,-1.11299 z"
         style="font-style:normal;font-variant:normal;font-weight:300;font-stretch:normal;font-family:Lato;-inkscape-font-specification:'Lato Light';fill:#ffffff;stroke-width:4.64541245"
         id="path4759"
         inkscape:connector-curvature="0" />
    </g>
  </g>
  <g
     id="g5059"
     style="fill:#ffffff">
    <path
       sodipodi:nodetypes="cccccccccccccccccssccccsscccccccccccccccccccccccccccccccccccc"
       inkscape:connector-curvature="0"
       id="rect4831"
       d="M 33.121985,1 V 3.2546924 H 22.144016 v 1.3420338 h 10.977969 v 1.0736051 h -8.991816 v 1.3420343 h 8.991816 V 8.059238 h -7.16661 v 1.3420343 h 7.16661 v 1.2211857 h -5.314561 v 1.342145 h 5.314561 v 7.245371 c 0,0.573395 -0.461658,1.035053 -1.035053,1.035053 h -2.920573 c -0.241422,1.774393 -1.755725,3.09814 -3.546465,3.100188 -1.790782,-0.002 -3.305147,-1.325754 -3.546575,-3.100188 l -9.039421,7e-6 V 2.0350533 c 0,-0.5733949 0.389627,-1.035053 0.963022,-1.035053 z m -7.502091,15.957049 c -1.549076,-1.6e-5 -2.804872,1.25573 -2.804916,2.804806 9.28e-4,0.162047 0.0159,0.323709 0.04474,0.483172 0.01612,0.09211 0.03684,0.183358 0.06208,0.2734 0.02492,0.08869 0.05419,0.176101 0.08771,0.261911 6.65e-4,0.0018 0.0013,0.0036 0.002,0.0054 0.03299,0.08385 0.07,0.166053 0.110907,0.246336 0.0017,0.0035 0.0034,0.0071 0.0051,0.0106 0.04057,0.07868 0.08484,0.155388 0.132668,0.229877 0.0028,0.0046 0.0056,0.0092 0.0084,0.01381 0.04695,0.07212 0.09719,0.142047 0.150563,0.209551 0.0049,0.0065 0.0099,0.01305 0.01491,0.01955 0.05172,0.06408 0.106227,0.125853 0.163377,0.185138 0.0083,0.009 0.01658,0.01795 0.02496,0.02684 0.05508,0.05555 0.112463,0.108763 0.171994,0.159512 0.0122,0.0109 0.0245,0.02169 0.03689,0.03237 0.05823,0.04788 0.118376,0.09339 0.180278,0.136424 0.01506,0.01098 0.03023,0.02181 0.04551,0.03248 0.05971,0.03967 0.120913,0.07703 0.183482,0.112011 0.01981,0.01169 0.03977,0.02315 0.05987,0.03435 0.05975,0.03139 0.120624,0.0606 0.182487,0.0876 0.02454,0.0114 0.04926,0.02245 0.07412,0.03314 0.05872,0.02355 0.118222,0.0451 0.1784,0.06462 0.02944,0.01032 0.05905,0.02015 0.08881,0.02949 0.05722,0.01645 0.114948,0.03107 0.173098,0.04385 0.03395,0.0083 0.06805,0.01596 0.10229,0.02298 0.05355,0.0096 0.107372,0.01755 0.161389,0.02397 0.04072,0.0058 0.08157,0.01077 0.122505,0.0148 0.0786,0.0072 0.157466,0.01113 0.236394,0.01171 0.09352,-6e-6 0.186978,-0.0047 0.280028,-0.01403 1.250581,-0.125702 2.264864,-1.067987 2.482139,-2.305947 l 4.52e-4,-0.0018 c 0.02803,-0.159534 0.04218,-0.321195 0.04231,-0.483172 -4.4e-5,-1.549076 -1.25584,-2.804822 -2.804916,-2.804806 z"
       style="opacity:1;fill:#ffffff;stroke-width:0.10180414;stroke-miterlimit:4;stroke-dasharray:none;stroke-dashoffset:0" />
    <path
       sodipodi:nodetypes="ccccccsccccsccccssscczccccccc"
       inkscape:connector-curvature="0"
       id="path4877-2"
       d="M 12.483051,5.2274863 V 20.245034 h -1.828448 c -0.241416,1.774351 -1.7556565,3.098085 -3.5463542,3.100188 -1.79074,-0.002 -3.3050433,-1.325796 -3.5464651,-3.100188 H 2.2346619 c 0,0 -0.4777861,-0.182625 -0.8051758,-0.510015 C 1.1020964,19.407629 1,18.701733 1,18.701733 v -6.227109 c 0.1856974,-0.809406 0.2150904,-1.476799 1.9209785,-3.6681966 0,0 1.0887972,-1.5015886 1.5258469,-1.9921177 C 4.8838768,6.3237805 5.0559196,6.0580699 5.4287451,5.7911864 5.8015705,5.5243029 6.6365648,5.2274861 6.6365648,5.2274861 Z M 8.3036626,6.4118456 H 6.9392596 L 6.2294325,6.7705004 C 5.9220597,6.9258066 5.088312,8.0507895 4.2119932,9.2029133 3.7540012,9.8050496 3.2657469,10.427697 2.8981608,10.976805 2.3520743,11.792562 2.2302334,12.542213 2.2302334,12.542213 h 5.5402757 c 0,0 0.2432661,-0.113706 0.3347558,-0.205347 0.09149,-0.09164 0.1983977,-0.345085 0.1983977,-0.345085 z M 7.1082488,16.957056 c -1.5491192,-1.7e-5 -2.8049327,1.255797 -2.8049163,2.804916 4.41e-5,1.549076 1.2558401,2.804823 2.8049163,2.804806 1.5490763,1.7e-5 2.804872,-1.25573 2.804916,-2.804806 1.7e-5,-1.549119 -1.2557967,-2.804933 -2.804916,-2.804916 z"
       style="opacity:1;fill:#ffffff;stroke-width:0.11921801;stroke-miterlimit:4;stroke-dasharray:none;stroke-dashoffset:0" />
    <path
       inkscape:connector-curvature="0"
       id="path4989"
       d="M 8.7270847,19.852157 A 1.6165255,1.6165255 0 0 1 7.1105592,21.468682 1.6165255,1.6165255 0 0 1 5.4940338,19.852157 1.6165255,1.6165255 0 0 1 7.1105592,18.235631 1.6165255,1.6165255 0 0 1 8.7270847,19.852157 Z"
       style="opacity:1;fill:#ffffff;stroke-width:3.01846147;stroke-miterlimit:4;stroke-dasharray:none;stroke-dashoffset:0" />
    <path
       inkscape:connector-curvature="0"
       id="path4989-3"
       d="m 27.174119,19.852157 a 1.6165255,1.6165255 0 0 1 -1.616526,1.616525 1.6165255,1.6165255 0 0 1 -1.616525,-1.616525 1.6165255,1.6165255 0 0 1 1.616525,-1.616526 1.6165255,1.6165255 0 0 1 1.616526,1.616526 z"
       style="opacity:1;fill:#ffffff;stroke-width:3.01846147;stroke-miterlimit:4;stroke-dasharray:none;stroke-dashoffset:0" />
    <path
       sodipodi:nodetypes="szscs"
       inkscape:connector-curvature="0"
       id="path5007"
       d="m 29.065275,21.838542 c -0.137528,-0.04753 -0.08306,-0.08231 -0.219738,0.280869 -0.13668,0.36318 -0.60615,0.437224 -0.468623,0.48476 0.137528,0.04753 0.80377,-0.293013 0.851306,-0.430541 0.04753,-0.137528 -0.02542,-0.287552 -0.162945,-0.335088 z"
       style="opacity:1;fill:#ffffff;stroke-width:0.9044711;stroke-miterlimit:4;stroke-dasharray:none;stroke-dashoffset:0" />
    <path
       sodipodi:nodetypes="szscs"
       inkscape:connector-curvature="0"
       id="path5007-3"
       d="m 29.993057,21.914937 c -0.189068,-0.123032 -0.0941,-0.154934 -0.435776,0.340169 -0.341677,0.495105 -1.075621,0.430588 -0.886556,0.553623 0.189067,0.123032 1.31886,-0.139617 1.441894,-0.328683 0.123032,-0.189068 0.0695,-0.442076 -0.119562,-0.565109 z"
       style="opacity:1;fill:#ffffff;stroke-width:1.40212464;stroke-miterlimit:4;stroke-dasharray:none;stroke-dashoffset:0" />
    <path
       sodipodi:nodetypes="szscs"
       inkscape:connector-curvature="0"
       id="path5007-0"
       d="m 10.405463,22.124268 c -0.153718,-0.04753 -0.09284,-0.08231 -0.245607,0.280869 -0.15277,0.36318 -0.6775082,0.437224 -0.5237912,0.48476 0.153718,0.04753 0.8983932,-0.293013 0.9515262,-0.430541 0.05312,-0.137528 -0.02841,-0.287552 -0.182128,-0.335088 z"
       style="opacity:1;fill:#ffffff;stroke-width:0.95622945;stroke-miterlimit:4;stroke-dasharray:none;stroke-dashoffset:0" />
    <path
       sodipodi:nodetypes="szscs"
       inkscape:connector-curvature="0"
       id="path5007-3-4"
       d="m 11.312191,22.200663 c -0.189068,-0.123032 -0.0941,-0.154934 -0.435776,0.340169 -0.341677,0.495105 -1.0756212,0.430588 -0.8865562,0.553623 0.1890672,0.123032 1.3188602,-0.139617 1.4418942,-0.328683 0.123032,-0.189068 0.0695,-0.442076 -0.119562,-0.565109 z"
       style="opacity:1;fill:#ffffff;stroke-width:1.40212464;stroke-miterlimit:4;stroke-dasharray:none;stroke-dashoffset:0" />
  </g>
</svg>
