<?xml version="1.0" encoding="UTF-8" standalone="no"?>
<svg
   xmlns:dc="http://purl.org/dc/elements/1.1/"
   xmlns:cc="http://creativecommons.org/ns#"
   xmlns:rdf="http://www.w3.org/1999/02/22-rdf-syntax-ns#"
   xmlns:svg="http://www.w3.org/2000/svg"
   xmlns="http://www.w3.org/2000/svg"
   xmlns:sodipodi="http://sodipodi.sourceforge.net/DTD/sodipodi-0.dtd"
   xmlns:inkscape="http://www.inkscape.org/namespaces/inkscape"
   height="35.114258"
   viewBox="0 0 97.320458 35.114258"
   width="97.320457"
   version="1.1"
   id="svg4"
   sodipodi:docname="truck.svg"
   inkscape:version="0.92.2 (5c3e80d, 2017-08-06)">
  <metadata
     id="metadata10">
    <rdf:RDF>
      <cc:Work
         rdf:about="">
        <dc:format>image/svg+xml</dc:format>
        <dc:type
           rdf:resource="http://purl.org/dc/dcmitype/StillImage" />
        <dc:title></dc:title>
      </cc:Work>
    </rdf:RDF>
  </metadata>
  <defs
     id="defs8" />
  <sodipodi:namedview
     pagecolor="#ffffff"
     bordercolor="#666666"
     borderopacity="1"
     objecttolerance="10"
     gridtolerance="10"
     guidetolerance="10"
     inkscape:pageopacity="0"
     inkscape:pageshadow="2"
     inkscape:window-width="2560"
     inkscape:window-height="1315"
     id="namedview6"
     showgrid="false"
     inkscape:zoom="16.857143"
     inkscape:cx="58.771567"
     inkscape:cy="10.854473"
     inkscape:window-x="-13"
     inkscape:window-y="-13"
     inkscape:window-maximized="1"
     inkscape:current-layer="svg4"
     showguides="false"
     fit-margin-top="1"
     fit-margin-left="1"
     fit-margin-right="1"
     fit-margin-bottom="1" />
  <path
     d="m 12.194837,25.65234 q 0,-1.028711 -0.785512,-1.780462 -0.785515,-0.75175 -1.8604174,-0.75175 -1.0749026,0 -1.8604162,0.75175 -0.7855262,0.751751 -0.7855262,1.780462 0,1.028711 0.7855262,1.780461 0.7855136,0.75175 1.8604162,0.75175 1.0749024,0 1.8604174,-0.75175 0.785512,-0.75175 0.785512,-1.780461 z M 4.2570488,15.523491 H 12.194837 V 10.45907 H 8.9287686 q -0.2687291,0 -0.4547636,0.178046 L 4.4430839,14.494782 Q 4.2570488,14.672826 4.2570488,14.930005 Z M 30.716368,25.65234 q 0,-1.028711 -0.785513,-1.780462 -0.785513,-0.75175 -1.860428,-0.75175 -1.074904,0 -1.86043,0.75175 -0.785501,0.751751 -0.785501,1.780462 0,1.028711 0.785501,1.780461 0.785526,0.75175 1.86043,0.75175 1.074915,0 1.860428,-0.75175 0.785513,-0.75175 0.785513,-1.780461 z M 36.008227,4.1285401 V 24.386233 q 0,0.296744 -0.08269,0.524247 -0.0827,0.227503 -0.27906,0.365984 -0.196378,0.138481 -0.34108,0.227504 -0.1447,0.08901 -0.48578,0.118698 -0.341066,0.02967 -0.465108,0.03958 -0.124041,0.0099 -0.527102,0 -0.403099,-0.0099 -0.46512,-0.0099 0,2.096986 -1.550353,3.580704 -1.550339,1.483718 -3.741504,1.483718 -2.191153,0 -3.741506,-1.483718 -1.550354,-1.483718 -1.550354,-3.580704 h -7.9378 q 0,2.096986 -1.550354,3.580704 -1.550353,1.483718 -3.7415054,1.483718 -2.1911654,0 -3.7415186,-1.483718 Q 4.2570359,27.749323 4.2570359,25.652335 H 2.9340777 q -0.062084,0 -0.4651073,0.0099 -0.4030998,0.0099 -0.5271146,0 -0.1240406,-0.0099 -0.46512,-0.03957 Q 1.1356691,25.592995 0.9909679,25.50397 0.8462669,25.41494 0.6498885,25.276467 0.4535102,25.137986 0.3708294,24.910483 q -0.082694,-0.227502 -0.082694,-0.524246 0,-0.514356 0.3927567,-0.890232 0.3927565,-0.375875 0.9302015,-0.375875 v -6.330528 q 0,-0.158264 -0.010305,-0.692404 -0.010305,-0.534138 0,-0.75175 0.010305,-0.21761 0.051652,-0.682509 0.041475,-0.4649 0.1343709,-0.731968 0.092998,-0.267069 0.2894024,-0.603378 0.1963654,-0.33631 0.4651071,-0.593487 L 6.6342363,8.8170897 Q 7.026993,8.4412158 7.6781354,8.1840376 8.3292778,7.9268606 8.8874087,7.9268606 H 12.194824 V 4.1285415 q 0,-0.5143552 0.39277,-0.8902304 0.392743,-0.3758751 0.930201,-0.3758751 h 21.167449 q 0.537457,0 0.930213,0.3758751 0.392756,0.3758752 0.392756,0.8902304 z"
     id="path2"
     inkscape:connector-curvature="0"
     style="fill:#ffffff;stroke:none;stroke-width:0.02022224" />
  <text
     xml:space="preserve"
     style="font-style:normal;font-variant:normal;font-weight:normal;font-stretch:normal;font-size:0.84876561px;line-height:1.25;font-family:'Century Gothic';-inkscape-font-specification:'Century Gothic, Normal';font-variant-ligatures:normal;font-variant-caps:normal;font-variant-numeric:normal;text-align:start;letter-spacing:0px;word-spacing:0px;writing-mode:lr-tb;text-anchor:start;fill:#ffffff;fill-opacity:1;stroke:none;stroke-width:0.02893519;"
     x="-17.520365"
     y="32.24976"
     id="text819"><tspan
       sodipodi:role="line"
       id="tspan817"
       x="-17.520365"
       y="33.020332"
       style="line-height:63.84999847;fill:#ffffff;stroke-width:0.02893519;" /></text>
  <text
     xml:space="preserve"
     style="font-style:normal;font-variant:normal;font-weight:normal;font-stretch:normal;font-size:29.33333397px;line-height:1.25;font-family:Lato;-inkscape-font-specification:Lato;font-variant-ligatures:normal;font-variant-caps:normal;font-variant-numeric:normal;text-align:start;letter-spacing:0px;word-spacing:0px;writing-mode:lr-tb;text-anchor:start;fill:#ffffff;fill-opacity:1;stroke:none;"
     x="33.457661"
     y="20.399792"
     id="text818"><tspan
       sodipodi:role="line"
       id="tspan816"
       x="33.457661"
       y="47.679794" /></text>
  <text
     xml:space="preserve"
     style="font-style:normal;font-variant:normal;font-weight:normal;font-stretch:normal;font-size:7.45522118px;line-height:1.25;font-family:Lato;-inkscape-font-specification:Lato;font-variant-ligatures:normal;font-variant-caps:normal;font-variant-numeric:normal;text-align:start;letter-spacing:0px;word-spacing:0px;writing-mode:lr-tb;text-anchor:start;fill:#ffffff;fill-opacity:1;stroke:none;stroke-width:0.25415525;"
     x="37.15881"
     y="22.992935"
     id="text960-67"><tspan
       sodipodi:role="line"
       x="37.15881"
       y="22.992935"
       style="font-style:normal;font-variant:normal;font-weight:300;font-stretch:normal;font-family:Lato;-inkscape-font-specification:'Lato Light';fill:#ffffff;stroke-width:0.25415525;"
       id="tspan996">на доставку груза</tspan></text>
  <text
     xml:space="preserve"
     style="font-style:normal;font-variant:normal;font-weight:normal;font-stretch:normal;font-size:9.03053856px;line-height:1.25;font-family:Lato;-inkscape-font-specification:Lato;font-variant-ligatures:normal;font-variant-caps:normal;font-variant-numeric:normal;text-align:start;letter-spacing:0px;word-spacing:0px;writing-mode:lr-tb;text-anchor:start;fill:#ffffff;fill-opacity:1;stroke:none;stroke-width:0.30785924;"
     x="36.991688"
     y="12.892262"
     id="text960-67-7"><tspan
       sodipodi:role="line"
       x="36.991688"
       y="12.892262"
       style="font-style:normal;font-variant:normal;font-weight:normal;font-stretch:normal;font-family:Lato;-inkscape-font-specification:Lato;fill:#ffffff;stroke-width:0.30785924;"
       id="tspan996-0">Подать заявку</tspan></text>
</svg>
