<?xml version="1.0" encoding="UTF-8" standalone="no"?>
<svg
   xmlns:dc="http://purl.org/dc/elements/1.1/"
   xmlns:cc="http://creativecommons.org/ns#"
   xmlns:rdf="http://www.w3.org/1999/02/22-rdf-syntax-ns#"
   xmlns:svg="http://www.w3.org/2000/svg"
   xmlns="http://www.w3.org/2000/svg"
   xmlns:sodipodi="http://sodipodi.sourceforge.net/DTD/sodipodi-0.dtd"
   xmlns:inkscape="http://www.inkscape.org/namespaces/inkscape"
   height="35.114258"
   viewBox="0 0 97.320458 35.114258"
   width="97.320457"
   version="1.1"
   id="svg4"
   sodipodi:docname="truck.svg"
   inkscape:version="0.92.2 (5c3e80d, 2017-08-06)">
  <metadata
     id="metadata10">
    <rdf:RDF>
      <cc:Work
         rdf:about="">
        <dc:format>image/svg+xml</dc:format>
        <dc:type
           rdf:resource="http://purl.org/dc/dcmitype/StillImage" />
        <dc:title />
      </cc:Work>
    </rdf:RDF>
  </metadata>
  <defs
     id="defs8" />
  <sodipodi:namedview
     pagecolor="#ffffff"
     bordercolor="#666666"
     borderopacity="1"
     objecttolerance="10"
     gridtolerance="10"
     guidetolerance="10"
     inkscape:pageopacity="0"
     inkscape:pageshadow="2"
     inkscape:window-width="2560"
     inkscape:window-height="1315"
     id="namedview6"
     showgrid="false"
     inkscape:zoom="16.857143"
     inkscape:cx="54.113949"
     inkscape:cy="26.483749"
     inkscape:window-x="-13"
     inkscape:window-y="-13"
     inkscape:window-maximized="1"
     inkscape:current-layer="svg4"
     showguides="true"
     fit-margin-top="1"
     fit-margin-left="1"
     fit-margin-right="1"
     fit-margin-bottom="1"
     inkscape:guide-bbox="true">
    <sodipodi:guide
       position="34.688559,32.256356"
       orientation="0,1"
       id="guide820"
       inkscape:locked="false" />
    <sodipodi:guide
       position="36.008213,30.985716"
       orientation="1,0"
       id="guide822"
       inkscape:locked="false" />
    <sodipodi:guide
       position="12.206581,31.009329"
       orientation="1,0"
       id="guide824"
       inkscape:locked="false" />
  </sodipodi:namedview>
  <path
     d="m 12.194837,25.65234 c 0,-0.685807 -0.261837,-1.279295 -0.785512,-1.780462 -0.523677,-0.501167 -1.143816,-0.75175 -1.8604174,-0.75175 -0.7166017,0 -1.3367405,0.250583 -1.8604162,0.75175 -0.5236841,0.501167 -0.7855262,1.094655 -0.7855262,1.780462 0,0.685807 0.2618421,1.279294 0.7855262,1.780461 0.5236757,0.501167 1.1438145,0.75175 1.8604162,0.75175 0.7166014,0 1.3367404,-0.250583 1.8604174,-0.75175 0.523675,-0.501167 0.785512,-1.094654 0.785512,-1.780461 z M 4.2570488,15.523491 H 12.194837 V 10.45907 H 8.9287686 c -0.1791527,0 -0.3307406,0.05935 -0.4547636,0.178046 l -4.0309211,3.857666 c -0.1240234,0.118696 -0.1860351,0.26377 -0.1860351,0.435223 z M 30.716368,25.65234 c 0,-0.685807 -0.261838,-1.279295 -0.785513,-1.780462 -0.523675,-0.501167 -1.143818,-0.75175 -1.860428,-0.75175 -0.716603,0 -1.336746,0.250583 -1.86043,0.75175 -0.523667,0.501167 -0.785501,1.094655 -0.785501,1.780462 0,0.685807 0.261834,1.279294 0.785501,1.780461 0.523684,0.501167 1.143827,0.75175 1.86043,0.75175 0.71661,0 1.336753,-0.250583 1.860428,-0.75175 0.523675,-0.501167 0.785513,-1.094654 0.785513,-1.780461 z M 36.008227,4.1285401 V 24.386233 c 0,0.197829 -0.02756,0.372578 -0.08269,0.524247 -0.05513,0.151669 -0.148153,0.273663 -0.27906,0.365984 -0.130919,0.09232 -0.244612,0.168155 -0.34108,0.227504 -0.09647,0.05934 -0.258393,0.09891 -0.48578,0.118698 -0.227377,0.01978 -0.382413,0.03297 -0.465108,0.03958 -0.08269,0.0066 -0.258395,0.0066 -0.527102,0 -0.268733,-0.0066 -0.423773,-0.0099 -0.46512,-0.0099 0,1.397991 -0.516784,2.591559 -1.550353,3.580704 -1.033559,0.989145 -2.280727,1.483718 -3.741504,1.483718 -1.460769,0 -2.707937,-0.494573 -3.741506,-1.483718 -1.033569,-0.989145 -1.550354,-2.182713 -1.550354,-3.580704 h -7.9378 c 0,1.397991 -0.516785,2.591559 -1.550354,3.580704 -1.033569,0.989145 -2.280737,1.483718 -3.7415054,1.483718 -1.4607769,0 -2.7079498,-0.494573 -3.7415186,-1.483718 C 4.7738213,28.243899 4.2570359,27.050327 4.2570359,25.652335 H 2.9340777 c -0.041389,0 -0.1964251,0.0033 -0.4651073,0.0099 -0.2687332,0.0066 -0.4444381,0.0066 -0.5271146,0 -0.082694,-0.0066 -0.2377337,-0.01979 -0.46512,-0.03957 C 1.249358,25.602885 1.0874354,25.56332 0.9909679,25.50397 0.89450057,25.444617 0.78080743,25.368782 0.6498885,25.276467 0.51896963,25.184146 0.42594993,25.062152 0.3708294,24.910483 c -0.0551293,-0.151668 -0.082694,-0.326417 -0.082694,-0.524246 0,-0.342904 0.1309189,-0.639648 0.3927567,-0.890232 0.26183767,-0.250583 0.5719048,-0.375875 0.9302015,-0.375875 v -6.330528 c 0,-0.105509 -0.00344,-0.336311 -0.010305,-0.692404 -0.00687,-0.356092 -0.00687,-0.606675 0,-0.75175 0.00687,-0.145073 0.024087,-0.372576 0.051652,-0.682509 0.02765,-0.309933 0.07244,-0.553923 0.1343709,-0.731968 0.061999,-0.178046 0.1584661,-0.379172 0.2894024,-0.603378 0.1309103,-0.224207 0.285946,-0.422036 0.4651071,-0.593487 L 6.6342363,8.8170897 c 0.2618378,-0.2505826 0.6098042,-0.4616 1.0438991,-0.6330521 0.4340949,-0.1714513 0.837186,-0.257177 1.2092733,-0.257177 h 3.3074153 l 0.01176,-5.0689586 c 0,0 18.095544,0.159687 23.801632,0 z"
     id="path2"
     inkscape:connector-curvature="0"
     style="fill:#ffffff;stroke:none;stroke-width:0.02022224"
     sodipodi:nodetypes="scscscscscccsccscssscscssscsccccccccssccssccsccccccsccsssccccccscccc" />
  <text
     xml:space="preserve"
     style="font-style:normal;font-variant:normal;font-weight:normal;font-stretch:normal;font-size:0.84876561px;line-height:1.25;font-family:'Century Gothic';-inkscape-font-specification:'Century Gothic, Normal';font-variant-ligatures:normal;font-variant-caps:normal;font-variant-numeric:normal;text-align:start;letter-spacing:0px;word-spacing:0px;writing-mode:lr-tb;text-anchor:start;fill:#ffffff;fill-opacity:1;stroke:none;stroke-width:0.02893519;"
     x="-17.520365"
     y="32.24976"
     id="text819"><tspan
       sodipodi:role="line"
       id="tspan817"
       x="-17.520365"
       y="33.020332"
       style="line-height:63.84999847;fill:#ffffff;stroke-width:0.02893519;" /></text>
  <text
     xml:space="preserve"
     style="font-style:normal;font-variant:normal;font-weight:normal;font-stretch:normal;font-size:29.33333397px;line-height:1.25;font-family:Lato;-inkscape-font-specification:Lato;font-variant-ligatures:normal;font-variant-caps:normal;font-variant-numeric:normal;text-align:start;letter-spacing:0px;word-spacing:0px;writing-mode:lr-tb;text-anchor:start;fill:#ffffff;fill-opacity:1;stroke:none;"
     x="33.457661"
     y="20.399792"
     id="text818"><tspan
       sodipodi:role="line"
       id="tspan816"
       x="33.457661"
       y="47.679794" /></text>
  <text
     xml:space="preserve"
     style="font-style:normal;font-variant:normal;font-weight:normal;font-stretch:normal;font-size:7.45522118px;line-height:1.25;font-family:Lato;-inkscape-font-specification:Lato;font-variant-ligatures:normal;font-variant-caps:normal;font-variant-numeric:normal;text-align:start;letter-spacing:0px;word-spacing:0px;writing-mode:lr-tb;text-anchor:start;fill:#ffffff;fill-opacity:1;stroke:none;stroke-width:0.25415525;"
     x="36.506264"
     y="22.696323"
     id="text960-67"><tspan
       sodipodi:role="line"
       x="36.506264"
       y="22.696323"
       style="font-style:normal;font-variant:normal;font-weight:300;font-stretch:normal;font-family:Lato;-inkscape-font-specification:'Lato Light';fill:#ffffff;stroke-width:0.25415525;"
       id="tspan996">на доставку груза</tspan></text>
  <text
     xml:space="preserve"
     style="font-style:normal;font-variant:normal;font-weight:normal;font-stretch:normal;font-size:9.03053856px;line-height:1.25;font-family:Lato;-inkscape-font-specification:Lato;font-variant-ligatures:normal;font-variant-caps:normal;font-variant-numeric:normal;text-align:start;letter-spacing:0px;word-spacing:0px;writing-mode:lr-tb;text-anchor:start;fill:#ffffff;fill-opacity:1;stroke:none;stroke-width:0.30785924;"
     x="36.339142"
     y="12.595651"
     id="text960-67-7"><tspan
       sodipodi:role="line"
       x="36.339142"
       y="12.595651"
       style="font-style:normal;font-variant:normal;font-weight:normal;font-stretch:normal;font-family:Lato;-inkscape-font-specification:Lato;fill:#ffffff;stroke-width:0.30785924;"
       id="tspan996-0">Подать заявку</tspan></text>
</svg>
