<?xml version="1.0" encoding="UTF-8" standalone="no"?>
<svg
   xmlns:dc="http://purl.org/dc/elements/1.1/"
   xmlns:cc="http://creativecommons.org/ns#"
   xmlns:rdf="http://www.w3.org/1999/02/22-rdf-syntax-ns#"
   xmlns:svg="http://www.w3.org/2000/svg"
   xmlns="http://www.w3.org/2000/svg"
   xmlns:sodipodi="http://sodipodi.sourceforge.net/DTD/sodipodi-0.dtd"
   xmlns:inkscape="http://www.inkscape.org/namespaces/inkscape"
   height="44.454494"
   id="Layer_1"
   version="1.1"
   viewBox="0 0 50 44.454494"
   width="50"
   xml:space="preserve"
   sodipodi:docname="user.svg"
   inkscape:version="0.92.2 (5c3e80d, 2017-08-06)"><metadata
     id="metadata11"><rdf:RDF><cc:Work
         rdf:about=""><dc:format>image/svg+xml</dc:format><dc:type
           rdf:resource="http://purl.org/dc/dcmitype/StillImage" /><dc:title /></cc:Work></rdf:RDF></metadata><defs
     id="defs9" /><sodipodi:namedview
     pagecolor="#ffffff"
     bordercolor="#666666"
     borderopacity="1"
     objecttolerance="10"
     gridtolerance="10"
     guidetolerance="10"
     inkscape:pageopacity="0"
     inkscape:pageshadow="2"
     inkscape:window-width="2560"
     inkscape:window-height="1315"
     id="namedview7"
     showgrid="false"
     fit-margin-top="0"
     fit-margin-left="0"
     fit-margin-right="0"
     fit-margin-bottom="0"
     inkscape:zoom="14.75"
     inkscape:cx="1.4576271"
     inkscape:cy="16.422413"
     inkscape:window-x="-13"
     inkscape:window-y="-13"
     inkscape:window-maximized="1"
     inkscape:current-layer="Layer_1" /><g
     transform="matrix(1.4150016,0,0,1.4150016,274.04665,64.073826)"
     id="g4"
     style="fill:#ffffff"><path
       d="m -162.671,-23.382 c -0.005,-1.228 -0.866,-1.256 -1.894,-1.668 l -4.801,-1.924 c -0.084,-0.033 -0.166,-0.068 -0.247,-0.104 v -0.002 c -0.853,-0.387 -1.606,-0.924 -1.883,-1.303 l -0.011,-0.012 -0.003,-0.006 c -0.016,-0.023 -0.033,-0.049 -0.047,-0.072 l -0.011,-0.021 -0.003,-0.005 -0.01,-0.012 v -0.002 c -0.128,-0.191 -0.257,-0.277 -0.366,-0.24 l -0.007,0.003 -0.003,0.001 -0.001,10e-4 -0.006,0.004 h -0.004 l -0.006,0.006 c -0.13,0.067 -0.104,-0.006 -0.157,-0.148 -0.13,-0.352 -0.344,-1.02 -0.377,-1.117 -0.05,-0.184 -0.184,0.289 -0.153,-0.221 l 0.056,-0.92 c 0.088,-0.096 0.159,-0.174 0.208,-0.228 0.313,-0.357 0.334,-1.303 0.49,-1.533 0.157,-0.23 0.472,-0.279 0.784,-1.354 0.314,-1.072 0.696,-2.605 0.293,-2.631 -0.099,-0.006 -0.211,0.059 -0.327,0.16 0.071,-0.394 0.221,-1.287 0.254,-1.947 0.046,-0.869 -0.099,-3.097 -0.593,-3.912 -0.309,-0.51 -0.932,-1.016 -1.553,-1.41 -0.372,-0.237 -0.743,-0.434 -1.047,-0.567 -0.905,-0.401 -3.757,-0.217 -4.724,0 -1.1,0.246 -1.871,0.937 -2.363,1.755 -0.492,0.817 -0.711,3.268 -0.668,4.137 0.021,0.39 0.254,1.047 0.313,1.449 0.034,0.209 0.065,0.211 0.091,0.36 -0.041,-0.017 -0.081,-0.024 -0.117,-0.022 -0.404,0.025 -0.022,1.558 0.291,2.631 0.313,1.072 0.627,1.123 0.783,1.354 0.157,0.23 0.18,1.176 0.493,1.533 0.05,0.058 0.125,0.139 0.219,0.238 l 0.061,0.752 0.105,0.418 c -0.048,-0.12 -0.144,-0.197 -0.188,-0.041 -0.135,0.41 -0.271,0.82 -0.405,1.23 -0.014,-0.021 -0.036,-0.033 -0.061,-0.035 -0.131,-0.115 -0.308,-0.016 -0.468,0.252 -0.236,0.396 -1.021,0.965 -1.932,1.375 l -0.013,0.049 -0.014,0.051 -0.005,0.021 c -0.071,0.03 -0.144,0.062 -0.217,0.09 l -4.8,1.924 c -1.027,0.41 -1.888,0.44 -1.895,1.668 l -0.795,4.181 h 28.801 l -1.07,-4.181 z"
       id="path2"
       style="fill:#ffffff"
       inkscape:connector-curvature="0" /></g><text
     xml:space="preserve"
     style="font-style:normal;font-variant:normal;font-weight:normal;font-stretch:normal;font-size:6.49360418px;line-height:1.25;font-family:Lato;-inkscape-font-specification:Lato;font-variant-ligatures:normal;font-variant-caps:normal;font-variant-numeric:normal;text-align:start;letter-spacing:0px;word-spacing:0px;writing-mode:lr-tb;text-anchor:start;fill:#ffffff;fill-opacity:1;stroke:none;stroke-width:0.22137287;"
     x="0.62869227"
     y="43.881214"
     id="text818"><tspan
       sodipodi:role="line"
       id="tspan816"
       x="0.62869227"
       y="43.881214"
       style="font-style:normal;font-variant:normal;font-weight:300;font-stretch:normal;font-family:Lato;-inkscape-font-specification:'Lato Light';fill:#ffffff;stroke-width:0.22137287;">Личный кабинет</tspan></text>
</svg>