<?xml version="1.0" encoding="UTF-8" standalone="no"?>
<svg
   xmlns:dc="http://purl.org/dc/elements/1.1/"
   xmlns:cc="http://creativecommons.org/ns#"
   xmlns:rdf="http://www.w3.org/1999/02/22-rdf-syntax-ns#"
   xmlns:svg="http://www.w3.org/2000/svg"
   xmlns="http://www.w3.org/2000/svg"
   xmlns:sodipodi="http://sodipodi.sourceforge.net/DTD/sodipodi-0.dtd"
   xmlns:inkscape="http://www.inkscape.org/namespaces/inkscape"
   height="42.904282"
   id="Layer_1"
   version="1.1"
   viewBox="0 0 48.306313 42.904281"
   width="48.306313"
   xml:space="preserve"
   sodipodi:docname="user.svg"
   inkscape:version="0.92.3 (2405546, 2018-03-11)"><metadata
   id="metadata11"><rdf:RDF><cc:Work
       rdf:about=""><dc:format>image/svg+xml</dc:format><dc:type
         rdf:resource="http://purl.org/dc/dcmitype/StillImage" /><dc:title></dc:title></cc:Work></rdf:RDF></metadata><defs
   id="defs9" /><sodipodi:namedview
   pagecolor="#ffffff"
   bordercolor="#666666"
   borderopacity="1"
   objecttolerance="10"
   gridtolerance="10"
   guidetolerance="10"
   inkscape:pageopacity="0"
   inkscape:pageshadow="2"
   inkscape:window-width="2560"
   inkscape:window-height="1315"
   id="namedview7"
   showgrid="false"
   fit-margin-top="0"
   fit-margin-left="0"
   fit-margin-right="0"
   fit-margin-bottom="0"
   inkscape:zoom="14.75"
   inkscape:cx="42.024605"
   inkscape:cy="15.550166"
   inkscape:window-x="-13"
   inkscape:window-y="-13"
   inkscape:window-maximized="1"
   inkscape:current-layer="Layer_1" /><g
   transform="matrix(1.4150016,0,0,1.4150016,273.0882,63.395862)"
   id="g4"
   style="fill:#ffffff"><path
     d="m -162.671,-23.382 c -0.005,-1.228 -0.866,-1.256 -1.894,-1.668 l -4.801,-1.924 c -0.084,-0.033 -0.166,-0.068 -0.247,-0.104 v -0.002 c -0.853,-0.387 -1.606,-0.924 -1.883,-1.303 l -0.011,-0.012 -0.003,-0.006 c -0.016,-0.023 -0.033,-0.049 -0.047,-0.072 l -0.011,-0.021 -0.003,-0.005 -0.01,-0.012 v -0.002 c -0.128,-0.191 -0.257,-0.277 -0.366,-0.24 l -0.007,0.003 -0.003,0.001 -0.001,10e-4 -0.006,0.004 h -0.004 l -0.006,0.006 c -0.13,0.067 -0.104,-0.006 -0.157,-0.148 -0.13,-0.352 -0.344,-1.02 -0.377,-1.117 -0.05,-0.184 -0.184,0.289 -0.153,-0.221 l 0.056,-0.92 c 0.088,-0.096 0.159,-0.174 0.208,-0.228 0.313,-0.357 0.334,-1.303 0.49,-1.533 0.157,-0.23 0.472,-0.279 0.784,-1.354 0.314,-1.072 0.696,-2.605 0.293,-2.631 -0.099,-0.006 -0.211,0.059 -0.327,0.16 0.071,-0.394 0.221,-1.287 0.254,-1.947 0.046,-0.869 -0.099,-3.097 -0.593,-3.912 -0.309,-0.51 -0.932,-1.016 -1.553,-1.41 -0.372,-0.237 -0.743,-0.434 -1.047,-0.567 -0.905,-0.401 -3.757,-0.217 -4.724,0 -1.1,0.246 -1.871,0.937 -2.363,1.755 -0.492,0.817 -0.711,3.268 -0.668,4.137 0.021,0.39 0.254,1.047 0.313,1.449 0.034,0.209 0.065,0.211 0.091,0.36 -0.041,-0.017 -0.081,-0.024 -0.117,-0.022 -0.404,0.025 -0.022,1.558 0.291,2.631 0.313,1.072 0.627,1.123 0.783,1.354 0.157,0.23 0.18,1.176 0.493,1.533 0.05,0.058 0.125,0.139 0.219,0.238 l 0.061,0.752 0.105,0.418 c -0.048,-0.12 -0.144,-0.197 -0.188,-0.041 -0.135,0.41 -0.271,0.82 -0.405,1.23 -0.014,-0.021 -0.036,-0.033 -0.061,-0.035 -0.131,-0.115 -0.308,-0.016 -0.468,0.252 -0.236,0.396 -1.021,0.965 -1.932,1.375 l -0.013,0.049 -0.014,0.051 -0.005,0.021 c -0.071,0.03 -0.144,0.062 -0.217,0.09 l -4.8,1.924 c -1.027,0.41 -1.888,0.44 -1.895,1.668 l -0.795,4.181 h 28.801 l -1.07,-4.181 z"
     id="path2"
     style="fill:#ffffff"
     inkscape:connector-curvature="0" /></g><g
   aria-label="Личный кабинет"
   style="font-style:normal;font-variant:normal;font-weight:normal;font-stretch:normal;font-size:6.49360418px;line-height:1.25;font-family:Lato;-inkscape-font-specification:Lato;font-variant-ligatures:normal;font-variant-caps:normal;font-variant-numeric:normal;text-align:start;letter-spacing:0px;word-spacing:0px;writing-mode:lr-tb;text-anchor:start;fill:#ffffff;fill-opacity:1;stroke:none;stroke-width:0.22137287"
   id="text818"
   transform="matrix(0.86416308,0,0,0.92105048,-0.82825331,2.3881685)"><path
     d="M 0.95844561,43.969994 V 43.690972 Q 1.5323432,43.541949 1.8430723,42.761955 2.2140449,41.832939 2.2140449,40.04149 v -0.894139 h 2.4953449 v 4.733863 H 4.3859779 V 39.41052 H 2.5311154 v 0.948041 q 0,1.537792 -0.3804847,2.501686 -0.3741432,0.929017 -1.19218509,1.109747 z"
     style="font-style:normal;font-variant:normal;font-weight:300;font-stretch:normal;font-family:Lato;-inkscape-font-specification:'Lato Light';fill:#ffffff;stroke-width:0.22137287"
     id="path10"
     inkscape:connector-curvature="0" /><path
     d="m 6.2471818,43.881214 v -3.55119 h 0.2917049 v 3.23412 l 2.0799826,-3.23412 h 0.4343866 v 3.55119 H 8.761551 v -3.240461 l -2.0894947,3.240461 z"
     style="font-style:normal;font-variant:normal;font-weight:300;font-stretch:normal;font-family:Lato;-inkscape-font-specification:'Lato Light';fill:#ffffff;stroke-width:0.22137287"
     id="path12"
     inkscape:connector-curvature="0" /><path
     d="M 12.588592,43.881214 V 42.276837 H 11.58982 q -0.567556,0 -0.871944,-0.329753 -0.301217,-0.291705 -0.301217,-0.67219 v -0.94487 h 0.291705 v 0.909993 q 0,0.3139 0.228291,0.551702 0.231461,0.237803 0.691214,0.237803 h 0.960723 v -1.699498 h 0.291705 v 3.55119 z"
     style="font-style:normal;font-variant:normal;font-weight:300;font-stretch:normal;font-family:Lato;-inkscape-font-specification:'Lato Light';fill:#ffffff;stroke-width:0.22137287"
     id="path14"
     inkscape:connector-curvature="0" /><path
     d="m 14.364187,43.881214 v -3.55119 h 0.291705 v 1.566329 h 2.190957 v -1.566329 h 0.291705 v 3.55119 h -0.291705 v -1.737546 h -2.190957 v 1.737546 z"
     style="font-style:normal;font-variant:normal;font-weight:300;font-stretch:normal;font-family:Lato;-inkscape-font-specification:'Lato Light';fill:#ffffff;stroke-width:0.22137287"
     id="path16"
     inkscape:connector-curvature="0" /><path
     d="m 18.901466,43.633899 h 1.005114 q 0.491459,0 0.726091,-0.18073 0.234632,-0.18073 0.234632,-0.554873 0,-0.389997 -0.240973,-0.570727 -0.237803,-0.180731 -0.71975,-0.180731 h -1.005114 z m -0.291705,0.247315 v -3.55119 h 0.291705 v 1.569499 h 1.030479 q 0.573898,0 0.900481,0.247315 0.329753,0.247315 0.329753,0.745116 0,0.500972 -0.320241,0.745116 -0.317071,0.244144 -0.909993,0.244144 z m 3.192901,-3.55119 h 0.291704 v 3.55119 h -0.291704 z"
     style="font-style:normal;font-variant:normal;font-weight:300;font-stretch:normal;font-family:Lato;-inkscape-font-specification:'Lato Light';fill:#ffffff;stroke-width:0.22137287"
     id="path18"
     inkscape:connector-curvature="0" /><path
     d="m 23.993619,38.947597 h 0.250486 q 0.04122,0.320241 0.22512,0.478776 0.187072,0.161706 0.516825,0.161706 0.326583,0 0.507313,-0.155364 0.183901,-0.158535 0.234632,-0.485118 h 0.250486 q -0.03171,0.453411 -0.282193,0.681702 -0.250486,0.22829 -0.710238,0.22829 -0.459752,0 -0.710238,-0.22829 -0.250486,-0.228291 -0.282193,-0.681702 z m -0.409021,4.933617 v -3.55119 h 0.291705 v 3.23412 l 2.079983,-3.23412 h 0.434387 v 3.55119 h -0.291705 v -3.240461 l -2.089495,3.240461 z"
     style="font-style:normal;font-variant:normal;font-weight:300;font-stretch:normal;font-family:Lato;-inkscape-font-specification:'Lato Light';fill:#ffffff;stroke-width:0.22137287"
     id="path20"
     inkscape:connector-curvature="0" /><path
     d="m 29.926008,43.881214 v -3.55119 h 0.291705 v 1.902423 l 1.877057,-1.902423 h 0.412192 l -1.382427,1.401452 1.509255,2.149738 h -0.355119 l -1.363403,-1.937301 -0.697555,0.707068 v 1.230233 z"
     style="font-style:normal;font-variant:normal;font-weight:300;font-stretch:normal;font-family:Lato;-inkscape-font-specification:'Lato Light';fill:#ffffff;stroke-width:0.22137287"
     id="path22"
     inkscape:connector-curvature="0" /><path
     d="m 35.202062,41.877328 q -0.703897,0 -1.014626,0.250486 -0.310729,0.250486 -0.310729,0.732433 0,0.469264 0.256827,0.665848 0.256827,0.196584 0.608775,0.196584 0.665848,0 0.957553,-0.564386 0.294876,-0.564385 0.294876,-1.062186 v -0.218779 z m 1.087551,-0.02219 v 2.02608 H 36.001079 V 42.91732 q -0.244144,0.707067 -0.646824,0.90048 -0.320241,0.155365 -0.637311,0.155365 -0.529508,0 -0.833896,-0.282193 -0.304388,-0.285364 -0.304388,-0.837066 0,-0.551703 0.396339,-0.881456 0.396338,-0.332924 1.296818,-0.332924 h 0.722921 v -0.05707 q 0,-0.472435 -0.26951,-0.776823 -0.266339,-0.304388 -0.881456,-0.304388 -0.304388,0 -0.621458,0.114146 -0.202926,0.07293 -0.526337,0.294875 v -0.313899 q 0.282192,-0.174389 0.526337,-0.247315 0.355119,-0.104634 0.681701,-0.104634 0.6278,0 1.03365,0.380485 0.351948,0.326583 0.351948,1.230235 z"
     style="font-style:normal;font-variant:normal;font-weight:300;font-stretch:normal;font-family:Lato;-inkscape-font-specification:'Lato Light';fill:#ffffff;stroke-width:0.22137287"
     id="path24"
     inkscape:connector-curvature="0" /><path
     d="m 37.542043,42.10879 v -0.653165 q 0,-0.948041 0.07293,-1.322184 0.123658,-0.630971 0.738774,-0.979748 0.44707,-0.253657 1.338038,-0.259998 0.386826,-0.0032 0.558044,-0.05707 l 0.104633,0.301217 q -0.155364,0.06659 -0.244144,0.06659 -0.08561,0 -0.656336,0.04122 -0.570727,0.04122 -0.849749,0.17756 -0.716579,0.358289 -0.735604,1.233404 v 0.193413 l 0.06976,-0.101463 q 0.396338,-0.504142 1.074869,-0.504142 0.681702,0 1.074869,0.510484 0.396338,0.507313 0.396338,1.363403 0,0.85609 -0.396338,1.363403 -0.396338,0.507313 -1.074869,0.507313 -0.681702,0 -1.07804,-0.504142 -0.393167,-0.504142 -0.393167,-1.376086 z m 0.304388,0.0032 q 0,0.745115 0.313899,1.179502 0.3139,0.431216 0.859261,0.431216 0.542191,0 0.856091,-0.434387 0.31707,-0.437557 0.31707,-1.173161 0,-0.735603 -0.31707,-1.173161 -0.3139,-0.440728 -0.856091,-0.440728 -0.539019,0 -0.85609,0.434387 -0.31707,0.434387 -0.31707,1.176332 z"
     style="font-style:normal;font-variant:normal;font-weight:300;font-stretch:normal;font-family:Lato;-inkscape-font-specification:'Lato Light';fill:#ffffff;stroke-width:0.22137287"
     id="path26"
     inkscape:connector-curvature="0" /><path
     d="m 41.733715,43.881214 v -3.55119 h 0.291705 v 3.23412 l 2.079982,-3.23412 h 0.434387 v 3.55119 h -0.291705 v -3.240461 l -2.089495,3.240461 z"
     style="font-style:normal;font-variant:normal;font-weight:300;font-stretch:normal;font-family:Lato;-inkscape-font-specification:'Lato Light';fill:#ffffff;stroke-width:0.22137287"
     id="path28"
     inkscape:connector-curvature="0" /><path
     d="m 46.007824,43.881214 v -3.55119 h 0.291705 v 1.566329 h 2.190957 v -1.566329 h 0.291705 v 3.55119 h -0.291705 v -1.737546 h -2.190957 v 1.737546 z"
     style="font-style:normal;font-variant:normal;font-weight:300;font-stretch:normal;font-family:Lato;-inkscape-font-specification:'Lato Light';fill:#ffffff;stroke-width:0.22137287"
     id="path30"
     inkscape:connector-curvature="0" /><path
     d="m 53.024594,41.959767 v 0.183901 h -2.695099 q 0,0.85609 0.332924,1.198526 0.367802,0.380485 1.093893,0.380485 0.190243,0 0.504142,-0.08244 0.317071,-0.08244 0.6278,-0.247315 v 0.307558 q -0.3139,0.13317 -0.643653,0.202925 -0.329753,0.06976 -0.523166,0.06976 -0.821213,0 -1.236575,-0.443899 -0.450241,-0.472435 -0.450241,-1.385598 0,-0.948041 0.412192,-1.414135 0.421704,-0.485118 1.173161,-0.485118 0.697555,0 1.052674,0.459753 0.351948,0.481947 0.351948,1.255599 z m -0.294875,-0.06341 q 0,-0.748287 -0.336095,-1.090723 -0.282193,-0.304388 -0.767311,-0.304388 -0.529507,0 -0.887797,0.317071 -0.329753,0.294876 -0.396338,1.07804 z"
     style="font-style:normal;font-variant:normal;font-weight:300;font-stretch:normal;font-family:Lato;-inkscape-font-specification:'Lato Light';fill:#ffffff;stroke-width:0.22137287"
     id="path32"
     inkscape:connector-curvature="0" /><path
     d="m 53.738005,40.58051 v -0.250486 h 3.119974 v 0.250486 h -1.414135 v 3.300704 H 55.15214 V 40.58051 Z"
     style="font-style:normal;font-variant:normal;font-weight:300;font-stretch:normal;font-family:Lato;-inkscape-font-specification:'Lato Light';fill:#ffffff;stroke-width:0.22137287"
     id="path34"
     inkscape:connector-curvature="0" /></g>
</svg>